STARTFONT 2.1
COMMENT
COMMENT Converted from OpenType font "TekuplusBit-Regular.ttf" by "otf2bdf 3.0".
COMMENT
FONT -FreeType-TekuplusBit-Medium-R-Normal--17-120-100-100-P-149-ISO10646-1
SIZE 12 100 100
FONTBOUNDINGBOX 18 20 -1 -4
STARTPROPERTIES 19
FOUNDRY "FreeType"
FAMILY_NAME "TekuplusBit"
WEIGHT_NAME "Medium"
SLANT "R"
SETWIDTH_NAME "Normal"
ADD_STYLE_NAME ""
PIXEL_SIZE 17
POINT_SIZE 120
RESOLUTION_X 100
RESOLUTION_Y 100
SPACING "P"
AVERAGE_WIDTH 149
CHARSET_REGISTRY "ISO10646"
CHARSET_ENCODING "1"
FONT_ASCENT 15
FONT_DESCENT 3
COPYRIGHT "Copyright (C) 2022-2024 itouhiro  Copyright (C) 2002-2005 M+ Font Project"
_OTF_FONTFILE "TekuplusBit-Regular.ttf"
_OTF_PSNAME "TekuplusBit-Regular"
ENDPROPERTIES
CHARS 7285
STARTCHAR 0000
ENCODING 0
SWIDTH 420 0
DWIDTH 7 0
BBX 0 0 0 0
BITMAP
ENDCHAR
STARTCHAR 0001
ENCODING 1
SWIDTH 480 0
DWIDTH 8 0
BBX 7 7 0 2
BITMAP
10
7C
7C
FE
7C
7C
10
ENDCHAR
STARTCHAR 0002
ENCODING 2
SWIDTH 480 0
DWIDTH 8 0
BBX 8 16 0 -3
BITMAP
6D
92
6D
6D
92
6D
6D
92
6D
6D
92
6D
92
92
6D
92
ENDCHAR
STARTCHAR 0003
ENCODING 3
SWIDTH 480 0
DWIDTH 8 0
BBX 7 15 0 -2
BITMAP
82
82
82
FE
82
82
82
00
FE
10
10
10
10
10
10
ENDCHAR
STARTCHAR 0004
ENCODING 4
SWIDTH 480 0
DWIDTH 8 0
BBX 7 15 0 -2
BITMAP
FE
80
80
FE
80
80
80
00
FE
80
80
FE
80
80
80
ENDCHAR
STARTCHAR 0005
ENCODING 5
SWIDTH 480 0
DWIDTH 8 0
BBX 7 15 0 -2
BITMAP
FE
86
80
80
86
FE
00
00
FE
86
86
FE
88
88
86
ENDCHAR
STARTCHAR 0006
ENCODING 6
SWIDTH 480 0
DWIDTH 8 0
BBX 7 16 0 -2
BITMAP
80
80
80
80
80
80
FE
00
00
FE
80
80
FE
80
80
80
ENDCHAR
STARTCHAR 0007
ENCODING 7
SWIDTH 480 0
DWIDTH 8 0
BBX 5 5 0 8
BITMAP
70
88
88
88
70
ENDCHAR
STARTCHAR 0008
ENCODING 8
SWIDTH 480 0
DWIDTH 8 0
BBX 7 11 0 0
BITMAP
10
10
10
FE
10
10
10
00
00
00
FE
ENDCHAR
STARTCHAR 0009
ENCODING 9
SWIDTH 480 0
DWIDTH 8 0
BBX 7 15 0 -2
BITMAP
82
E2
E2
92
8E
8E
82
00
80
80
80
80
80
80
FE
ENDCHAR
STARTCHAR 000A
ENCODING 10
SWIDTH 480 0
DWIDTH 8 0
BBX 7 15 0 -2
BITMAP
82
82
82
82
8C
F0
00
00
FE
10
10
10
10
10
10
ENDCHAR
STARTCHAR 000B
ENCODING 11
SWIDTH 480 0
DWIDTH 8 0
BBX 4 11 0 4
BITMAP
10
10
10
10
10
10
10
10
10
10
F0
ENDCHAR
STARTCHAR 000C
ENCODING 12
SWIDTH 480 0
DWIDTH 8 0
BBX 4 8 0 -3
BITMAP
F0
10
10
10
10
10
10
10
ENDCHAR
STARTCHAR 000D
ENCODING 13
SWIDTH 480 0
DWIDTH 8 0
BBX 5 8 3 -3
BITMAP
F8
80
80
80
80
80
80
80
ENDCHAR
STARTCHAR 000E
ENCODING 14
SWIDTH 480 0
DWIDTH 8 0
BBX 5 11 3 4
BITMAP
80
80
80
80
80
80
80
80
80
80
F8
ENDCHAR
STARTCHAR 000F
ENCODING 15
SWIDTH 480 0
DWIDTH 8 0
BBX 8 18 0 -3
BITMAP
10
10
10
10
10
10
10
10
10
10
FF
10
10
10
10
10
10
10
ENDCHAR
STARTCHAR 0010
ENCODING 16
SWIDTH 480 0
DWIDTH 8 0
BBX 8 1 0 9
BITMAP
FF
ENDCHAR
STARTCHAR 0011
ENCODING 17
SWIDTH 480 0
DWIDTH 8 0
BBX 8 1 0 7
BITMAP
FF
ENDCHAR
STARTCHAR 0012
ENCODING 18
SWIDTH 480 0
DWIDTH 8 0
BBX 8 1 0 4
BITMAP
FF
ENDCHAR
STARTCHAR 0013
ENCODING 19
SWIDTH 480 0
DWIDTH 8 0
BBX 8 1 0 1
BITMAP
FF
ENDCHAR
STARTCHAR 0014
ENCODING 20
SWIDTH 480 0
DWIDTH 8 0
BBX 8 1 0 -2
BITMAP
FF
ENDCHAR
STARTCHAR 0015
ENCODING 21
SWIDTH 480 0
DWIDTH 8 0
BBX 5 18 3 -3
BITMAP
80
80
80
80
80
80
80
80
80
80
F8
80
80
80
80
80
80
80
ENDCHAR
STARTCHAR 0016
ENCODING 22
SWIDTH 480 0
DWIDTH 8 0
BBX 4 18 0 -3
BITMAP
10
10
10
10
10
10
10
10
10
10
F0
10
10
10
10
10
10
10
ENDCHAR
STARTCHAR 0017
ENCODING 23
SWIDTH 480 0
DWIDTH 8 0
BBX 8 11 0 4
BITMAP
10
10
10
10
10
10
10
10
10
10
FF
ENDCHAR
STARTCHAR 0018
ENCODING 24
SWIDTH 480 0
DWIDTH 8 0
BBX 8 8 0 -3
BITMAP
FF
10
10
10
10
10
10
10
ENDCHAR
STARTCHAR 0019
ENCODING 25
SWIDTH 480 0
DWIDTH 8 0
BBX 1 18 3 -3
BITMAP
80
80
80
80
80
80
80
80
80
80
80
80
80
80
80
80
80
80
ENDCHAR
STARTCHAR 001A
ENCODING 26
SWIDTH 480 0
DWIDTH 8 0
BBX 7 12 0 0
BITMAP
0C
10
10
60
80
80
60
10
10
0C
00
FE
ENDCHAR
STARTCHAR 001B
ENCODING 27
SWIDTH 480 0
DWIDTH 8 0
BBX 7 12 0 0
BITMAP
60
10
10
0C
02
02
0C
10
10
60
00
FE
ENDCHAR
STARTCHAR 001C
ENCODING 28
SWIDTH 480 0
DWIDTH 8 0
BBX 7 9 0 -1
BITMAP
FE
6C
6C
6C
6C
6C
8C
8C
8C
ENDCHAR
STARTCHAR 001D
ENCODING 29
SWIDTH 480 0
DWIDTH 8 0
BBX 7 10 0 1
BITMAP
0C
0C
0C
FE
10
10
FE
60
60
60
ENDCHAR
STARTCHAR 001E
ENCODING 30
SWIDTH 480 0
DWIDTH 8 0
BBX 7 12 0 0
BITMAP
1C
1C
62
60
60
60
FC
60
60
60
70
8E
ENDCHAR
STARTCHAR 001F
ENCODING 31
SWIDTH 480 0
DWIDTH 8 0
BBX 4 4 1 4
BITMAP
60
F0
F0
60
ENDCHAR
STARTCHAR 0020
ENCODING 32
SWIDTH 480 0
DWIDTH 8 0
BBX 0 0 0 0
BITMAP
ENDCHAR
STARTCHAR 0021
ENCODING 33
SWIDTH 480 0
DWIDTH 8 0
BBX 1 13 3 -1
BITMAP
80
80
80
80
80
80
80
00
00
00
80
80
80
ENDCHAR
STARTCHAR 0022
ENCODING 34
SWIDTH 540 0
DWIDTH 9 0
BBX 4 5 2 8
BITMAP
90
90
90
90
90
ENDCHAR
STARTCHAR 0023
ENCODING 35
SWIDTH 480 0
DWIDTH 8 0
BBX 7 13 0 -1
BITMAP
24
24
24
FE
24
24
24
24
24
FE
24
24
24
ENDCHAR
STARTCHAR 0024
ENCODING 36
SWIDTH 480 0
DWIDTH 8 0
BBX 7 13 0 -1
BITMAP
10
10
7E
90
90
90
78
16
12
12
FC
10
10
ENDCHAR
STARTCHAR 0025
ENCODING 37
SWIDTH 480 0
DWIDTH 8 0
BBX 7 13 0 -1
BITMAP
40
00
90
92
00
48
10
00
48
92
12
12
08
ENDCHAR
STARTCHAR 0026
ENCODING 38
SWIDTH 480 0
DWIDTH 8 0
BBX 7 13 0 -1
BITMAP
70
00
88
88
88
70
40
40
92
88
82
00
78
ENDCHAR
STARTCHAR 0027
ENCODING 39
SWIDTH 480 0
DWIDTH 8 0
BBX 1 5 3 8
BITMAP
80
80
80
80
80
ENDCHAR
STARTCHAR 0028
ENCODING 40
SWIDTH 540 0
DWIDTH 9 0
BBX 4 14 2 -2
BITMAP
30
00
40
80
80
80
80
80
80
80
80
00
40
30
ENDCHAR
STARTCHAR 0029
ENCODING 41
SWIDTH 540 0
DWIDTH 9 0
BBX 4 14 2 -2
BITMAP
80
80
40
30
30
30
30
30
30
30
30
20
40
80
ENDCHAR
STARTCHAR 002A
ENCODING 42
SWIDTH 480 0
DWIDTH 8 0
BBX 7 7 0 2
BITMAP
10
10
92
78
96
10
10
ENDCHAR
STARTCHAR 002B
ENCODING 43
SWIDTH 480 0
DWIDTH 8 0
BBX 7 7 0 2
BITMAP
10
10
10
FE
10
10
10
ENDCHAR
STARTCHAR 002C
ENCODING 44
SWIDTH 480 0
DWIDTH 8 0
BBX 4 5 0 -3
BITMAP
30
30
30
40
80
ENDCHAR
STARTCHAR 002D
ENCODING 45
SWIDTH 480 0
DWIDTH 8 0
BBX 7 1 0 5
BITMAP
FE
ENDCHAR
STARTCHAR 002E
ENCODING 46
SWIDTH 480 0
DWIDTH 8 0
BBX 3 3 1 -1
BITMAP
E0
E0
E0
ENDCHAR
STARTCHAR 002F
ENCODING 47
SWIDTH 480 0
DWIDTH 8 0
BBX 7 13 0 -1
BITMAP
02
02
02
08
08
08
10
40
40
40
80
80
80
ENDCHAR
STARTCHAR 0030
ENCODING 48
SWIDTH 480 0
DWIDTH 8 0
BBX 7 13 0 -1
BITMAP
10
00
48
82
82
82
82
82
82
82
48
00
10
ENDCHAR
STARTCHAR 0031
ENCODING 49
SWIDTH 480 0
DWIDTH 8 0
BBX 3 13 1 -1
BITMAP
20
20
E0
20
20
20
20
20
20
20
20
20
20
ENDCHAR
STARTCHAR 0032
ENCODING 50
SWIDTH 480 0
DWIDTH 8 0
BBX 7 13 0 -1
BITMAP
F8
04
02
02
02
02
02
04
08
10
20
20
FE
ENDCHAR
STARTCHAR 0033
ENCODING 51
SWIDTH 480 0
DWIDTH 8 0
BBX 7 13 0 -1
BITMAP
F8
04
02
02
02
02
78
04
02
02
02
02
F8
ENDCHAR
STARTCHAR 0034
ENCODING 52
SWIDTH 480 0
DWIDTH 8 0
BBX 7 13 0 -1
BITMAP
88
88
88
88
88
88
FE
08
08
08
08
08
08
ENDCHAR
STARTCHAR 0035
ENCODING 53
SWIDTH 480 0
DWIDTH 8 0
BBX 7 13 0 -1
BITMAP
FE
80
80
80
80
80
FC
00
02
02
02
02
FC
ENDCHAR
STARTCHAR 0036
ENCODING 54
SWIDTH 480 0
DWIDTH 8 0
BBX 7 13 0 -1
BITMAP
38
00
40
80
80
80
F8
82
82
82
82
00
78
ENDCHAR
STARTCHAR 0037
ENCODING 55
SWIDTH 480 0
DWIDTH 8 0
BBX 7 13 0 -1
BITMAP
FE
82
82
02
02
02
08
00
10
10
10
10
10
ENDCHAR
STARTCHAR 0038
ENCODING 56
SWIDTH 480 0
DWIDTH 8 0
BBX 7 13 0 -1
BITMAP
78
00
82
82
82
82
78
00
82
82
82
82
78
ENDCHAR
STARTCHAR 0039
ENCODING 57
SWIDTH 480 0
DWIDTH 8 0
BBX 7 13 0 -1
BITMAP
78
00
82
82
82
82
7E
02
02
02
08
00
70
ENDCHAR
STARTCHAR 003A
ENCODING 58
SWIDTH 540 0
DWIDTH 9 0
BBX 3 8 3 1
BITMAP
E0
E0
E0
00
00
E0
E0
E0
ENDCHAR
STARTCHAR 003B
ENCODING 59
SWIDTH 540 0
DWIDTH 9 0
BBX 4 11 2 -2
BITMAP
30
30
30
00
00
30
30
30
00
40
80
ENDCHAR
STARTCHAR 003C
ENCODING 60
SWIDTH 480 0
DWIDTH 8 0
BBX 5 9 2 1
BITMAP
08
10
40
00
80
40
20
10
08
ENDCHAR
STARTCHAR 003D
ENCODING 61
SWIDTH 480 0
DWIDTH 8 0
BBX 6 5 1 2
BITMAP
FC
00
00
00
FC
ENDCHAR
STARTCHAR 003E
ENCODING 62
SWIDTH 480 0
DWIDTH 8 0
BBX 5 9 2 1
BITMAP
80
40
30
10
08
10
20
40
80
ENDCHAR
STARTCHAR 003F
ENCODING 63
SWIDTH 480 0
DWIDTH 8 0
BBX 7 13 0 -1
BITMAP
F8
04
02
02
02
0C
10
00
00
00
10
10
10
ENDCHAR
STARTCHAR 0040
ENCODING 64
SWIDTH 480 0
DWIDTH 8 0
BBX 7 13 0 -1
BITMAP
78
00
82
92
92
92
92
92
82
8E
80
80
78
ENDCHAR
STARTCHAR 0041
ENCODING 65
SWIDTH 480 0
DWIDTH 8 0
BBX 7 13 0 -1
BITMAP
10
00
48
82
82
82
FE
82
82
82
82
82
82
ENDCHAR
STARTCHAR 0042
ENCODING 66
SWIDTH 480 0
DWIDTH 8 0
BBX 7 13 0 -1
BITMAP
FC
84
82
82
82
82
FC
84
82
82
82
82
FC
ENDCHAR
STARTCHAR 0043
ENCODING 67
SWIDTH 480 0
DWIDTH 8 0
BBX 7 13 0 -1
BITMAP
7E
00
80
80
80
80
80
80
80
80
80
80
7E
ENDCHAR
STARTCHAR 0044
ENCODING 68
SWIDTH 480 0
DWIDTH 8 0
BBX 7 13 0 -1
BITMAP
FC
84
82
82
82
82
82
82
82
82
82
82
FC
ENDCHAR
STARTCHAR 0045
ENCODING 69
SWIDTH 480 0
DWIDTH 8 0
BBX 7 13 0 -1
BITMAP
FE
80
80
80
80
80
F8
80
80
80
80
80
FE
ENDCHAR
STARTCHAR 0046
ENCODING 70
SWIDTH 480 0
DWIDTH 8 0
BBX 7 13 0 -1
BITMAP
FE
80
80
80
80
80
F8
80
80
80
80
80
80
ENDCHAR
STARTCHAR 0047
ENCODING 71
SWIDTH 480 0
DWIDTH 8 0
BBX 7 13 0 -1
BITMAP
7E
00
80
80
80
80
9E
82
82
82
82
82
7E
ENDCHAR
STARTCHAR 0048
ENCODING 72
SWIDTH 480 0
DWIDTH 8 0
BBX 7 13 0 -1
BITMAP
82
82
82
82
82
82
FE
82
82
82
82
82
82
ENDCHAR
STARTCHAR 0049
ENCODING 73
SWIDTH 480 0
DWIDTH 8 0
BBX 4 13 1 -1
BITMAP
F0
20
20
20
20
20
20
20
20
20
20
20
F0
ENDCHAR
STARTCHAR 004A
ENCODING 74
SWIDTH 480 0
DWIDTH 8 0
BBX 7 13 0 -1
BITMAP
1E
08
08
08
08
08
08
08
08
08
08
08
F0
ENDCHAR
STARTCHAR 004B
ENCODING 75
SWIDTH 480 0
DWIDTH 8 0
BBX 7 13 0 -1
BITMAP
82
82
82
88
80
90
E0
A0
90
88
82
82
82
ENDCHAR
STARTCHAR 004C
ENCODING 76
SWIDTH 480 0
DWIDTH 8 0
BBX 7 13 0 -1
BITMAP
80
80
80
80
80
80
80
80
80
80
80
80
FE
ENDCHAR
STARTCHAR 004D
ENCODING 77
SWIDTH 480 0
DWIDTH 8 0
BBX 7 13 0 -1
BITMAP
82
82
82
EE
92
92
92
92
82
82
82
82
82
ENDCHAR
STARTCHAR 004E
ENCODING 78
SWIDTH 480 0
DWIDTH 8 0
BBX 7 13 0 -1
BITMAP
82
82
82
E2
A2
92
92
92
8E
82
82
82
82
ENDCHAR
STARTCHAR 004F
ENCODING 79
SWIDTH 480 0
DWIDTH 8 0
BBX 7 13 0 -1
BITMAP
78
00
82
82
82
82
82
82
82
82
82
82
78
ENDCHAR
STARTCHAR 0050
ENCODING 80
SWIDTH 480 0
DWIDTH 8 0
BBX 7 13 0 -1
BITMAP
FC
84
82
82
82
82
FC
80
80
80
80
80
80
ENDCHAR
STARTCHAR 0051
ENCODING 81
SWIDTH 480 0
DWIDTH 8 0
BBX 7 14 0 -2
BITMAP
78
00
82
82
82
82
82
82
82
F2
8E
8E
78
02
ENDCHAR
STARTCHAR 0052
ENCODING 82
SWIDTH 480 0
DWIDTH 8 0
BBX 7 13 0 -1
BITMAP
F8
84
82
82
82
82
FC
88
88
82
82
82
82
ENDCHAR
STARTCHAR 0053
ENCODING 83
SWIDTH 480 0
DWIDTH 8 0
BBX 7 13 0 -1
BITMAP
78
00
82
80
80
80
78
02
02
02
82
80
78
ENDCHAR
STARTCHAR 0054
ENCODING 84
SWIDTH 480 0
DWIDTH 8 0
BBX 7 13 0 -1
BITMAP
FE
10
10
10
10
10
10
10
10
10
10
10
10
ENDCHAR
STARTCHAR 0055
ENCODING 85
SWIDTH 480 0
DWIDTH 8 0
BBX 7 13 0 -1
BITMAP
82
82
82
82
82
82
82
82
82
82
82
00
78
ENDCHAR
STARTCHAR 0056
ENCODING 86
SWIDTH 480 0
DWIDTH 8 0
BBX 7 13 0 -1
BITMAP
82
82
82
82
82
82
82
82
00
48
48
48
10
ENDCHAR
STARTCHAR 0057
ENCODING 87
SWIDTH 480 0
DWIDTH 8 0
BBX 7 13 0 -1
BITMAP
82
82
82
82
82
82
92
92
92
EE
82
82
82
ENDCHAR
STARTCHAR 0058
ENCODING 88
SWIDTH 480 0
DWIDTH 8 0
BBX 7 13 0 -1
BITMAP
82
82
82
82
00
48
10
00
48
82
82
82
82
ENDCHAR
STARTCHAR 0059
ENCODING 89
SWIDTH 480 0
DWIDTH 8 0
BBX 7 13 0 -1
BITMAP
82
82
82
82
00
48
10
10
10
10
10
10
10
ENDCHAR
STARTCHAR 005A
ENCODING 90
SWIDTH 480 0
DWIDTH 8 0
BBX 7 13 0 -1
BITMAP
FE
08
08
08
08
10
10
10
20
20
20
20
FE
ENDCHAR
STARTCHAR 005B
ENCODING 91
SWIDTH 540 0
DWIDTH 9 0
BBX 4 14 2 -2
BITMAP
F0
80
80
80
80
80
80
80
80
80
80
80
80
F0
ENDCHAR
STARTCHAR 005C
ENCODING 92
SWIDTH 480 0
DWIDTH 8 0
BBX 7 13 0 -1
BITMAP
80
80
40
40
40
30
10
08
08
08
06
02
02
ENDCHAR
STARTCHAR 005D
ENCODING 93
SWIDTH 480 0
DWIDTH 8 0
BBX 4 14 1 -2
BITMAP
F0
10
10
10
10
10
10
10
10
10
10
10
10
F0
ENDCHAR
STARTCHAR 005E
ENCODING 94
SWIDTH 480 0
DWIDTH 8 0
BBX 7 4 0 8
BITMAP
10
00
48
82
ENDCHAR
STARTCHAR 005F
ENCODING 95
SWIDTH 480 0
DWIDTH 8 0
BBX 7 1 0 -2
BITMAP
FE
ENDCHAR
STARTCHAR 0060
ENCODING 96
SWIDTH 540 0
DWIDTH 9 0
BBX 4 4 2 8
BITMAP
80
80
40
30
ENDCHAR
STARTCHAR 0061
ENCODING 97
SWIDTH 420 0
DWIDTH 7 0
BBX 6 11 0 -1
BITMAP
38
04
04
04
7C
84
84
84
84
84
7C
ENDCHAR
STARTCHAR 0062
ENCODING 98
SWIDTH 480 0
DWIDTH 8 0
BBX 7 14 0 -1
BITMAP
80
80
80
80
FC
84
82
82
82
82
82
82
82
FC
ENDCHAR
STARTCHAR 0063
ENCODING 99
SWIDTH 480 0
DWIDTH 8 0
BBX 7 10 0 -1
BITMAP
7E
00
80
80
80
80
80
80
80
7E
ENDCHAR
STARTCHAR 0064
ENCODING 100
SWIDTH 480 0
DWIDTH 8 0
BBX 7 14 0 -1
BITMAP
02
02
02
02
7E
82
82
82
82
82
82
82
82
7E
ENDCHAR
STARTCHAR 0065
ENCODING 101
SWIDTH 480 0
DWIDTH 8 0
BBX 7 10 0 -1
BITMAP
78
00
82
82
82
FE
80
80
80
78
ENDCHAR
STARTCHAR 0066
ENCODING 102
SWIDTH 480 0
DWIDTH 8 0
BBX 7 13 0 -1
BITMAP
0E
00
10
10
10
FE
10
10
10
10
10
10
10
ENDCHAR
STARTCHAR 0067
ENCODING 103
SWIDTH 420 0
DWIDTH 7 0
BBX 6 11 0 -2
BITMAP
7C
84
84
84
84
84
84
7C
04
04
38
ENDCHAR
STARTCHAR 0068
ENCODING 104
SWIDTH 480 0
DWIDTH 8 0
BBX 7 14 0 -1
BITMAP
80
80
80
80
FC
80
82
82
82
82
82
82
82
82
ENDCHAR
STARTCHAR 0069
ENCODING 105
SWIDTH 480 0
DWIDTH 8 0
BBX 4 13 1 -1
BITMAP
20
00
00
E0
20
20
20
20
20
20
20
20
F0
ENDCHAR
STARTCHAR 006A
ENCODING 106
SWIDTH 480 0
DWIDTH 8 0
BBX 7 14 0 -2
BITMAP
02
00
00
0E
02
02
02
02
02
02
02
02
02
FC
ENDCHAR
STARTCHAR 006B
ENCODING 107
SWIDTH 480 0
DWIDTH 8 0
BBX 7 13 0 -1
BITMAP
80
80
80
82
80
88
90
80
E0
90
88
80
82
ENDCHAR
STARTCHAR 006C
ENCODING 108
SWIDTH 480 0
DWIDTH 8 0
BBX 4 13 1 -1
BITMAP
E0
20
20
20
20
20
20
20
20
20
20
20
30
ENDCHAR
STARTCHAR 006D
ENCODING 109
SWIDTH 480 0
DWIDTH 8 0
BBX 7 10 0 -1
BITMAP
FC
90
92
92
92
92
92
92
92
92
ENDCHAR
STARTCHAR 006E
ENCODING 110
SWIDTH 480 0
DWIDTH 8 0
BBX 7 10 0 -1
BITMAP
FC
80
82
82
82
82
82
82
82
82
ENDCHAR
STARTCHAR 006F
ENCODING 111
SWIDTH 480 0
DWIDTH 8 0
BBX 7 10 0 -1
BITMAP
78
00
82
82
82
82
82
82
82
78
ENDCHAR
STARTCHAR 0070
ENCODING 112
SWIDTH 480 0
DWIDTH 8 0
BBX 7 12 0 -3
BITMAP
FC
84
82
82
82
82
82
FC
80
80
80
80
ENDCHAR
STARTCHAR 0071
ENCODING 113
SWIDTH 480 0
DWIDTH 8 0
BBX 7 12 0 -3
BITMAP
7E
82
82
82
82
82
82
7E
02
02
02
02
ENDCHAR
STARTCHAR 0072
ENCODING 114
SWIDTH 480 0
DWIDTH 8 0
BBX 7 10 0 -1
BITMAP
9E
80
E0
80
80
80
80
80
80
80
ENDCHAR
STARTCHAR 0073
ENCODING 115
SWIDTH 480 0
DWIDTH 8 0
BBX 7 10 0 -1
BITMAP
7E
00
80
80
80
78
02
02
02
F8
ENDCHAR
STARTCHAR 0074
ENCODING 116
SWIDTH 480 0
DWIDTH 8 0
BBX 7 13 0 -1
BITMAP
10
10
10
FE
10
10
10
10
10
10
10
10
0E
ENDCHAR
STARTCHAR 0075
ENCODING 117
SWIDTH 480 0
DWIDTH 8 0
BBX 7 10 0 -1
BITMAP
82
82
82
82
82
82
82
82
02
7E
ENDCHAR
STARTCHAR 0076
ENCODING 118
SWIDTH 480 0
DWIDTH 8 0
BBX 7 10 0 -1
BITMAP
82
82
82
82
82
82
82
48
00
10
ENDCHAR
STARTCHAR 0077
ENCODING 119
SWIDTH 480 0
DWIDTH 8 0
BBX 7 10 0 -1
BITMAP
82
82
82
82
92
92
92
EE
82
82
ENDCHAR
STARTCHAR 0078
ENCODING 120
SWIDTH 480 0
DWIDTH 8 0
BBX 7 10 0 -1
BITMAP
82
82
82
48
00
10
48
82
82
82
ENDCHAR
STARTCHAR 0079
ENCODING 121
SWIDTH 420 0
DWIDTH 7 0
BBX 6 11 0 -2
BITMAP
84
84
84
84
84
84
84
7C
04
04
38
ENDCHAR
STARTCHAR 007A
ENCODING 122
SWIDTH 480 0
DWIDTH 8 0
BBX 7 10 0 -1
BITMAP
FE
02
02
0C
10
10
60
80
80
FE
ENDCHAR
STARTCHAR 007B
ENCODING 123
SWIDTH 480 0
DWIDTH 8 0
BBX 7 14 0 -2
BITMAP
0E
00
10
10
10
10
10
E0
20
10
10
10
10
0E
ENDCHAR
STARTCHAR 007C
ENCODING 124
SWIDTH 480 0
DWIDTH 8 0
BBX 1 14 3 -2
BITMAP
80
80
80
80
80
80
80
80
80
80
80
80
80
80
ENDCHAR
STARTCHAR 007D
ENCODING 125
SWIDTH 480 0
DWIDTH 8 0
BBX 7 14 1 -2
BITMAP
E0
20
10
10
10
10
10
0E
10
10
10
10
10
E0
ENDCHAR
STARTCHAR 007E
ENCODING 126
SWIDTH 480 0
DWIDTH 8 0
BBX 7 4 0 8
BITMAP
72
92
92
88
ENDCHAR
STARTCHAR 007F
ENCODING 127
SWIDTH 480 0
DWIDTH 8 0
BBX 0 0 0 0
BITMAP
ENDCHAR
STARTCHAR 00A0
ENCODING 160
SWIDTH 480 0
DWIDTH 8 0
BBX 0 0 0 0
BITMAP
ENDCHAR
STARTCHAR 00A1
ENCODING 161
SWIDTH 480 0
DWIDTH 8 0
BBX 1 12 3 -2
BITMAP
80
80
80
00
00
80
80
80
80
80
80
80
ENDCHAR
STARTCHAR 00A2
ENCODING 162
SWIDTH 480 0
DWIDTH 8 0
BBX 7 14 0 -2
BITMAP
10
10
10
7E
90
90
90
90
90
90
90
10
7E
10
ENDCHAR
STARTCHAR 00A3
ENCODING 163
SWIDTH 480 0
DWIDTH 8 0
BBX 7 13 0 -1
BITMAP
1E
00
40
40
40
40
FE
40
40
40
82
82
FE
ENDCHAR
STARTCHAR 00A4
ENCODING 164
SWIDTH 480 0
DWIDTH 8 0
BBX 7 8 0 1
BITMAP
82
78
84
82
82
82
7C
86
ENDCHAR
STARTCHAR 00A5
ENCODING 165
SWIDTH 480 0
DWIDTH 8 0
BBX 7 13 0 -1
BITMAP
82
82
82
82
48
48
FE
10
10
FE
10
10
10
ENDCHAR
STARTCHAR 00A6
ENCODING 166
SWIDTH 480 0
DWIDTH 8 0
BBX 1 14 3 -2
BITMAP
80
80
80
80
80
80
80
00
00
80
80
80
80
80
ENDCHAR
STARTCHAR 00A7
ENCODING 167
SWIDTH 1020 0
DWIDTH 17 0
BBX 7 16 4 -2
BITMAP
78
82
82
82
40
78
82
82
82
78
08
08
82
82
82
78
ENDCHAR
STARTCHAR 00A8
ENCODING 168
SWIDTH 960 0
DWIDTH 16 0
BBX 8 3 4 12
BITMAP
E7
E7
E7
ENDCHAR
STARTCHAR 00A9
ENCODING 169
SWIDTH 480 0
DWIDTH 8 0
BBX 8 9 0 1
BITMAP
7E
81
81
9D
91
9D
81
81
7E
ENDCHAR
STARTCHAR 00AA
ENCODING 170
SWIDTH 480 0
DWIDTH 8 0
BBX 6 8 0 4
BITMAP
38
04
04
7C
84
84
84
7C
ENDCHAR
STARTCHAR 00AB
ENCODING 171
SWIDTH 480 0
DWIDTH 8 0
BBX 8 6 0 1
BITMAP
11
42
88
84
42
31
ENDCHAR
STARTCHAR 00AC
ENCODING 172
SWIDTH 540 0
DWIDTH 9 0
BBX 7 3 0 3
BITMAP
FE
02
02
ENDCHAR
STARTCHAR 00AD
ENCODING 173
SWIDTH 480 0
DWIDTH 8 0
BBX 4 1 1 4
BITMAP
F0
ENDCHAR
STARTCHAR 00AE
ENCODING 174
SWIDTH 480 0
DWIDTH 8 0
BBX 8 9 0 1
BITMAP
7E
81
81
9D
93
9D
93
93
7E
ENDCHAR
STARTCHAR 00AF
ENCODING 175
SWIDTH 480 0
DWIDTH 8 0
BBX 4 1 1 9
BITMAP
F0
ENDCHAR
STARTCHAR 00B0
ENCODING 176
SWIDTH 1020 0
DWIDTH 17 0
BBX 5 5 2 8
BITMAP
70
88
88
88
70
ENDCHAR
STARTCHAR 00B1
ENCODING 177
SWIDTH 1020 0
DWIDTH 17 0
BBX 10 13 3 -1
BITMAP
0800
0800
0800
0800
0800
FFC0
0800
0800
0800
0800
0000
0000
FFC0
ENDCHAR
STARTCHAR 00B2
ENCODING 178
SWIDTH 480 0
DWIDTH 8 0
BBX 5 7 0 5
BITMAP
F0
10
08
10
20
20
F8
ENDCHAR
STARTCHAR 00B3
ENCODING 179
SWIDTH 480 0
DWIDTH 8 0
BBX 5 7 0 5
BITMAP
F0
10
08
70
08
00
F0
ENDCHAR
STARTCHAR 00B4
ENCODING 180
SWIDTH 960 0
DWIDTH 16 0
BBX 2 2 6 12
BITMAP
40
80
ENDCHAR
STARTCHAR 00B5
ENCODING 181
SWIDTH 480 0
DWIDTH 8 0
BBX 8 11 0 -2
BITMAP
82
82
82
82
82
82
82
82
82
FF
80
ENDCHAR
STARTCHAR 00B6
ENCODING 182
SWIDTH 1020 0
DWIDTH 17 0
BBX 8 14 3 -1
BITMAP
3F
79
79
F9
F9
F9
39
39
09
09
09
09
09
09
ENDCHAR
STARTCHAR 00B7
ENCODING 183
SWIDTH 540 0
DWIDTH 9 0
BBX 3 3 3 4
BITMAP
E0
E0
E0
ENDCHAR
STARTCHAR 00B8
ENCODING 184
SWIDTH 480 0
DWIDTH 8 0
BBX 4 4 1 -2
BITMAP
20
20
10
E0
ENDCHAR
STARTCHAR 00B9
ENCODING 185
SWIDTH 480 0
DWIDTH 8 0
BBX 4 7 1 5
BITMAP
20
20
E0
20
20
20
F0
ENDCHAR
STARTCHAR 00BA
ENCODING 186
SWIDTH 540 0
DWIDTH 9 0
BBX 7 7 0 5
BITMAP
78
00
82
82
82
82
78
ENDCHAR
STARTCHAR 00BB
ENCODING 187
SWIDTH 480 0
DWIDTH 8 0
BBX 8 6 0 1
BITMAP
88
46
31
22
42
88
ENDCHAR
STARTCHAR 00BC
ENCODING 188
SWIDTH 480 0
DWIDTH 8 0
BBX 8 12 0 -1
BITMAP
40
C1
40
42
48
F2
42
4E
92
7F
02
02
ENDCHAR
STARTCHAR 00BD
ENCODING 189
SWIDTH 480 0
DWIDTH 8 0
BBX 8 12 0 0
BITMAP
40
C1
40
42
48
40
F0
4F
81
02
02
0F
ENDCHAR
STARTCHAR 00BE
ENCODING 190
SWIDTH 480 0
DWIDTH 8 0
BBX 8 12 0 -1
BITMAP
C0
31
00
C2
1C
F2
42
4E
92
7F
02
02
ENDCHAR
STARTCHAR 00BF
ENCODING 191
SWIDTH 540 0
DWIDTH 9 0
BBX 7 14 0 -2
BITMAP
10
10
10
00
00
00
10
40
00
80
80
80
80
7E
ENDCHAR
STARTCHAR 00C0
ENCODING 192
SWIDTH 480 0
DWIDTH 8 0
BBX 7 14 0 -1
BITMAP
10
08
00
00
78
00
82
82
82
FE
82
82
82
82
ENDCHAR
STARTCHAR 00C1
ENCODING 193
SWIDTH 480 0
DWIDTH 8 0
BBX 7 14 0 -1
BITMAP
08
10
00
00
78
00
82
82
82
FE
82
82
82
82
ENDCHAR
STARTCHAR 00C2
ENCODING 194
SWIDTH 480 0
DWIDTH 8 0
BBX 7 14 0 -1
BITMAP
10
48
00
00
78
00
82
82
82
FE
82
82
82
82
ENDCHAR
STARTCHAR 00C3
ENCODING 195
SWIDTH 480 0
DWIDTH 8 0
BBX 7 14 0 -1
BITMAP
72
88
00
00
78
00
82
82
82
FE
82
82
82
82
ENDCHAR
STARTCHAR 00C4
ENCODING 196
SWIDTH 480 0
DWIDTH 8 0
BBX 7 14 0 -1
BITMAP
48
00
00
00
78
00
82
82
82
FE
82
82
82
82
ENDCHAR
STARTCHAR 00C5
ENCODING 197
SWIDTH 480 0
DWIDTH 8 0
BBX 7 14 0 -1
BITMAP
38
42
38
38
78
04
82
82
82
FE
82
82
82
82
ENDCHAR
STARTCHAR 00C6
ENCODING 198
SWIDTH 480 0
DWIDTH 8 0
BBX 8 11 0 -1
BITMAP
3F
48
08
88
88
88
FF
88
88
88
8F
ENDCHAR
STARTCHAR 00C7
ENCODING 199
SWIDTH 480 0
DWIDTH 8 0
BBX 7 15 0 -3
BITMAP
1E
00
40
80
80
80
80
80
80
80
40
00
1E
08
70
ENDCHAR
STARTCHAR 00C8
ENCODING 200
SWIDTH 480 0
DWIDTH 8 0
BBX 7 14 0 -1
BITMAP
40
30
00
00
FE
80
80
80
80
F8
80
80
80
FE
ENDCHAR
STARTCHAR 00C9
ENCODING 201
SWIDTH 480 0
DWIDTH 8 0
BBX 7 14 0 -1
BITMAP
08
10
00
00
FE
80
80
80
80
F8
80
80
80
FE
ENDCHAR
STARTCHAR 00CA
ENCODING 202
SWIDTH 480 0
DWIDTH 8 0
BBX 7 14 0 -1
BITMAP
10
48
00
00
FE
80
80
80
80
F8
80
80
80
FE
ENDCHAR
STARTCHAR 00CB
ENCODING 203
SWIDTH 480 0
DWIDTH 8 0
BBX 7 14 0 -1
BITMAP
48
00
00
00
FE
80
80
80
80
F8
80
80
80
FE
ENDCHAR
STARTCHAR 00CC
ENCODING 204
SWIDTH 540 0
DWIDTH 9 0
BBX 4 14 2 -1
BITMAP
80
40
00
00
F0
40
40
40
40
40
40
40
40
F0
ENDCHAR
STARTCHAR 00CD
ENCODING 205
SWIDTH 480 0
DWIDTH 8 0
BBX 4 14 1 -1
BITMAP
10
20
00
00
F0
20
20
20
20
20
20
20
20
F0
ENDCHAR
STARTCHAR 00CE
ENCODING 206
SWIDTH 540 0
DWIDTH 9 0
BBX 4 14 2 -1
BITMAP
40
B0
00
00
F0
40
40
40
40
40
40
40
40
F0
ENDCHAR
STARTCHAR 00CF
ENCODING 207
SWIDTH 540 0
DWIDTH 9 0
BBX 4 14 2 -1
BITMAP
B0
00
00
00
F0
40
40
40
40
40
40
40
40
F0
ENDCHAR
STARTCHAR 00D0
ENCODING 208
SWIDTH 480 0
DWIDTH 8 0
BBX 8 13 0 -1
BITMAP
3C
24
22
21
21
21
F1
21
21
21
22
24
3C
ENDCHAR
STARTCHAR 00D1
ENCODING 209
SWIDTH 480 0
DWIDTH 8 0
BBX 7 14 0 -1
BITMAP
72
88
00
00
82
82
E2
92
82
8E
82
82
82
82
ENDCHAR
STARTCHAR 00D2
ENCODING 210
SWIDTH 480 0
DWIDTH 8 0
BBX 7 14 0 -1
BITMAP
40
30
00
00
78
00
82
82
82
82
82
82
82
78
ENDCHAR
STARTCHAR 00D3
ENCODING 211
SWIDTH 480 0
DWIDTH 8 0
BBX 7 14 0 -1
BITMAP
08
10
00
00
78
00
82
82
82
82
82
82
82
78
ENDCHAR
STARTCHAR 00D4
ENCODING 212
SWIDTH 480 0
DWIDTH 8 0
BBX 7 14 0 -1
BITMAP
10
48
00
00
78
00
82
82
82
82
82
82
82
78
ENDCHAR
STARTCHAR 00D5
ENCODING 213
SWIDTH 480 0
DWIDTH 8 0
BBX 7 14 0 -1
BITMAP
72
88
00
00
78
00
82
82
82
82
82
82
82
78
ENDCHAR
STARTCHAR 00D6
ENCODING 214
SWIDTH 480 0
DWIDTH 8 0
BBX 7 14 0 -1
BITMAP
48
00
00
00
78
00
82
82
82
82
82
82
82
78
ENDCHAR
STARTCHAR 00D7
ENCODING 215
SWIDTH 960 0
DWIDTH 16 0
BBX 9 9 3 1
BITMAP
8080
4100
3200
1000
0800
1600
2200
4100
8080
ENDCHAR
STARTCHAR 00D8
ENCODING 216
SWIDTH 480 0
DWIDTH 8 0
BBX 8 11 0 -1
BITMAP
79
86
86
8E
92
92
92
E2
82
00
78
ENDCHAR
STARTCHAR 00D9
ENCODING 217
SWIDTH 480 0
DWIDTH 8 0
BBX 7 14 0 -1
BITMAP
40
30
00
00
82
82
82
82
82
82
82
82
00
78
ENDCHAR
STARTCHAR 00DA
ENCODING 218
SWIDTH 480 0
DWIDTH 8 0
BBX 7 14 0 -1
BITMAP
08
10
00
00
82
82
82
82
82
82
82
82
00
78
ENDCHAR
STARTCHAR 00DB
ENCODING 219
SWIDTH 480 0
DWIDTH 8 0
BBX 7 14 0 -1
BITMAP
10
48
00
00
82
82
82
82
82
82
82
82
00
78
ENDCHAR
STARTCHAR 00DC
ENCODING 220
SWIDTH 480 0
DWIDTH 8 0
BBX 7 14 0 -1
BITMAP
48
00
00
00
82
82
82
82
82
82
82
82
00
78
ENDCHAR
STARTCHAR 00DD
ENCODING 221
SWIDTH 480 0
DWIDTH 8 0
BBX 7 14 0 -1
BITMAP
08
10
00
00
82
82
82
82
00
48
10
10
10
10
ENDCHAR
STARTCHAR 00DE
ENCODING 222
SWIDTH 480 0
DWIDTH 8 0
BBX 7 14 0 -2
BITMAP
80
80
80
FC
84
82
82
82
82
82
FC
80
80
80
ENDCHAR
STARTCHAR 00DF
ENCODING 223
SWIDTH 480 0
DWIDTH 8 0
BBX 7 13 0 -1
BITMAP
78
00
82
82
82
B8
86
82
82
82
82
80
B8
ENDCHAR
STARTCHAR 00E0
ENCODING 224
SWIDTH 480 0
DWIDTH 8 0
BBX 7 14 0 -1
BITMAP
10
08
00
00
18
06
06
7E
82
82
82
82
82
7E
ENDCHAR
STARTCHAR 00E1
ENCODING 225
SWIDTH 480 0
DWIDTH 8 0
BBX 7 14 0 -1
BITMAP
08
10
00
00
18
06
06
7E
82
82
82
82
82
7E
ENDCHAR
STARTCHAR 00E2
ENCODING 226
SWIDTH 480 0
DWIDTH 8 0
BBX 7 14 0 -1
BITMAP
10
48
00
00
18
06
02
7E
82
82
82
82
82
7E
ENDCHAR
STARTCHAR 00E3
ENCODING 227
SWIDTH 480 0
DWIDTH 8 0
BBX 7 14 0 -1
BITMAP
72
88
00
00
38
06
02
7E
82
82
82
82
82
7E
ENDCHAR
STARTCHAR 00E4
ENCODING 228
SWIDTH 480 0
DWIDTH 8 0
BBX 7 13 0 -1
BITMAP
12
00
00
1C
02
02
7E
82
82
82
82
82
7E
ENDCHAR
STARTCHAR 00E5
ENCODING 229
SWIDTH 480 0
DWIDTH 8 0
BBX 7 14 0 -1
BITMAP
38
42
40
38
38
06
06
7E
82
82
82
82
82
7E
ENDCHAR
STARTCHAR 00E6
ENCODING 230
SWIDTH 480 0
DWIDTH 8 0
BBX 8 10 0 -1
BITMAP
EE
11
11
7F
90
90
90
98
18
77
ENDCHAR
STARTCHAR 00E7
ENCODING 231
SWIDTH 540 0
DWIDTH 9 0
BBX 7 10 0 -3
BITMAP
7E
80
80
80
80
80
00
7E
08
70
ENDCHAR
STARTCHAR 00E8
ENCODING 232
SWIDTH 480 0
DWIDTH 8 0
BBX 7 14 0 -1
BITMAP
10
08
00
00
78
00
82
82
82
FE
80
80
80
78
ENDCHAR
STARTCHAR 00E9
ENCODING 233
SWIDTH 480 0
DWIDTH 8 0
BBX 7 14 0 -1
BITMAP
08
10
00
00
78
00
82
82
82
FE
80
80
80
78
ENDCHAR
STARTCHAR 00EA
ENCODING 234
SWIDTH 480 0
DWIDTH 8 0
BBX 7 14 0 -1
BITMAP
10
48
00
00
78
00
82
82
82
FE
80
80
80
78
ENDCHAR
STARTCHAR 00EB
ENCODING 235
SWIDTH 480 0
DWIDTH 8 0
BBX 7 13 0 -1
BITMAP
48
00
00
78
00
82
82
82
FE
80
80
80
78
ENDCHAR
STARTCHAR 00EC
ENCODING 236
SWIDTH 540 0
DWIDTH 9 0
BBX 4 13 2 -1
BITMAP
80
80
40
00
00
C0
40
40
40
40
40
40
F0
ENDCHAR
STARTCHAR 00ED
ENCODING 237
SWIDTH 540 0
DWIDTH 9 0
BBX 4 13 2 -1
BITMAP
40
00
80
00
00
C0
40
40
40
40
40
40
F0
ENDCHAR
STARTCHAR 00EE
ENCODING 238
SWIDTH 540 0
DWIDTH 9 0
BBX 4 13 2 -1
BITMAP
40
00
B0
00
00
C0
40
40
40
40
40
40
F0
ENDCHAR
STARTCHAR 00EF
ENCODING 239
SWIDTH 540 0
DWIDTH 9 0
BBX 4 11 2 -1
BITMAP
B0
00
00
C0
40
40
40
40
40
40
F0
ENDCHAR
STARTCHAR 00F0
ENCODING 240
SWIDTH 480 0
DWIDTH 8 0
BBX 7 13 0 -1
BITMAP
48
20
10
48
04
02
7E
82
82
82
82
82
7C
ENDCHAR
STARTCHAR 00F1
ENCODING 241
SWIDTH 480 0
DWIDTH 8 0
BBX 7 13 0 -1
BITMAP
72
00
88
00
00
F8
82
82
82
82
82
82
82
ENDCHAR
STARTCHAR 00F2
ENCODING 242
SWIDTH 480 0
DWIDTH 8 0
BBX 7 13 0 -1
BITMAP
40
20
10
00
00
78
82
82
82
82
82
00
78
ENDCHAR
STARTCHAR 00F3
ENCODING 243
SWIDTH 480 0
DWIDTH 8 0
BBX 7 13 0 -1
BITMAP
08
00
10
00
00
78
82
82
82
82
82
00
78
ENDCHAR
STARTCHAR 00F4
ENCODING 244
SWIDTH 480 0
DWIDTH 8 0
BBX 7 13 0 -1
BITMAP
10
00
48
00
00
78
82
82
82
82
82
00
78
ENDCHAR
STARTCHAR 00F5
ENCODING 245
SWIDTH 480 0
DWIDTH 8 0
BBX 7 13 0 -1
BITMAP
72
00
88
00
00
78
82
82
82
82
82
00
78
ENDCHAR
STARTCHAR 00F6
ENCODING 246
SWIDTH 480 0
DWIDTH 8 0
BBX 7 11 0 -1
BITMAP
48
00
00
78
82
82
82
82
82
00
78
ENDCHAR
STARTCHAR 00F7
ENCODING 247
SWIDTH 960 0
DWIDTH 16 0
BBX 13 13 1 -1
BITMAP
0200
0200
0F00
0200
0000
0000
FFF8
0000
0000
0200
0F00
0200
0200
ENDCHAR
STARTCHAR 00F8
ENCODING 248
SWIDTH 480 0
DWIDTH 8 0
BBX 8 8 0 -1
BITMAP
79
86
86
8E
92
E2
E0
F8
ENDCHAR
STARTCHAR 00F9
ENCODING 249
SWIDTH 480 0
DWIDTH 8 0
BBX 7 13 0 -1
BITMAP
40
20
10
00
00
82
82
82
82
82
82
82
7E
ENDCHAR
STARTCHAR 00FA
ENCODING 250
SWIDTH 480 0
DWIDTH 8 0
BBX 7 13 0 -1
BITMAP
08
00
10
00
00
82
82
82
82
82
82
82
7E
ENDCHAR
STARTCHAR 00FB
ENCODING 251
SWIDTH 480 0
DWIDTH 8 0
BBX 7 13 0 -1
BITMAP
10
00
48
00
00
82
82
82
82
82
82
82
7E
ENDCHAR
STARTCHAR 00FC
ENCODING 252
SWIDTH 480 0
DWIDTH 8 0
BBX 7 11 0 -1
BITMAP
48
00
00
82
82
82
82
82
82
82
7E
ENDCHAR
STARTCHAR 00FD
ENCODING 253
SWIDTH 480 0
DWIDTH 8 0
BBX 7 14 0 -2
BITMAP
08
00
10
00
00
82
82
82
82
82
7E
06
06
18
ENDCHAR
STARTCHAR 00FE
ENCODING 254
SWIDTH 480 0
DWIDTH 8 0
BBX 7 12 0 -2
BITMAP
80
80
80
FC
82
82
82
82
FC
80
80
80
ENDCHAR
STARTCHAR 00FF
ENCODING 255
SWIDTH 480 0
DWIDTH 8 0
BBX 7 12 0 -2
BITMAP
48
00
00
82
82
82
82
82
7E
02
02
38
ENDCHAR
STARTCHAR 0391
ENCODING 913
SWIDTH 1020 0
DWIDTH 17 0
BBX 16 15 0 -1
BITMAP
0F00
0100
0100
02C0
0240
0240
0820
0820
0820
0FE0
1010
1010
1010
1010
F83F
ENDCHAR
STARTCHAR 0392
ENCODING 914
SWIDTH 1020 0
DWIDTH 17 0
BBX 12 15 2 -1
BITMAP
FFC0
1040
1020
1020
1020
1020
1FC0
1040
1020
1010
1010
1010
1020
1040
FFC0
ENDCHAR
STARTCHAR 0393
ENCODING 915
SWIDTH 1020 0
DWIDTH 17 0
BBX 11 15 3 -1
BITMAP
FFE0
1020
1020
1020
1000
1000
1000
1000
1000
1000
1000
1000
1000
1000
FE00
ENDCHAR
STARTCHAR 0394
ENCODING 916
SWIDTH 1020 0
DWIDTH 17 0
BBX 12 15 2 -1
BITMAP
0200
0200
0200
0900
0900
0900
1080
1080
1080
4020
4020
4020
8010
8010
FFF0
ENDCHAR
STARTCHAR 0395
ENCODING 917
SWIDTH 1020 0
DWIDTH 17 0
BBX 11 15 3 -1
BITMAP
FFE0
1020
1020
1000
1000
1100
1F00
1100
1100
1000
1000
1020
1020
1020
FFE0
ENDCHAR
STARTCHAR 0396
ENCODING 918
SWIDTH 960 0
DWIDTH 16 0
BBX 9 15 3 -1
BITMAP
FF80
8080
8080
8100
0000
0200
0800
0000
1000
4000
8080
8080
8080
8080
FF80
ENDCHAR
STARTCHAR 0397
ENCODING 919
SWIDTH 960 0
DWIDTH 16 0
BBX 14 15 1 -1
BITMAP
FCFC
1020
1020
1020
1020
1020
1FE0
1020
1020
1020
1020
1020
1020
1020
FCFC
ENDCHAR
STARTCHAR 0398
ENCODING 920
SWIDTH 1020 0
DWIDTH 17 0
BBX 14 15 2 -1
BITMAP
1FE0
0000
4010
8004
8004
9024
9FE4
9024
9024
8004
8004
8004
4010
0000
1FE0
ENDCHAR
STARTCHAR 0399
ENCODING 921
SWIDTH 1020 0
DWIDTH 17 0
BBX 7 15 4 -1
BITMAP
FE
10
10
10
10
10
10
10
10
10
10
10
10
10
FE
ENDCHAR
STARTCHAR 039A
ENCODING 922
SWIDTH 1020 0
DWIDTH 17 0
BBX 15 15 1 -1
BITMAP
FC7E
1020
1020
1040
1080
1100
1200
1200
1E00
1100
1080
1040
1020
1020
FC7E
ENDCHAR
STARTCHAR 039B
ENCODING 923
SWIDTH 1020 0
DWIDTH 17 0
BBX 16 15 0 -1
BITMAP
0F00
0100
0100
02C0
0240
0240
0C20
0820
0820
0820
1010
1010
1010
1010
F83F
ENDCHAR
STARTCHAR 039C
ENCODING 924
SWIDTH 960 0
DWIDTH 16 0
BBX 15 15 0 -1
BITMAP
FC3E
1C30
1C30
1C30
1C30
1250
1250
1250
1250
1190
1110
1110
1110
1010
FC3E
ENDCHAR
STARTCHAR 039D
ENCODING 925
SWIDTH 960 0
DWIDTH 16 0
BBX 14 15 1 -1
BITMAP
FCFC
1C20
1C20
1220
1220
1220
1120
1120
1120
10E0
10E0
10E0
1020
1020
FC20
ENDCHAR
STARTCHAR 039E
ENCODING 926
SWIDTH 1020 0
DWIDTH 17 0
BBX 15 15 0 -1
BITMAP
0FFE
0004
1004
0000
0000
0810
0FE0
0020
1020
0000
0000
4010
8020
8020
FFE0
ENDCHAR
STARTCHAR 039F
ENCODING 927
SWIDTH 1020 0
DWIDTH 17 0
BBX 12 15 2 -1
BITMAP
3F80
0000
4020
8010
8010
8010
8010
8010
8010
8010
8010
8010
4020
0000
3F80
ENDCHAR
STARTCHAR 03A0
ENCODING 928
SWIDTH 960 0
DWIDTH 16 0
BBX 14 15 1 -1
BITMAP
7FF8
1020
1020
1020
1020
1020
1020
1020
1020
1020
1020
1020
1020
1020
FCFC
ENDCHAR
STARTCHAR 03A1
ENCODING 929
SWIDTH 960 0
DWIDTH 16 0
BBX 12 15 1 -1
BITMAP
FFC0
1040
1020
1010
1010
1010
1020
1040
1FC0
1000
1000
1000
1000
1000
FC00
ENDCHAR
STARTCHAR 03A3
ENCODING 931
SWIDTH 960 0
DWIDTH 16 0
BBX 9 18 3 -2
BITMAP
0080
0080
FF80
4080
4080
3080
1000
0800
0600
0C00
1000
1000
6080
8080
8080
8080
FF80
0080
ENDCHAR
STARTCHAR 03A4
ENCODING 932
SWIDTH 1020 0
DWIDTH 17 0
BBX 12 15 2 -1
BITMAP
FFF0
8210
8210
8210
0200
0200
0200
0200
0200
0200
0200
0200
0200
0200
3F80
ENDCHAR
STARTCHAR 03A5
ENCODING 933
SWIDTH 960 0
DWIDTH 16 0
BBX 15 15 0 -1
BITMAP
3870
0000
4284
8102
0100
0100
0100
0100
0100
0100
0100
0100
0100
0100
0FE0
ENDCHAR
STARTCHAR 03A6
ENCODING 934
SWIDTH 1020 0
DWIDTH 17 0
BBX 12 15 2 -1
BITMAP
3F80
0200
0200
3F80
4240
4220
8210
8210
8210
4220
0240
3F80
0200
0200
3F80
ENDCHAR
STARTCHAR 03A7
ENCODING 935
SWIDTH 1020 0
DWIDTH 17 0
BBX 13 15 1 -1
BITMAP
F9F8
1040
1040
1040
1040
0980
0200
0200
0200
0D00
1040
1040
1040
1040
F9F8
ENDCHAR
STARTCHAR 03A8
ENCODING 936
SWIDTH 960 0
DWIDTH 16 0
BBX 15 15 0 -1
BITMAP
0FE0
0100
0100
4104
0100
9112
1110
1110
1110
0FE0
0100
0100
0100
0100
0FE0
ENDCHAR
STARTCHAR 03A9
ENCODING 937
SWIDTH 1020 0
DWIDTH 17 0
BBX 11 15 3 -1
BITMAP
1F00
0000
4080
8020
8020
8020
8020
8020
8020
4080
1100
1100
9120
9120
F1E0
ENDCHAR
STARTCHAR 03B1
ENCODING 945
SWIDTH 1020 0
DWIDTH 17 0
BBX 12 10 2 -1
BITMAP
0E10
7120
4000
4080
8080
8100
8100
8700
0000
78E0
ENDCHAR
STARTCHAR 03B2
ENCODING 946
SWIDTH 960 0
DWIDTH 16 0
BBX 9 16 3 -2
BITMAP
0300
0000
0880
1080
1280
1280
4100
4080
4080
4080
9080
8100
8F00
8000
8000
8000
ENDCHAR
STARTCHAR 03B3
ENCODING 947
SWIDTH 1020 0
DWIDTH 17 0
BBX 11 11 3 -2
BITMAP
E1C0
1220
0800
0800
0800
1000
1000
1000
2000
2000
2000
ENDCHAR
STARTCHAR 03B4
ENCODING 948
SWIDTH 1020 0
DWIDTH 17 0
BBX 10 15 3 -1
BITMAP
0E00
0000
11C0
1000
1000
0800
1200
0000
4100
8100
8100
8100
8200
0000
7800
ENDCHAR
STARTCHAR 03B5
ENCODING 949
SWIDTH 960 0
DWIDTH 16 0
BBX 9 12 4 -1
BITMAP
1F00
0000
4080
4000
4000
1E00
7000
8000
8000
8100
0000
7E00
ENDCHAR
STARTCHAR 03B6
ENCODING 950
SWIDTH 1020 0
DWIDTH 17 0
BBX 10 16 3 -2
BITMAP
1000
0000
41C0
4E00
0000
1000
4000
8000
8000
8000
7000
0000
0E00
0000
0100
1E00
ENDCHAR
STARTCHAR 03B7
ENCODING 951
SWIDTH 960 0
DWIDTH 16 0
BBX 9 12 3 -1
BITMAP
C300
2000
1C80
1080
1080
6080
4100
4100
8100
8200
8200
0200
ENDCHAR
STARTCHAR 03B8
ENCODING 952
SWIDTH 960 0
DWIDTH 16 0
BBX 8 16 4 -2
BITMAP
0E
11
01
41
41
41
81
FF
81
81
82
82
82
80
88
70
ENDCHAR
STARTCHAR 03B9
ENCODING 953
SWIDTH 960 0
DWIDTH 16 0
BBX 9 12 3 -1
BITMAP
1000
1000
1000
1000
0000
4000
4080
8080
8080
8100
0000
7E00
ENDCHAR
STARTCHAR 03BA
ENCODING 954
SWIDTH 1020 0
DWIDTH 17 0
BBX 11 12 3 -1
BITMAP
40E0
2000
1100
1200
1000
1800
6800
4600
4200
8280
8200
8100
ENDCHAR
STARTCHAR 03BB
ENCODING 955
SWIDTH 1020 0
DWIDTH 17 0
BBX 12 15 2 -1
BITMAP
1E00
0200
0100
0100
0100
0100
0F00
1100
1100
6100
4100
4080
8080
8080
8070
ENDCHAR
STARTCHAR 03BC
ENCODING 956
SWIDTH 1020 0
DWIDTH 17 0
BBX 11 13 3 -2
BITMAP
0020
0020
1020
1080
1080
1080
4100
4700
4900
7900
0000
80E0
8000
ENDCHAR
STARTCHAR 03BD
ENCODING 957
SWIDTH 1020 0
DWIDTH 17 0
BBX 11 12 3 -1
BITMAP
0020
E020
E020
1040
1040
1040
1100
2100
2100
2200
2000
3C00
ENDCHAR
STARTCHAR 03BE
ENCODING 958
SWIDTH 1020 0
DWIDTH 17 0
BBX 10 16 3 -2
BITMAP
0FC0
1000
1000
1FC0
4000
4000
7FC0
8000
8000
8000
7E00
0000
0100
0100
0100
1E00
ENDCHAR
STARTCHAR 03BF
ENCODING 959
SWIDTH 960 0
DWIDTH 16 0
BBX 9 12 3 -1
BITMAP
0F00
0000
7080
4080
8080
8080
8080
8100
8100
8700
0000
7800
ENDCHAR
STARTCHAR 03C0
ENCODING 960
SWIDTH 1020 0
DWIDTH 17 0
BBX 12 12 2 -1
BITMAP
0010
0000
7FE0
0880
0880
0880
1100
1110
1110
6210
0200
81E0
ENDCHAR
STARTCHAR 03C1
ENCODING 961
SWIDTH 1020 0
DWIDTH 17 0
BBX 11 13 3 -2
BITMAP
0780
0000
1820
1020
4020
4020
4080
C180
A000
9E00
8000
8000
8000
ENDCHAR
STARTCHAR 03C3
ENCODING 963
SWIDTH 1020 0
DWIDTH 17 0
BBX 14 13 2 -1
BITMAP
0004
0FF8
1080
7080
4080
8080
8080
8080
8100
8100
8700
0000
7800
ENDCHAR
STARTCHAR 03C4
ENCODING 964
SWIDTH 1020 0
DWIDTH 17 0
BBX 11 12 3 -1
BITMAP
0020
0000
FFC0
0800
0800
0800
1000
1000
1020
1040
1000
0F00
ENDCHAR
STARTCHAR 03C5
ENCODING 965
SWIDTH 1020 0
DWIDTH 17 0
BBX 11 12 3 -1
BITMAP
1080
1040
1020
1020
1020
40C0
4080
4080
8100
8200
0400
7800
ENDCHAR
STARTCHAR 03C6
ENCODING 966
SWIDTH 960 0
DWIDTH 16 0
BBX 9 16 3 -2
BITMAP
0200
0200
0200
1F00
6880
8880
8880
8880
8880
8880
8900
0A00
7E00
1000
1000
1000
ENDCHAR
STARTCHAR 03C7
ENCODING 967
SWIDTH 960 0
DWIDTH 16 0
BBX 12 13 3 -2
BITMAP
1C20
0000
42C0
0300
0200
0200
0200
0E00
1200
1210
2200
4220
81C0
ENDCHAR
STARTCHAR 03C8
ENCODING 968
SWIDTH 960 0
DWIDTH 16 0
BBX 14 16 1 -2
BITMAP
0040
0040
0040
0100
0100
E104
1110
1210
1210
2220
2220
2220
1FC0
0800
0800
0800
ENDCHAR
STARTCHAR 03C9
ENCODING 969
SWIDTH 1020 0
DWIDTH 17 0
BBX 11 9 3 -1
BITMAP
4020
8020
8020
8820
8820
8820
8880
0000
7700
ENDCHAR
STARTCHAR 0401
ENCODING 1025
SWIDTH 960 0
DWIDTH 16 0
BBX 14 16 1 -1
BITMAP
3870
0000
0000
FFF0
0830
0830
0808
0880
0880
0F80
0880
0800
0804
0808
0808
FFF8
ENDCHAR
STARTCHAR 0410
ENCODING 1040
SWIDTH 1020 0
DWIDTH 17 0
BBX 16 15 0 -1
BITMAP
0F00
0100
0100
02C0
0240
0240
0820
0820
0820
0FE0
1010
1010
1010
1010
F83F
ENDCHAR
STARTCHAR 0411
ENCODING 1041
SWIDTH 1020 0
DWIDTH 17 0
BBX 12 15 2 -1
BITMAP
FFC0
1040
1020
1010
1000
1000
1FC0
1040
1020
1010
1010
1010
1020
1040
FFC0
ENDCHAR
STARTCHAR 0412
ENCODING 1042
SWIDTH 1020 0
DWIDTH 17 0
BBX 12 15 2 -1
BITMAP
FFC0
1040
1020
1020
1020
1020
1FC0
1040
1020
1010
1010
1010
1020
1040
FFC0
ENDCHAR
STARTCHAR 0413
ENCODING 1043
SWIDTH 1020 0
DWIDTH 17 0
BBX 11 15 3 -1
BITMAP
FFE0
1020
1020
1020
1000
1000
1000
1000
1000
1000
1000
1000
1000
1000
FC00
ENDCHAR
STARTCHAR 0414
ENCODING 1044
SWIDTH 1020 0
DWIDTH 17 0
BBX 14 16 2 -2
BITMAP
7FF0
0820
0820
0820
0820
0820
0820
0820
0820
1020
1020
1020
7FE0
4020
4010
800C
ENDCHAR
STARTCHAR 0415
ENCODING 1045
SWIDTH 1020 0
DWIDTH 17 0
BBX 12 15 2 -1
BITMAP
FFC0
1040
1040
1020
1000
1100
1F00
1100
1100
1000
1000
1010
1020
1020
FFE0
ENDCHAR
STARTCHAR 0416
ENCODING 1046
SWIDTH 960 0
DWIDTH 16 0
BBX 15 15 0 -1
BITMAP
0FE0
0100
4104
9112
1110
1110
0FE0
0920
0920
1110
1110
1110
610C
4104
CFE6
ENDCHAR
STARTCHAR 0417
ENCODING 1047
SWIDTH 1020 0
DWIDTH 17 0
BBX 11 15 3 -1
BITMAP
BF00
8000
C080
8020
0000
0080
0700
0100
0080
0060
0020
8020
C0C0
8100
BF00
ENDCHAR
STARTCHAR 0418
ENCODING 1048
SWIDTH 960 0
DWIDTH 16 0
BBX 14 15 1 -1
BITMAP
FCFC
10E0
10E0
1120
1120
1120
1220
1220
1220
1C20
1C20
1C20
1020
1020
F0FC
ENDCHAR
STARTCHAR 0419
ENCODING 1049
SWIDTH 1020 0
DWIDTH 17 0
BBX 14 16 2 -1
BITMAP
0840
0700
0000
F03C
1060
1060
1060
11A0
1120
1120
1220
1220
1220
1C20
1820
F87C
ENDCHAR
STARTCHAR 041A
ENCODING 1050
SWIDTH 960 0
DWIDTH 16 0
BBX 14 15 1 -1
BITMAP
FC38
1000
1044
1040
1040
1100
1200
1200
1E00
1100
1080
1040
1020
1020
FC7C
ENDCHAR
STARTCHAR 041B
ENCODING 1051
SWIDTH 1020 0
DWIDTH 17 0
BBX 14 15 2 -1
BITMAP
3FFC
0220
0220
0220
0220
0220
0220
0220
0220
8220
8220
8220
8C20
1020
70FC
ENDCHAR
STARTCHAR 041C
ENCODING 1052
SWIDTH 1020 0
DWIDTH 17 0
BBX 16 15 0 -1
BITMAP
783C
0820
0820
0820
0820
1650
1250
1250
1250
1110
1110
1110
1110
1010
F83F
ENDCHAR
STARTCHAR 041D
ENCODING 1053
SWIDTH 960 0
DWIDTH 16 0
BBX 14 15 1 -1
BITMAP
FCFC
1020
1020
1020
1020
1020
1FE0
1020
1020
1020
1020
1020
1020
1020
FCFC
ENDCHAR
STARTCHAR 041E
ENCODING 1054
SWIDTH 1020 0
DWIDTH 17 0
BBX 12 15 2 -1
BITMAP
3F80
0000
4020
8010
8010
8010
8010
8010
8010
8010
8010
8010
4020
0000
3F80
ENDCHAR
STARTCHAR 041F
ENCODING 1055
SWIDTH 960 0
DWIDTH 16 0
BBX 14 15 1 -1
BITMAP
7FF8
1020
1020
1020
1020
1020
1020
1020
1020
1020
1020
1020
1020
1020
FCFC
ENDCHAR
STARTCHAR 0420
ENCODING 1056
SWIDTH 960 0
DWIDTH 16 0
BBX 12 15 1 -1
BITMAP
FFC0
1040
1020
1010
1010
1010
1020
1040
1FC0
1000
1000
1000
1000
1000
FC00
ENDCHAR
STARTCHAR 0421
ENCODING 1057
SWIDTH 1020 0
DWIDTH 17 0
BBX 11 15 3 -1
BITMAP
3F20
0020
40E0
8020
8000
8000
8000
8000
8000
8000
8020
8020
40E0
0000
3F00
ENDCHAR
STARTCHAR 0422
ENCODING 1058
SWIDTH 960 0
DWIDTH 16 0
BBX 15 15 0 -1
BITMAP
7FFC
4104
4104
4104
4104
8102
0100
0100
0100
0100
0100
0100
0100
0100
0FE0
ENDCHAR
STARTCHAR 0423
ENCODING 1059
SWIDTH 1020 0
DWIDTH 17 0
BBX 14 16 2 -2
BITMAP
F8FC
3020
3020
3020
08C0
0880
0880
0900
0900
0900
0200
0200
8200
8400
8800
7000
ENDCHAR
STARTCHAR 0424
ENCODING 1060
SWIDTH 1020 0
DWIDTH 17 0
BBX 12 15 2 -1
BITMAP
3F80
0200
0200
3F80
4240
4220
8210
8210
8210
4220
0240
3F80
0200
0200
3F80
ENDCHAR
STARTCHAR 0425
ENCODING 1061
SWIDTH 1020 0
DWIDTH 17 0
BBX 13 15 1 -1
BITMAP
F9F8
1040
1040
1040
1040
0980
0200
0200
0200
0D00
1040
1040
1040
1040
F9F8
ENDCHAR
STARTCHAR 0426
ENCODING 1062
SWIDTH 960 0
DWIDTH 16 0
BBX 14 16 1 -2
BITMAP
FDF8
1040
1040
1040
1040
1040
1040
1040
1040
1040
1040
1040
1040
1040
FFF8
0004
ENDCHAR
STARTCHAR 0427
ENCODING 1063
SWIDTH 960 0
DWIDTH 16 0
BBX 14 15 1 -1
BITMAP
FCFC
1020
1020
1020
1020
1020
1020
1020
10E0
0F20
0020
0020
0020
0020
00FC
ENDCHAR
STARTCHAR 0428
ENCODING 1064
SWIDTH 1020 0
DWIDTH 17 0
BBX 15 15 0 -1
BITMAP
F3DE
1110
1110
1110
1110
1110
1110
1110
1110
1110
1110
1110
1110
1110
FFFE
ENDCHAR
STARTCHAR 0429
ENCODING 1065
SWIDTH 1020 0
DWIDTH 17 0
BBX 17 16 0 -2
BITMAP
F3DF00
111000
111000
111000
111000
111000
111000
111000
111000
111000
111000
111000
111000
111000
FFFF00
000080
ENDCHAR
STARTCHAR 042A
ENCODING 1066
SWIDTH 1020 0
DWIDTH 17 0
BBX 14 15 2 -1
BITMAP
FF00
8800
8800
8800
0800
0800
0FE0
0820
0810
080C
0804
0804
0818
0820
7FE0
ENDCHAR
STARTCHAR 042B
ENCODING 1067
SWIDTH 960 0
DWIDTH 16 0
BBX 15 15 0 -1
BITMAP
FE7E
1010
1010
1010
1010
1010
1F90
1090
1050
1050
1050
1050
1050
1050
FFBE
ENDCHAR
STARTCHAR 042C
ENCODING 1068
SWIDTH 960 0
DWIDTH 16 0
BBX 12 15 1 -1
BITMAP
FE00
1000
1000
1000
1000
1000
1FC0
1040
1020
1010
1010
1010
1020
1040
FFC0
ENDCHAR
STARTCHAR 042D
ENCODING 1069
SWIDTH 1020 0
DWIDTH 17 0
BBX 11 15 3 -1
BITMAP
9F80
8000
E000
8020
0020
0020
0E20
0020
11E0
0020
0020
8020
E000
8000
9F80
ENDCHAR
STARTCHAR 042E
ENCODING 1070
SWIDTH 960 0
DWIDTH 16 0
BBX 15 15 0 -1
BITMAP
FC38
1000
1044
1102
1102
1102
1F02
1102
1102
1102
1102
1102
10C4
1040
FC38
ENDCHAR
STARTCHAR 042F
ENCODING 1071
SWIDTH 960 0
DWIDTH 16 0
BBX 14 15 1 -1
BITMAP
0FFC
1020
1020
2020
2020
2020
1020
0020
0FE0
0220
0220
0C20
1020
2020
E0FC
ENDCHAR
STARTCHAR 0430
ENCODING 1072
SWIDTH 1020 0
DWIDTH 17 0
BBX 10 12 4 -1
BITMAP
7E00
0000
8100
0100
0100
3F00
C100
8100
8100
8700
0900
79C0
ENDCHAR
STARTCHAR 0431
ENCODING 1073
SWIDTH 960 0
DWIDTH 16 0
BBX 8 16 4 -1
BITMAP
02
38
00
40
80
80
B8
C2
80
81
81
81
81
42
00
38
ENDCHAR
STARTCHAR 0432
ENCODING 1074
SWIDTH 1020 0
DWIDTH 17 0
BBX 10 12 3 -1
BITMAP
FE00
2200
2100
2100
2100
3E00
2100
2080
2040
2180
2200
FE00
ENDCHAR
STARTCHAR 0433
ENCODING 1075
SWIDTH 1020 0
DWIDTH 17 0
BBX 10 12 4 -1
BITMAP
FE00
2200
2100
20C0
2000
2000
2000
2000
2000
2000
2000
FC00
ENDCHAR
STARTCHAR 0434
ENCODING 1076
SWIDTH 1020 0
DWIDTH 17 0
BBX 12 13 2 -2
BITMAP
7FE0
0880
0880
0880
0880
0880
0880
1080
1080
1FE0
2020
4010
8010
ENDCHAR
STARTCHAR 0435
ENCODING 1077
SWIDTH 960 0
DWIDTH 16 0
BBX 9 12 3 -1
BITMAP
1E00
0000
4100
8080
8080
FF80
8000
8000
8000
4080
0000
1F00
ENDCHAR
STARTCHAR 0436
ENCODING 1078
SWIDTH 1020 0
DWIDTH 17 0
BBX 12 12 2 -1
BITMAP
8F10
8210
8210
72E0
3280
3F80
4260
4260
4260
4260
4260
CF70
ENDCHAR
STARTCHAR 0437
ENCODING 1079
SWIDTH 960 0
DWIDTH 16 0
BBX 9 12 3 -1
BITMAP
7F00
0000
8080
0080
0080
0F00
0080
0080
8080
C080
0100
3F00
ENDCHAR
STARTCHAR 0438
ENCODING 1080
SWIDTH 1020 0
DWIDTH 17 0
BBX 11 12 3 -1
BITMAP
F1E0
21C0
21C0
2240
2240
2240
2C40
2840
2840
3040
3040
F1E0
ENDCHAR
STARTCHAR 0439
ENCODING 1081
SWIDTH 1020 0
DWIDTH 17 0
BBX 11 16 3 -1
BITMAP
1100
0E00
0000
0000
F1E0
21C0
21C0
2240
2240
2240
2C40
2840
2840
3040
3040
F1E0
ENDCHAR
STARTCHAR 043A
ENCODING 1082
SWIDTH 1020 0
DWIDTH 17 0
BBX 11 12 3 -1
BITMAP
F1C0
2000
2220
2200
2200
2800
3200
2000
2100
2040
2040
F1E0
ENDCHAR
STARTCHAR 043B
ENCODING 1083
SWIDTH 1020 0
DWIDTH 17 0
BBX 11 12 3 -1
BITMAP
7FE0
0880
0880
0880
0880
0880
0880
0880
8880
8880
8880
71E0
ENDCHAR
STARTCHAR 043C
ENCODING 1084
SWIDTH 960 0
DWIDTH 16 0
BBX 12 12 1 -1
BITMAP
F0F0
30E0
30E0
2920
2920
2920
2920
2220
2220
2220
2220
F0F0
ENDCHAR
STARTCHAR 043D
ENCODING 1085
SWIDTH 1020 0
DWIDTH 17 0
BBX 11 12 3 -1
BITMAP
F1E0
2040
2040
2040
2040
3FC0
2040
2040
2040
2040
2040
F1E0
ENDCHAR
STARTCHAR 043E
ENCODING 1086
SWIDTH 1020 0
DWIDTH 17 0
BBX 11 12 3 -1
BITMAP
3F00
0000
4080
8020
8020
8020
8020
8020
8020
4080
0000
3F00
ENDCHAR
STARTCHAR 043F
ENCODING 1087
SWIDTH 1020 0
DWIDTH 17 0
BBX 11 12 3 -1
BITMAP
FFE0
2040
2040
2040
2040
2040
2040
2040
2040
2040
2040
F1E0
ENDCHAR
STARTCHAR 0440
ENCODING 1088
SWIDTH 1020 0
DWIDTH 17 0
BBX 11 13 3 -2
BITMAP
EF00
2000
3040
2020
2020
2020
2020
3040
3000
2F00
2000
2000
F000
ENDCHAR
STARTCHAR 0441
ENCODING 1089
SWIDTH 960 0
DWIDTH 16 0
BBX 9 12 3 -1
BITMAP
3F00
0000
4080
8080
8080
8000
8000
8000
8000
4080
0000
3F00
ENDCHAR
STARTCHAR 0442
ENCODING 1090
SWIDTH 1020 0
DWIDTH 17 0
BBX 12 12 2 -1
BITMAP
7FE0
4220
4220
8210
0200
0200
0200
0200
0200
0200
0200
0F00
ENDCHAR
STARTCHAR 0443
ENCODING 1091
SWIDTH 1020 0
DWIDTH 17 0
BBX 10 13 4 -2
BITMAP
F3C0
4100
4100
4100
3200
1200
1200
0400
0800
8800
8800
8800
7000
ENDCHAR
STARTCHAR 0444
ENCODING 1092
SWIDTH 1020 0
DWIDTH 17 0
BBX 12 15 2 -1
BITMAP
0E00
0200
0200
72E0
0200
8F10
8210
8210
8210
8F10
1300
72E0
0200
0200
0F00
ENDCHAR
STARTCHAR 0445
ENCODING 1093
SWIDTH 960 0
DWIDTH 16 0
BBX 9 12 3 -1
BITMAP
F380
2200
2200
1400
0400
0800
0800
0800
1000
2200
2200
F380
ENDCHAR
STARTCHAR 0446
ENCODING 1094
SWIDTH 1020 0
DWIDTH 17 0
BBX 11 13 3 -2
BITMAP
F3C0
2100
2100
2100
2100
2100
2100
2100
2100
2100
2100
FFC0
0020
ENDCHAR
STARTCHAR 0447
ENCODING 1095
SWIDTH 1020 0
DWIDTH 17 0
BBX 10 12 3 -1
BITMAP
F3C0
2100
2100
2100
2100
2100
2300
0500
1D00
0100
0100
03C0
ENDCHAR
STARTCHAR 0448
ENCODING 1096
SWIDTH 1020 0
DWIDTH 17 0
BBX 13 12 1 -1
BITMAP
E7B8
2220
2220
2220
2220
2220
2220
2220
2220
2220
2220
FFF8
ENDCHAR
STARTCHAR 0449
ENCODING 1097
SWIDTH 960 0
DWIDTH 16 0
BBX 14 13 1 -2
BITMAP
E7B0
2220
2220
2220
2220
2220
2220
2220
2220
2220
2220
FFF0
000C
ENDCHAR
STARTCHAR 044A
ENCODING 1098
SWIDTH 1020 0
DWIDTH 17 0
BBX 11 12 3 -1
BITMAP
7E00
8800
8800
8800
8800
0FC0
0820
0820
0820
0820
0840
7FC0
ENDCHAR
STARTCHAR 044B
ENCODING 1099
SWIDTH 960 0
DWIDTH 16 0
BBX 12 12 1 -1
BITMAP
F0F0
2020
2020
2020
2020
3E20
2120
2120
2120
2120
2320
FEF0
ENDCHAR
STARTCHAR 044C
ENCODING 1100
SWIDTH 960 0
DWIDTH 16 0
BBX 8 12 4 -1
BITMAP
F0
20
20
20
20
3E
21
21
21
21
22
FE
ENDCHAR
STARTCHAR 044D
ENCODING 1101
SWIDTH 960 0
DWIDTH 16 0
BBX 9 12 3 -1
BITMAP
7E00
0000
8100
0080
0080
3880
4780
0080
0080
8100
8000
7E00
ENDCHAR
STARTCHAR 044E
ENCODING 1102
SWIDTH 1020 0
DWIDTH 17 0
BBX 11 12 3 -1
BITMAP
F3C0
2820
2820
2820
2820
3820
2820
2820
2820
2820
2820
F7C0
ENDCHAR
STARTCHAR 044F
ENCODING 1103
SWIDTH 1020 0
DWIDTH 17 0
BBX 9 12 3 -1
BITMAP
7F80
8100
8100
8100
8100
7F00
0900
0900
1100
1100
1100
E780
ENDCHAR
STARTCHAR 0451
ENCODING 1105
SWIDTH 960 0
DWIDTH 16 0
BBX 9 16 3 -1
BITMAP
C180
0000
0000
0000
1E00
0000
4100
8080
8080
FF80
8000
8000
8000
4080
0000
1F00
ENDCHAR
STARTCHAR 2010
ENCODING 8208
SWIDTH 1020 0
DWIDTH 17 0
BBX 4 1 6 5
BITMAP
F0
ENDCHAR
STARTCHAR 2015
ENCODING 8213
SWIDTH 1020 0
DWIDTH 17 0
BBX 17 1 0 5
BITMAP
FFFF80
ENDCHAR
STARTCHAR 2016
ENCODING 8214
SWIDTH 900 0
DWIDTH 15 0
BBX 0 0 0 0
BITMAP
ENDCHAR
STARTCHAR 2018
ENCODING 8216
SWIDTH 1020 0
DWIDTH 17 0
BBX 4 4 10 10
BITMAP
70
E0
E0
E0
ENDCHAR
STARTCHAR 2019
ENCODING 8217
SWIDTH 960 0
DWIDTH 16 0
BBX 4 4 1 11
BITMAP
70
70
70
E0
ENDCHAR
STARTCHAR 201C
ENCODING 8220
SWIDTH 1020 0
DWIDTH 17 0
BBX 8 4 6 10
BITMAP
77
EE
EE
EE
ENDCHAR
STARTCHAR 201D
ENCODING 8221
SWIDTH 960 0
DWIDTH 16 0
BBX 8 4 1 11
BITMAP
77
77
77
EE
ENDCHAR
STARTCHAR 2020
ENCODING 8224
SWIDTH 1020 0
DWIDTH 17 0
BBX 7 16 4 -2
BITMAP
10
10
FE
10
10
10
78
78
78
78
10
10
10
10
10
10
ENDCHAR
STARTCHAR 2021
ENCODING 8225
SWIDTH 1020 0
DWIDTH 17 0
BBX 7 16 4 -2
BITMAP
10
10
FE
10
10
78
10
10
10
78
10
10
FE
10
10
10
ENDCHAR
STARTCHAR 2025
ENCODING 8229
SWIDTH 1020 0
DWIDTH 17 0
BBX 10 3 3 4
BITMAP
E1C0
E1C0
E1C0
ENDCHAR
STARTCHAR 2026
ENCODING 8230
SWIDTH 960 0
DWIDTH 16 0
BBX 13 3 1 4
BITMAP
E738
E738
E738
ENDCHAR
STARTCHAR 2030
ENCODING 8240
SWIDTH 960 0
DWIDTH 16 0
BBX 15 14 0 -1
BITMAP
7080
8880
8900
8900
8900
0000
7200
039C
0200
0E22
0E22
1222
1222
119C
ENDCHAR
STARTCHAR 2032
ENCODING 8242
SWIDTH 1020 0
DWIDTH 17 0
BBX 4 3 2 10
BITMAP
30
40
80
ENDCHAR
STARTCHAR 2033
ENCODING 8243
SWIDTH 1020 0
DWIDTH 17 0
BBX 8 3 2 10
BITMAP
11
42
88
ENDCHAR
STARTCHAR 203B
ENCODING 8251
SWIDTH 960 0
DWIDTH 16 0
BBX 15 15 0 -2
BITMAP
0100
23C4
2100
1110
0820
0400
2244
F11E
22C4
0440
0820
1110
0108
23C4
0100
ENDCHAR
STARTCHAR 203C
ENCODING 8252
SWIDTH 960 0
DWIDTH 16 0
BBX 8 13 4 -1
BITMAP
81
81
81
81
81
81
81
81
00
00
00
00
81
ENDCHAR
STARTCHAR 203E
ENCODING 8254
SWIDTH 480 0
DWIDTH 8 0
BBX 7 4 0 8
BITMAP
72
92
92
88
ENDCHAR
STARTCHAR 2047
ENCODING 8263
SWIDTH 1020 0
DWIDTH 17 0
BBX 12 13 2 -1
BITMAP
70E0
0000
8910
8910
8910
0810
1020
4080
4080
4080
0000
0000
4080
ENDCHAR
STARTCHAR 2048
ENCODING 8264
SWIDTH 960 0
DWIDTH 16 0
BBX 9 13 3 -1
BITMAP
7080
0080
8880
8880
8880
0880
1080
4080
4000
4000
0000
0000
4080
ENDCHAR
STARTCHAR 2049
ENCODING 8265
SWIDTH 960 0
DWIDTH 16 0
BBX 9 13 4 -1
BITMAP
8300
8000
8880
8880
8880
8080
8100
8200
0200
0200
0000
0000
8200
ENDCHAR
STARTCHAR 2103
ENCODING 8451
SWIDTH 1020 0
DWIDTH 17 0
BBX 12 15 2 0
BITMAP
7000
8800
8800
8800
8800
71E0
0610
0800
0800
0800
0800
0800
0800
0610
01E0
ENDCHAR
STARTCHAR 2116
ENCODING 8470
SWIDTH 1020 0
DWIDTH 17 0
BBX 15 12 0 0
BITMAP
8200
E200
E200
E200
9238
9238
9244
8E44
8E44
8E44
8244
823A
ENDCHAR
STARTCHAR 2121
ENCODING 8481
SWIDTH 1020 0
DWIDTH 17 0
BBX 15 12 0 0
BITMAP
FE10
1010
1010
13D0
1210
1210
1210
13D0
1210
1210
1210
13DE
ENDCHAR
STARTCHAR 212B
ENCODING 8491
SWIDTH 1020 0
DWIDTH 17 0
BBX 10 16 3 -1
BITMAP
0E00
1100
1100
1100
1100
0E00
0800
1600
1600
1600
6100
7F00
7F00
80C0
80C0
80C0
ENDCHAR
STARTCHAR 2160
ENCODING 8544
SWIDTH 1020 0
DWIDTH 17 0
BBX 7 14 4 -1
BITMAP
FE
10
10
10
10
10
10
10
10
10
10
10
10
FE
ENDCHAR
STARTCHAR 2161
ENCODING 8545
SWIDTH 960 0
DWIDTH 16 0
BBX 8 14 4 -1
BITMAP
FF
22
22
22
22
22
22
22
22
22
22
22
22
FF
ENDCHAR
STARTCHAR 2162
ENCODING 8546
SWIDTH 1020 0
DWIDTH 17 0
BBX 13 14 1 -1
BITMAP
FFF8
2220
2220
2220
2220
2220
2220
2220
2220
2220
2220
2220
2220
FFF8
ENDCHAR
STARTCHAR 2163
ENCODING 8547
SWIDTH 1020 0
DWIDTH 17 0
BBX 13 14 1 -1
BITMAP
FE78
2820
2820
2820
2820
2820
2640
2240
2240
2240
2100
2100
2100
F100
ENDCHAR
STARTCHAR 2164
ENCODING 8548
SWIDTH 1020 0
DWIDTH 17 0
BBX 13 14 1 -1
BITMAP
F078
2020
2020
2020
1040
1040
1040
1040
0980
0900
0900
0200
0200
0200
ENDCHAR
STARTCHAR 2165
ENCODING 8549
SWIDTH 960 0
DWIDTH 16 0
BBX 12 14 1 -1
BITMAP
F3F0
2120
2120
2120
2120
2120
1220
1220
1220
1220
0C20
0820
0820
08F0
ENDCHAR
STARTCHAR 2166
ENCODING 8550
SWIDTH 960 0
DWIDTH 16 0
BBX 15 14 0 -1
BITMAP
F3FE
2124
2124
2124
2124
2124
1224
1224
1224
1224
0C24
0824
0824
08FE
ENDCHAR
STARTCHAR 2167
ENCODING 8551
SWIDTH 1020 0
DWIDTH 17 0
BBX 16 14 0 -1
BITMAP
E7FF
24A4
24A4
24A4
24A4
24A4
24A4
24A4
24A4
18A4
10A4
10A4
10A4
13FF
ENDCHAR
STARTCHAR 2168
ENCODING 8552
SWIDTH 1020 0
DWIDTH 17 0
BBX 13 14 1 -1
BITMAP
FE78
2820
2820
2640
2240
2240
2100
2100
22C0
2240
2240
2C20
2820
FE78
ENDCHAR
STARTCHAR 2169
ENCODING 8553
SWIDTH 1020 0
DWIDTH 17 0
BBX 13 14 1 -1
BITMAP
F078
2020
2020
1040
0980
0200
0200
0200
0200
0D00
10C0
2020
2020
F078
ENDCHAR
STARTCHAR 2190
ENCODING 8592
SWIDTH 1020 0
DWIDTH 17 0
BBX 15 12 0 0
BITMAP
0200
0C00
0C00
1000
6000
6000
FFFE
6000
2000
1000
0C00
0200
ENDCHAR
STARTCHAR 2191
ENCODING 8593
SWIDTH 1020 0
DWIDTH 17 0
BBX 12 15 2 -2
BITMAP
0400
0F00
0F00
1480
6460
8410
0400
0400
0400
0400
0400
0400
0400
0400
0400
ENDCHAR
STARTCHAR 2192
ENCODING 8594
SWIDTH 1020 0
DWIDTH 17 0
BBX 15 12 0 0
BITMAP
00C0
0020
0020
0018
000C
000C
FFFE
000C
0008
0018
0020
00C0
ENDCHAR
STARTCHAR 2193
ENCODING 8595
SWIDTH 1020 0
DWIDTH 17 0
BBX 12 15 2 -2
BITMAP
0400
0400
0400
0400
0400
0400
0400
0400
8410
8410
6460
1480
0F00
0400
0400
ENDCHAR
STARTCHAR 2196
ENCODING 8598
SWIDTH 1020 0
DWIDTH 17 0
BBX 12 12 2 0
BITMAP
F800
C000
C000
9000
8800
8800
0600
0100
0100
00C0
0020
0010
ENDCHAR
STARTCHAR 2197
ENCODING 8599
SWIDTH 1020 0
DWIDTH 17 0
BBX 12 12 2 0
BITMAP
01F0
0070
0070
0090
0110
0110
0600
0800
0800
1000
6000
8000
ENDCHAR
STARTCHAR 2198
ENCODING 8600
SWIDTH 1020 0
DWIDTH 17 0
BBX 12 12 2 0
BITMAP
8000
6000
6000
1000
0800
0800
0600
0110
0110
0090
0070
01F0
ENDCHAR
STARTCHAR 2199
ENCODING 8601
SWIDTH 1020 0
DWIDTH 17 0
BBX 12 12 2 0
BITMAP
0010
0020
0020
00C0
0100
0100
0600
8800
8800
9000
C000
F800
ENDCHAR
STARTCHAR 21C4
ENCODING 8644
SWIDTH 1020 0
DWIDTH 17 0
BBX 13 12 1 0
BITMAP
00C0
0020
0020
7FF8
0020
0020
10C0
6000
6000
FFE0
6000
1000
ENDCHAR
STARTCHAR 21D2
ENCODING 8658
SWIDTH 1020 0
DWIDTH 17 0
BBX 15 9 0 1
BITMAP
0020
0018
FFFC
0002
0002
FFFC
0018
0018
0020
ENDCHAR
STARTCHAR 21D4
ENCODING 8660
SWIDTH 1020 0
DWIDTH 17 0
BBX 15 9 0 1
BITMAP
0C20
1018
7FFC
8002
8002
7FFC
1018
1018
0C20
ENDCHAR
STARTCHAR 21E6
ENCODING 8678
SWIDTH 1020 0
DWIDTH 17 0
BBX 12 12 2 0
BITMAP
0700
0900
0900
11F0
6010
6010
8010
6010
6010
11F0
0900
0700
ENDCHAR
STARTCHAR 21E7
ENCODING 8679
SWIDTH 1020 0
DWIDTH 17 0
BBX 12 13 2 0
BITMAP
0600
0900
10C0
10C0
6020
8010
8010
F0F0
10C0
10C0
10C0
10C0
1FC0
ENDCHAR
STARTCHAR 21E8
ENCODING 8680
SWIDTH 1020 0
DWIDTH 17 0
BBX 12 12 2 0
BITMAP
0E00
0900
0900
F8C0
8020
8020
8010
8020
8020
F8C0
0900
0E00
ENDCHAR
STARTCHAR 21E9
ENCODING 8681
SWIDTH 1020 0
DWIDTH 17 0
BBX 12 13 2 0
BITMAP
1FC0
10C0
10C0
10C0
10C0
F0F0
8010
8010
6020
6020
10C0
0900
0600
ENDCHAR
STARTCHAR 2200
ENCODING 8704
SWIDTH 1020 0
DWIDTH 17 0
BBX 12 14 2 -1
BITMAP
8010
8010
E030
6020
7FE0
10C0
10C0
10C0
0900
0900
0900
0600
0600
0600
ENDCHAR
STARTCHAR 2202
ENCODING 8706
SWIDTH 1020 0
DWIDTH 17 0
BBX 9 12 3 0
BITMAP
0F00
0F00
1080
0080
0080
0080
1E80
6100
8100
8100
8200
7C00
ENDCHAR
STARTCHAR 2203
ENCODING 8707
SWIDTH 1020 0
DWIDTH 17 0
BBX 9 13 3 0
BITMAP
FF80
0080
0080
0080
0080
FF80
0080
0080
0080
0080
0080
0080
FF80
ENDCHAR
STARTCHAR 2207
ENCODING 8711
SWIDTH 1020 0
DWIDTH 17 0
BBX 13 13 1 -1
BITMAP
FFF8
FFF8
FFF8
3830
3830
3830
1C40
1C40
0580
0580
0780
0200
0200
ENDCHAR
STARTCHAR 2208
ENCODING 8712
SWIDTH 1020 0
DWIDTH 17 0
BBX 12 10 2 1
BITMAP
3FF0
3FF0
4000
8000
8000
FFF0
8000
4000
4000
3FF0
ENDCHAR
STARTCHAR 220B
ENCODING 8715
SWIDTH 1020 0
DWIDTH 17 0
BBX 13 10 1 1
BITMAP
FFC0
FFC0
0030
0008
0008
FFF8
0008
0030
0030
FFC0
ENDCHAR
STARTCHAR 2211
ENCODING 8721
SWIDTH 1020 0
DWIDTH 17 0
BBX 13 12 1 0
BITMAP
FFF8
2000
2000
1800
0400
0400
0200
0400
0400
1800
2000
FFF8
ENDCHAR
STARTCHAR 2212
ENCODING 8722
SWIDTH 900 0
DWIDTH 15 0
BBX 0 0 0 0
BITMAP
ENDCHAR
STARTCHAR 221A
ENCODING 8730
SWIDTH 1020 0
DWIDTH 17 0
BBX 16 16 0 -1
BITMAP
007F
0040
0040
0040
0180
0180
0180
6180
6180
6200
9200
9200
9200
0C00
0C00
0C00
ENDCHAR
STARTCHAR 221D
ENCODING 8733
SWIDTH 1020 0
DWIDTH 17 0
BBX 14 8 0 2
BITMAP
1C38
62C4
8100
8100
8100
62C4
62C4
1C38
ENDCHAR
STARTCHAR 221E
ENCODING 8734
SWIDTH 1020 0
DWIDTH 17 0
BBX 15 9 0 1
BITMAP
1C38
1C38
62C4
8102
8102
8102
62C4
62C4
1C38
ENDCHAR
STARTCHAR 221F
ENCODING 8735
SWIDTH 1020 0
DWIDTH 17 0
BBX 11 11 3 1
BITMAP
8000
8000
8000
8000
8000
8000
8000
8000
8000
8000
FFE0
ENDCHAR
STARTCHAR 2220
ENCODING 8736
SWIDTH 1020 0
DWIDTH 17 0
BBX 13 11 1 1
BITMAP
0030
0030
0040
0180
0200
0400
0400
1800
2000
2000
FFF8
ENDCHAR
STARTCHAR 2225
ENCODING 8741
SWIDTH 1020 0
DWIDTH 17 0
BBX 4 18 6 -3
BITMAP
90
90
90
90
90
90
90
90
90
90
90
90
90
90
90
90
90
90
ENDCHAR
STARTCHAR 2227
ENCODING 8743
SWIDTH 1020 0
DWIDTH 17 0
BBX 12 14 2 -1
BITMAP
0600
0600
0600
0900
0900
10C0
10C0
10C0
6020
6020
6020
8010
8010
8010
ENDCHAR
STARTCHAR 2228
ENCODING 8744
SWIDTH 1020 0
DWIDTH 17 0
BBX 12 14 2 -1
BITMAP
8010
8010
8010
6020
6020
10C0
10C0
10C0
0900
0900
0900
0600
0600
0600
ENDCHAR
STARTCHAR 2229
ENCODING 8745
SWIDTH 1020 0
DWIDTH 17 0
BBX 9 13 3 -1
BITMAP
1E00
6100
6100
8080
8080
8080
8080
8080
8080
8080
8080
8080
8080
ENDCHAR
STARTCHAR 222A
ENCODING 8746
SWIDTH 1020 0
DWIDTH 17 0
BBX 9 12 3 0
BITMAP
8080
8080
8080
8080
8080
8080
8080
8080
8080
8080
6100
1E00
ENDCHAR
STARTCHAR 222B
ENCODING 8747
SWIDTH 1020 0
DWIDTH 17 0
BBX 4 17 6 -2
BITMAP
70
B0
B0
80
80
80
80
40
40
40
30
30
30
30
B0
B0
C0
ENDCHAR
STARTCHAR 222C
ENCODING 8748
SWIDTH 1020 0
DWIDTH 17 0
BBX 9 17 3 -2
BITMAP
7180
9280
9280
8200
8200
8200
8200
6100
6100
6100
1080
1080
1080
1080
9280
9280
E300
ENDCHAR
STARTCHAR 222E
ENCODING 8750
SWIDTH 1020 0
DWIDTH 17 0
BBX 7 17 4 -2
BITMAP
10
10
6C
60
60
7C
92
92
92
92
92
7C
0C
0C
6C
20
10
ENDCHAR
STARTCHAR 2234
ENCODING 8756
SWIDTH 1020 0
DWIDTH 17 0
BBX 12 11 1 1
BITMAP
0600
0F00
0F00
0600
0000
0000
0000
6060
F0F0
F0F0
6060
ENDCHAR
STARTCHAR 2235
ENCODING 8757
SWIDTH 1020 0
DWIDTH 17 0
BBX 12 11 1 1
BITMAP
6060
F0F0
F0F0
6060
0000
0000
0000
0600
0F00
0F00
0600
ENDCHAR
STARTCHAR 223D
ENCODING 8765
SWIDTH 1020 0
DWIDTH 17 0
BBX 15 8 0 2
BITMAP
1038
60C4
8102
8102
8102
6204
6204
1C18
ENDCHAR
STARTCHAR 2252
ENCODING 8786
SWIDTH 1020 0
DWIDTH 17 0
BBX 13 13 1 -1
BITMAP
3800
3800
3800
0000
FFF8
0000
0000
FFF8
0000
0000
0070
0070
0070
ENDCHAR
STARTCHAR 2260
ENCODING 8800
SWIDTH 1020 0
DWIDTH 17 0
BBX 12 10 2 0
BITMAP
0060
0080
FFF0
0600
0600
0800
0800
FFF0
4000
8000
ENDCHAR
STARTCHAR 2261
ENCODING 8801
SWIDTH 1020 0
DWIDTH 17 0
BBX 13 9 1 1
BITMAP
FFF8
0000
0000
0000
FFF8
0000
0000
0000
FFF8
ENDCHAR
STARTCHAR 2266
ENCODING 8806
SWIDTH 1020 0
DWIDTH 17 0
BBX 13 12 1 0
BITMAP
0078
0780
0780
F800
0780
0780
0078
0000
0000
FFF8
0000
FFF8
ENDCHAR
STARTCHAR 2267
ENCODING 8807
SWIDTH 1020 0
DWIDTH 17 0
BBX 13 12 1 0
BITMAP
F800
0780
0780
0078
0780
0780
F800
0000
0000
FFF8
0000
FFF8
ENDCHAR
STARTCHAR 226A
ENCODING 8810
SWIDTH 1020 0
DWIDTH 17 0
BBX 12 12 2 0
BITMAP
0610
0820
0820
10C0
6100
6100
8600
6100
6100
10C0
0820
0610
ENDCHAR
STARTCHAR 226B
ENCODING 8811
SWIDTH 1020 0
DWIDTH 17 0
BBX 12 12 0 0
BITMAP
8200
6180
6180
1040
0C20
0C20
0210
0C20
0C20
1040
6180
8200
ENDCHAR
STARTCHAR 2282
ENCODING 8834
SWIDTH 1020 0
DWIDTH 17 0
BBX 12 9 2 1
BITMAP
3FF0
4000
8000
8000
8000
8000
4000
4000
3FF0
ENDCHAR
STARTCHAR 2283
ENCODING 8835
SWIDTH 1020 0
DWIDTH 17 0
BBX 13 9 1 1
BITMAP
FFC0
0030
0008
0008
0008
0008
0030
0030
FFC0
ENDCHAR
STARTCHAR 2286
ENCODING 8838
SWIDTH 1020 0
DWIDTH 17 0
BBX 13 12 1 0
BITMAP
1FF8
2000
2000
C000
C000
C000
2000
1FF8
0000
0000
0000
FFF8
ENDCHAR
STARTCHAR 2287
ENCODING 8839
SWIDTH 1020 0
DWIDTH 17 0
BBX 13 12 1 0
BITMAP
FFC0
0030
0030
0008
0008
0008
0030
FFC0
0000
0000
0000
FFF8
ENDCHAR
STARTCHAR 22A5
ENCODING 8869
SWIDTH 1020 0
DWIDTH 17 0
BBX 13 11 1 1
BITMAP
0200
0200
0200
0200
0200
0200
0200
0200
0200
0200
FFF8
ENDCHAR
STARTCHAR 22BF
ENCODING 8895
SWIDTH 1020 0
DWIDTH 17 0
BBX 11 11 1 1
BITMAP
0020
0020
0060
00A0
0320
0420
0420
1820
2020
2020
FFE0
ENDCHAR
STARTCHAR 2312
ENCODING 8978
SWIDTH 1020 0
DWIDTH 17 0
BBX 15 4 0 11
BITMAP
0FE0
701C
701C
8002
ENDCHAR
STARTCHAR 2318
ENCODING 8984
SWIDTH 1020 0
DWIDTH 17 0
BBX 12 12 2 0
BITMAP
70E0
8910
8910
8910
7FE0
0900
0900
7FE0
8910
8910
8910
70E0
ENDCHAR
STARTCHAR 2460
ENCODING 9312
SWIDTH 1020 0
DWIDTH 17 0
BBX 15 15 0 -2
BITMAP
03C0
1C38
6104
6104
6304
8D02
8102
8102
8102
6104
6104
6104
1C38
0000
03C0
ENDCHAR
STARTCHAR 2461
ENCODING 9313
SWIDTH 1020 0
DWIDTH 17 0
BBX 15 15 0 -2
BITMAP
03C0
1C38
63C4
63C4
6C24
8022
81C2
81C2
8202
6C04
6C04
6FE4
1C38
0000
03C0
ENDCHAR
STARTCHAR 2462
ENCODING 9314
SWIDTH 1020 0
DWIDTH 17 0
BBX 15 15 0 -2
BITMAP
03C0
1C38
63C4
63C4
6C24
8022
8022
81C2
8022
6C24
6C24
63C4
1C38
0040
03C0
ENDCHAR
STARTCHAR 2463
ENCODING 9315
SWIDTH 1020 0
DWIDTH 17 0
BBX 15 15 0 -2
BITMAP
03C0
1C38
61C4
61C4
61C4
8242
8242
8242
8C42
6FE4
6FE4
6044
1C38
0000
03C0
ENDCHAR
STARTCHAR 2464
ENCODING 9316
SWIDTH 1020 0
DWIDTH 17 0
BBX 15 15 0 -2
BITMAP
03C0
1C38
6FE4
6FE4
6C04
8FC2
8FC2
8022
8022
8022
6C24
63C4
1C38
0040
03C0
ENDCHAR
STARTCHAR 2465
ENCODING 9317
SWIDTH 1020 0
DWIDTH 17 0
BBX 15 15 0 -2
BITMAP
03C0
1C38
63C4
63C4
6C04
8FC2
8FC2
8C22
8C22
8C22
6C24
63C4
1C38
0000
03C0
ENDCHAR
STARTCHAR 2466
ENCODING 9318
SWIDTH 1020 0
DWIDTH 17 0
BBX 15 15 0 -2
BITMAP
03C0
1C38
6FE4
6FE4
6024
8042
8182
8182
8182
6204
6204
6204
1C38
0000
03C0
ENDCHAR
STARTCHAR 2467
ENCODING 9319
SWIDTH 1020 0
DWIDTH 17 0
BBX 15 15 0 -2
BITMAP
03C0
1C38
63C4
63C4
6C24
8C22
8C22
83C2
8C22
6C24
6C24
63C4
1C38
0000
03C0
ENDCHAR
STARTCHAR 2468
ENCODING 9320
SWIDTH 1020 0
DWIDTH 17 0
BBX 15 15 0 -2
BITMAP
03C0
1C38
63C4
63C4
6C24
8C22
8C22
8C22
83E2
83E2
6024
63C4
1C38
0000
03C0
ENDCHAR
STARTCHAR 2469
ENCODING 9321
SWIDTH 1020 0
DWIDTH 17 0
BBX 15 15 0 -2
BITMAP
03C0
1838
68E4
68E4
791C
891A
891A
891A
891A
891A
691C
68E4
1838
0000
03C0
ENDCHAR
STARTCHAR 246A
ENCODING 9322
SWIDTH 1020 0
DWIDTH 17 0
BBX 15 15 0 -2
BITMAP
07C0
1838
6824
6824
78E4
8822
8822
8822
8822
6824
6824
6824
1838
0040
07C0
ENDCHAR
STARTCHAR 246B
ENCODING 9323
SWIDTH 1020 0
DWIDTH 17 0
BBX 15 15 0 -2
BITMAP
07C0
1838
68E4
68E4
791C
881A
8822
8822
88C2
6904
6904
69FC
1838
0000
07C0
ENDCHAR
STARTCHAR 246C
ENCODING 9324
SWIDTH 1020 0
DWIDTH 17 0
BBX 15 15 0 -2
BITMAP
07C0
1838
68E4
68E4
791C
881A
881A
88E2
881A
691C
691C
68E4
1838
0040
07C0
ENDCHAR
STARTCHAR 246D
ENCODING 9325
SWIDTH 1020 0
DWIDTH 17 0
BBX 15 15 0 -2
BITMAP
07C0
1838
68E4
68E4
78E4
8922
8922
8922
8922
69FC
69FC
6824
1838
0000
07C0
ENDCHAR
STARTCHAR 246E
ENCODING 9326
SWIDTH 1020 0
DWIDTH 17 0
BBX 15 15 0 -2
BITMAP
07C0
1838
69FC
69FC
7904
89E2
89E2
881A
881A
881A
691C
68E4
1838
0040
07C0
ENDCHAR
STARTCHAR 246F
ENCODING 9327
SWIDTH 1020 0
DWIDTH 17 0
BBX 15 15 0 -2
BITMAP
07C0
1838
68E4
68E4
7904
89E2
89E2
891A
891A
891A
691C
68E4
1838
0000
07C0
ENDCHAR
STARTCHAR 2470
ENCODING 9328
SWIDTH 1020 0
DWIDTH 17 0
BBX 15 15 0 -2
BITMAP
07C0
1838
69FC
69FC
781C
8822
8822
8822
88C2
68C4
68C4
68C4
1838
0040
07C0
ENDCHAR
STARTCHAR 2471
ENCODING 9329
SWIDTH 1020 0
DWIDTH 17 0
BBX 15 15 0 -2
BITMAP
07C0
1838
68E4
68E4
791C
891A
891A
88E2
891A
691C
691C
68E4
1838
0000
07C0
ENDCHAR
STARTCHAR 2472
ENCODING 9330
SWIDTH 1020 0
DWIDTH 17 0
BBX 15 15 0 -2
BITMAP
07C0
1838
68E4
68E4
791C
891A
891A
891A
88FA
88FA
681C
69E4
1838
0040
07C0
ENDCHAR
STARTCHAR 2473
ENCODING 9331
SWIDTH 1020 0
DWIDTH 17 0
BBX 15 15 0 -2
BITMAP
03C0
1C38
6F24
6F24
6DDC
81DA
81DA
82DA
8CDA
6CDC
6CDC
6F24
1C38
0000
03C0
ENDCHAR
STARTCHAR 2500
ENCODING 9472
SWIDTH 1020 0
DWIDTH 17 0
BBX 17 1 0 5
BITMAP
FFFF80
ENDCHAR
STARTCHAR 2501
ENCODING 9473
SWIDTH 1020 0
DWIDTH 17 0
BBX 17 3 0 5
BITMAP
FFFF80
FFFF80
FFFF80
ENDCHAR
STARTCHAR 2502
ENCODING 9474
SWIDTH 1020 0
DWIDTH 17 0
BBX 1 18 7 -3
BITMAP
80
80
80
80
80
80
80
80
80
80
80
80
80
80
80
80
80
80
ENDCHAR
STARTCHAR 2503
ENCODING 9475
SWIDTH 1020 0
DWIDTH 17 0
BBX 3 18 7 -3
BITMAP
E0
E0
E0
E0
E0
E0
E0
E0
E0
E0
E0
E0
E0
E0
E0
E0
E0
E0
ENDCHAR
STARTCHAR 250C
ENCODING 9484
SWIDTH 1020 0
DWIDTH 17 0
BBX 10 9 7 -3
BITMAP
FFC0
8000
8000
8000
8000
8000
8000
8000
8000
ENDCHAR
STARTCHAR 250F
ENCODING 9487
SWIDTH 1020 0
DWIDTH 17 0
BBX 10 11 7 -3
BITMAP
FFC0
FFC0
FFC0
E000
E000
E000
E000
E000
E000
E000
E000
ENDCHAR
STARTCHAR 2510
ENCODING 9488
SWIDTH 1020 0
DWIDTH 17 0
BBX 8 9 0 -3
BITMAP
FF
01
01
01
01
01
01
01
01
ENDCHAR
STARTCHAR 2513
ENCODING 9491
SWIDTH 1020 0
DWIDTH 17 0
BBX 10 11 0 -3
BITMAP
FFC0
FFC0
FFC0
01C0
01C0
01C0
01C0
01C0
01C0
01C0
01C0
ENDCHAR
STARTCHAR 2514
ENCODING 9492
SWIDTH 1020 0
DWIDTH 17 0
BBX 10 10 7 5
BITMAP
8000
8000
8000
8000
8000
8000
8000
8000
8000
FFC0
ENDCHAR
STARTCHAR 2517
ENCODING 9495
SWIDTH 1020 0
DWIDTH 17 0
BBX 10 10 7 5
BITMAP
E000
E000
E000
E000
E000
E000
E000
FFC0
FFC0
FFC0
ENDCHAR
STARTCHAR 2518
ENCODING 9496
SWIDTH 1020 0
DWIDTH 17 0
BBX 8 10 0 5
BITMAP
01
01
01
01
01
01
01
01
01
FF
ENDCHAR
STARTCHAR 251B
ENCODING 9499
SWIDTH 1020 0
DWIDTH 17 0
BBX 10 10 0 5
BITMAP
01C0
01C0
01C0
01C0
01C0
01C0
01C0
FFC0
FFC0
FFC0
ENDCHAR
STARTCHAR 251C
ENCODING 9500
SWIDTH 1020 0
DWIDTH 17 0
BBX 10 18 7 -3
BITMAP
8000
8000
8000
8000
8000
8000
8000
8000
FFC0
FFC0
8000
8000
8000
8000
8000
8000
8000
8000
ENDCHAR
STARTCHAR 251D
ENCODING 9501
SWIDTH 1020 0
DWIDTH 17 0
BBX 10 18 7 -3
BITMAP
8000
8000
8000
8000
8000
8000
8000
FFC0
FFC0
FFC0
8000
8000
8000
8000
8000
8000
8000
8000
ENDCHAR
STARTCHAR 2520
ENCODING 9504
SWIDTH 1020 0
DWIDTH 17 0
BBX 10 18 7 -3
BITMAP
E000
E000
E000
E000
E000
E000
E000
E000
FFC0
FFC0
E000
E000
E000
E000
E000
E000
E000
E000
ENDCHAR
STARTCHAR 2523
ENCODING 9507
SWIDTH 1020 0
DWIDTH 17 0
BBX 10 18 7 -3
BITMAP
E000
E000
E000
E000
E000
E000
E000
FFC0
FFC0
FFC0
E000
E000
E000
E000
E000
E000
E000
E000
ENDCHAR
STARTCHAR 2524
ENCODING 9508
SWIDTH 1020 0
DWIDTH 17 0
BBX 8 18 0 -3
BITMAP
01
01
01
01
01
01
01
01
FF
FF
01
01
01
01
01
01
01
01
ENDCHAR
STARTCHAR 2525
ENCODING 9509
SWIDTH 1020 0
DWIDTH 17 0
BBX 8 18 0 -3
BITMAP
01
01
01
01
01
01
01
FF
FF
FF
01
01
01
01
01
01
01
01
ENDCHAR
STARTCHAR 2528
ENCODING 9512
SWIDTH 1020 0
DWIDTH 17 0
BBX 10 18 0 -3
BITMAP
01C0
01C0
01C0
01C0
01C0
01C0
01C0
01C0
FFC0
FFC0
01C0
01C0
01C0
01C0
01C0
01C0
01C0
01C0
ENDCHAR
STARTCHAR 252B
ENCODING 9515
SWIDTH 1020 0
DWIDTH 17 0
BBX 10 18 0 -3
BITMAP
01C0
01C0
01C0
01C0
01C0
01C0
01C0
FFC0
FFC0
FFC0
01C0
01C0
01C0
01C0
01C0
01C0
01C0
01C0
ENDCHAR
STARTCHAR 252C
ENCODING 9516
SWIDTH 1020 0
DWIDTH 17 0
BBX 17 9 0 -3
BITMAP
FFFF80
010000
010000
010000
010000
010000
010000
010000
010000
ENDCHAR
STARTCHAR 252F
ENCODING 9519
SWIDTH 1020 0
DWIDTH 17 0
BBX 17 11 0 -3
BITMAP
FFFF80
FFFF80
FFFF80
010000
010000
010000
010000
010000
010000
010000
010000
ENDCHAR
STARTCHAR 2530
ENCODING 9520
SWIDTH 1020 0
DWIDTH 17 0
BBX 17 9 0 -3
BITMAP
FFFF80
01C000
01C000
01C000
01C000
01C000
01C000
01C000
01C000
ENDCHAR
STARTCHAR 2533
ENCODING 9523
SWIDTH 1020 0
DWIDTH 17 0
BBX 17 11 0 -3
BITMAP
FFFF80
FFFF80
FFFF80
01C000
01C000
01C000
01C000
01C000
01C000
01C000
01C000
ENDCHAR
STARTCHAR 2534
ENCODING 9524
SWIDTH 1020 0
DWIDTH 17 0
BBX 17 10 0 5
BITMAP
010000
010000
010000
010000
010000
010000
010000
010000
010000
FFFF80
ENDCHAR
STARTCHAR 2537
ENCODING 9527
SWIDTH 1020 0
DWIDTH 17 0
BBX 17 10 0 5
BITMAP
010000
010000
010000
010000
010000
010000
010000
FFFF80
FFFF80
FFFF80
ENDCHAR
STARTCHAR 2538
ENCODING 9528
SWIDTH 1020 0
DWIDTH 17 0
BBX 17 10 0 5
BITMAP
01C000
01C000
01C000
01C000
01C000
01C000
01C000
01C000
01C000
FFFF80
ENDCHAR
STARTCHAR 253B
ENCODING 9531
SWIDTH 1020 0
DWIDTH 17 0
BBX 17 10 0 5
BITMAP
01C000
01C000
01C000
01C000
01C000
01C000
01C000
FFFF80
FFFF80
FFFF80
ENDCHAR
STARTCHAR 253C
ENCODING 9532
SWIDTH 1020 0
DWIDTH 17 0
BBX 17 18 0 -3
BITMAP
010000
010000
010000
010000
010000
010000
010000
010000
FFFF80
FFFF80
010000
010000
010000
010000
010000
010000
010000
010000
ENDCHAR
STARTCHAR 253F
ENCODING 9535
SWIDTH 1020 0
DWIDTH 17 0
BBX 17 18 0 -3
BITMAP
010000
010000
010000
010000
010000
010000
010000
FFFF80
FFFF80
FFFF80
010000
010000
010000
010000
010000
010000
010000
010000
ENDCHAR
STARTCHAR 2542
ENCODING 9538
SWIDTH 1020 0
DWIDTH 17 0
BBX 17 18 0 -3
BITMAP
01C000
01C000
01C000
01C000
01C000
01C000
01C000
01C000
FFFF80
FFFF80
01C000
01C000
01C000
01C000
01C000
01C000
01C000
01C000
ENDCHAR
STARTCHAR 254B
ENCODING 9547
SWIDTH 1020 0
DWIDTH 17 0
BBX 17 18 0 -3
BITMAP
01C000
01C000
01C000
01C000
01C000
01C000
01C000
FFFF80
FFFF80
FFFF80
01C000
01C000
01C000
01C000
01C000
01C000
01C000
01C000
ENDCHAR
STARTCHAR 25A0
ENCODING 9632
SWIDTH 1020 0
DWIDTH 17 0
BBX 13 13 1 -1
BITMAP
FFF8
FFF8
FFF8
FFF8
FFF8
FFF8
FFF8
FFF8
FFF8
FFF8
FFF8
FFF8
FFF8
ENDCHAR
STARTCHAR 25A1
ENCODING 9633
SWIDTH 1020 0
DWIDTH 17 0
BBX 12 12 2 0
BITMAP
FFF0
8010
8010
8010
8010
8010
8010
8010
8010
8010
8010
FFF0
ENDCHAR
STARTCHAR 25B2
ENCODING 9650
SWIDTH 1020 0
DWIDTH 17 0
BBX 13 13 1 -1
BITMAP
0200
0200
0780
0780
1FC0
1FC0
1FC0
3FF0
3FF0
3FF0
FFF8
FFF8
FFF8
ENDCHAR
STARTCHAR 25B3
ENCODING 9651
SWIDTH 1020 0
DWIDTH 17 0
BBX 12 12 2 0
BITMAP
0600
0900
0900
0900
10C0
10C0
10C0
6020
6020
6020
8010
FFF0
ENDCHAR
STARTCHAR 25B6
ENCODING 9654
SWIDTH 1020 0
DWIDTH 17 0
BBX 13 13 1 -1
BITMAP
E000
FC00
FC00
FF80
FFE0
FFE0
FFF8
FFE0
FF80
FF80
FC00
E000
E000
ENDCHAR
STARTCHAR 25B7
ENCODING 9655
SWIDTH 1020 0
DWIDTH 17 0
BBX 12 12 2 0
BITMAP
C000
B800
B800
8700
80E0
80E0
8010
80E0
80E0
8700
B800
C000
ENDCHAR
STARTCHAR 25BC
ENCODING 9660
SWIDTH 1020 0
DWIDTH 17 0
BBX 13 13 1 -1
BITMAP
FFF8
FFF8
FFF8
3FF0
3FF0
3FF0
1FC0
1FC0
0780
0780
0780
0200
0200
ENDCHAR
STARTCHAR 25BD
ENCODING 9661
SWIDTH 1020 0
DWIDTH 17 0
BBX 12 12 2 0
BITMAP
FFF0
8010
8010
6020
6020
10C0
10C0
10C0
0900
0900
0900
0600
ENDCHAR
STARTCHAR 25C0
ENCODING 9664
SWIDTH 1020 0
DWIDTH 17 0
BBX 13 13 1 -1
BITMAP
0038
01F8
01F8
0FF8
3FF8
3FF8
FFF8
3FF8
0FF8
0FF8
01F8
0038
0038
ENDCHAR
STARTCHAR 25C1
ENCODING 9665
SWIDTH 1020 0
DWIDTH 17 0
BBX 12 12 2 0
BITMAP
0070
0190
0190
0E10
7010
7010
8010
7010
7010
0E10
0190
0070
ENDCHAR
STARTCHAR 25C6
ENCODING 9670
SWIDTH 1020 0
DWIDTH 17 0
BBX 15 15 0 -2
BITMAP
0100
03C0
0FE0
0FE0
1FF8
7FFC
7FFC
FFFE
7FFC
1FF8
1FF8
0FE0
03C0
03C0
0100
ENDCHAR
STARTCHAR 25C7
ENCODING 9671
SWIDTH 1020 0
DWIDTH 17 0
BBX 15 15 0 -2
BITMAP
0180
0240
0C20
0C20
1010
600C
600C
8002
600C
600C
1010
0C20
0240
0200
0180
ENDCHAR
STARTCHAR 25CB
ENCODING 9675
SWIDTH 1020 0
DWIDTH 17 0
BBX 13 13 2 0
BITMAP
0700
38E0
4010
4010
4010
8008
8008
8008
4010
4010
4010
38E0
0700
ENDCHAR
STARTCHAR 25CE
ENCODING 9678
SWIDTH 1020 0
DWIDTH 17 0
BBX 13 13 2 0
BITMAP
0700
38E0
4010
4010
4710
8888
8888
8888
4710
4010
4010
38E0
0700
ENDCHAR
STARTCHAR 25CF
ENCODING 9679
SWIDTH 1020 0
DWIDTH 17 0
BBX 14 14 1 -1
BITMAP
0300
1FE0
1FE0
3FF8
3FF8
3FF8
FFFC
FFFC
3FF8
3FF8
3FF8
1FE0
1FE0
0300
ENDCHAR
STARTCHAR 25EF
ENCODING 9711
SWIDTH 1020 0
DWIDTH 17 0
BBX 15 15 0 -2
BITMAP
03C0
1C38
6004
6004
6004
8002
8002
8002
8002
6004
6004
6004
1C38
0000
03C0
ENDCHAR
STARTCHAR 2600
ENCODING 9728
SWIDTH 1020 0
DWIDTH 17 0
BBX 12 12 2 0
BITMAP
0400
4060
4060
1F00
3F80
3F80
BF90
3F80
3F80
1F00
4060
0400
ENDCHAR
STARTCHAR 2601
ENCODING 9729
SWIDTH 1020 0
DWIDTH 17 0
BBX 14 12 2 0
BITMAP
0F00
3080
3080
3060
486C
486C
801C
800C
800C
8810
4460
3B80
ENDCHAR
STARTCHAR 2602
ENCODING 9730
SWIDTH 1020 0
DWIDTH 17 0
BBX 12 13 2 0
BITMAP
0020
0FC0
0FC0
7FE0
FFE0
3FF0
3FF0
07F0
04F0
04F0
0810
8800
7000
ENDCHAR
STARTCHAR 2603
ENCODING 9731
SWIDTH 1020 0
DWIDTH 17 0
BBX 12 13 2 0
BITMAP
1F00
3F80
4060
4060
5B60
4060
4060
A090
9F10
9F10
8010
4060
3F80
ENDCHAR
STARTCHAR 2605
ENCODING 9733
SWIDTH 1020 0
DWIDTH 17 0
BBX 15 15 0 0
BITMAP
0100
0100
0100
03C0
03C0
03C0
FFFE
1FF8
1FF8
0FE0
0FE0
1EF8
1EF8
1C38
600C
ENDCHAR
STARTCHAR 2606
ENCODING 9734
SWIDTH 1020 0
DWIDTH 17 0
BBX 16 15 0 0
BITMAP
0180
0180
0180
0240
0240
0240
FE7F
1808
1808
0430
05B0
05B0
1A48
1C38
2004
ENDCHAR
STARTCHAR 260E
ENCODING 9742
SWIDTH 1020 0
DWIDTH 17 0
BBX 13 12 1 0
BITMAP
3FE0
FFF8
FFF8
E538
0700
0700
19C0
20E0
E0F8
E0F8
F9F8
FFF8
ENDCHAR
STARTCHAR 2611
ENCODING 9745
SWIDTH 1020 0
DWIDTH 17 0
BBX 12 12 2 0
BITMAP
FFF0
8070
8070
8090
8110
8110
C110
B610
8E10
8E10
8810
FFF0
ENDCHAR
STARTCHAR 2616
ENCODING 9750
SWIDTH 1020 0
DWIDTH 17 0
BBX 12 12 2 0
BITMAP
3F80
3F80
4060
8010
8010
8010
8010
8010
8010
8010
8010
FFF0
ENDCHAR
STARTCHAR 2617
ENCODING 9751
SWIDTH 1020 0
DWIDTH 17 0
BBX 13 13 1 -1
BITMAP
1FC0
1FC0
3FF0
FFF8
FFF8
FFF8
FFF8
FFF8
FFF8
FFF8
FFF8
FFF8
FFF8
ENDCHAR
STARTCHAR 261E
ENCODING 9758
SWIDTH 1020 0
DWIDTH 17 0
BBX 16 11 0 0
BITMAP
0300
0300
1CFF
E021
E021
833E
8DF8
8DF8
8218
EC20
13C0
ENDCHAR
STARTCHAR 2640
ENCODING 9792
SWIDTH 1020 0
DWIDTH 17 0
BBX 10 13 3 0
BITMAP
1E00
6100
6100
6100
6100
1E00
0C00
0C00
0C00
0C00
FFC0
0C00
0C00
ENDCHAR
STARTCHAR 2642
ENCODING 9794
SWIDTH 1020 0
DWIDTH 17 0
BBX 12 12 2 0
BITMAP
07F0
0070
0070
0090
0310
0310
7C10
8400
8400
8400
8400
7800
ENDCHAR
STARTCHAR 2660
ENCODING 9824
SWIDTH 1020 0
DWIDTH 17 0
BBX 13 14 1 0
BITMAP
0200
0200
0780
0780
1FC0
3FF0
FFF8
FFF8
FFF8
FFF8
FFF8
3A70
0200
1FC0
ENDCHAR
STARTCHAR 2661
ENCODING 9825
SWIDTH 1020 0
DWIDTH 17 0
BBX 12 11 2 0
BITMAP
7BE0
7BE0
8410
8010
8010
8010
4060
4060
3080
0B00
0400
ENDCHAR
STARTCHAR 2662
ENCODING 9826
SWIDTH 1020 0
DWIDTH 17 0
BBX 12 13 2 0
BITMAP
0600
0900
0900
10C0
6020
8010
8010
8010
6020
6020
10C0
0900
0600
ENDCHAR
STARTCHAR 2663
ENCODING 9827
SWIDTH 1020 0
DWIDTH 17 0
BBX 13 13 1 0
BITMAP
0780
1FC0
1FC0
1FC0
0780
3FF0
3FF0
FFF8
FFF8
FFF8
3A70
0200
1FC0
ENDCHAR
STARTCHAR 2664
ENCODING 9828
SWIDTH 1020 0
DWIDTH 17 0
BBX 12 13 2 0
BITMAP
0400
1B00
2080
2080
4060
8010
8010
8010
9B10
9B10
7BE0
1B00
3F80
ENDCHAR
STARTCHAR 2665
ENCODING 9829
SWIDTH 1020 0
DWIDTH 17 0
BBX 13 11 1 -1
BITMAP
3DF0
FFF8
FFF8
FFF8
FFF8
3FF0
1FC0
1FC0
0780
0200
0200
ENDCHAR
STARTCHAR 2666
ENCODING 9830
SWIDTH 1020 0
DWIDTH 17 0
BBX 13 14 1 -1
BITMAP
0200
0780
0780
1FC0
3FF0
3FF0
FFF8
FFF8
3FF0
3FF0
1FC0
0780
0780
0200
ENDCHAR
STARTCHAR 2667
ENCODING 9831
SWIDTH 1020 0
DWIDTH 17 0
BBX 12 13 2 0
BITMAP
1F00
2080
2080
2080
7BE0
8010
8010
8010
9B10
9B10
7BE0
1B00
3F80
ENDCHAR
STARTCHAR 2668
ENCODING 9832
SWIDTH 1020 0
DWIDTH 17 0
BBX 12 12 2 0
BITMAP
08C0
1100
1100
1100
08C0
08C0
08C0
9110
8010
8010
6020
1FC0
ENDCHAR
STARTCHAR 266A
ENCODING 9834
SWIDTH 1020 0
DWIDTH 17 0
BBX 10 14 3 -1
BITMAP
0800
0E00
0E00
0900
08C0
08C0
08C0
0900
0800
0800
7800
F800
F000
F000
ENDCHAR
STARTCHAR 266D
ENCODING 9837
SWIDTH 1020 0
DWIDTH 17 0
BBX 7 14 4 0
BITMAP
80
80
80
80
80
9C
E2
E2
82
82
82
8C
90
E0
ENDCHAR
STARTCHAR 266F
ENCODING 9839
SWIDTH 1020 0
DWIDTH 17 0
BBX 11 14 3 -1
BITMAP
1100
1100
1100
11E0
1F00
1F00
F100
11E0
1F00
1F00
F100
1100
1100
1100
ENDCHAR
STARTCHAR 2713
ENCODING 10003
SWIDTH 1020 0
DWIDTH 17 0
BBX 9 13 3 -1
BITMAP
0080
0100
0100
0100
0200
0200
0200
8C00
6C00
6C00
1C00
1000
1000
ENDCHAR
STARTCHAR 274E
ENCODING 10062
SWIDTH 1020 0
DWIDTH 17 0
BBX 13 13 1 -1
BITMAP
3FE0
FFF8
FFF8
EF38
F278
F278
FDF8
F278
E2B8
EF38
FFF8
3FE0
3FE0
ENDCHAR
STARTCHAR 2756
ENCODING 10070
SWIDTH 1020 0
DWIDTH 17 0
BBX 13 13 1 -1
BITMAP
0200
0780
0780
0780
3A70
3A70
FDF8
3A70
0780
0780
0780
0200
0200
ENDCHAR
STARTCHAR 27A1
ENCODING 10145
SWIDTH 1020 0
DWIDTH 17 0
BBX 13 13 1 -1
BITMAP
0200
0380
0380
FFC0
FFE0
FFE0
FFF8
FFE0
FFC0
FFC0
0380
0200
0200
ENDCHAR
STARTCHAR 29D7
ENCODING 10711
SWIDTH 1020 0
DWIDTH 17 0
BBX 10 13 3 -1
BITMAP
FFC0
FFC0
FFC0
7F00
1E00
1E00
0C00
1E00
1E00
7F00
FFC0
FFC0
FFC0
ENDCHAR
STARTCHAR 2B05
ENCODING 11013
SWIDTH 1020 0
DWIDTH 17 0
BBX 13 13 1 -1
BITMAP
0200
0600
0600
1FF8
3FF8
3FF8
FFF8
3FF8
1FF8
1FF8
0600
0200
0200
ENDCHAR
STARTCHAR 2B06
ENCODING 11014
SWIDTH 1020 0
DWIDTH 17 0
BBX 13 13 1 -1
BITMAP
0200
0200
0780
1FC0
3FF0
3FF0
FFF8
1FC0
1FC0
1FC0
1FC0
1FC0
1FC0
ENDCHAR
STARTCHAR 2B07
ENCODING 11015
SWIDTH 1020 0
DWIDTH 17 0
BBX 13 13 1 -1
BITMAP
1FC0
1FC0
1FC0
1FC0
1FC0
1FC0
FFF8
3FF0
1FC0
1FC0
0780
0200
0200
ENDCHAR
STARTCHAR 3000
ENCODING 12288
SWIDTH 1020 0
DWIDTH 17 0
BBX 0 0 0 0
BITMAP
ENDCHAR
STARTCHAR 3001
ENCODING 12289
SWIDTH 1020 0
DWIDTH 17 0
BBX 2 3 2 -2
BITMAP
80
80
40
ENDCHAR
STARTCHAR 3002
ENCODING 12290
SWIDTH 1020 0
DWIDTH 17 0
BBX 5 5 2 -2
BITMAP
70
88
88
88
70
ENDCHAR
STARTCHAR 3003
ENCODING 12291
SWIDTH 1020 0
DWIDTH 17 0
BBX 7 8 4 2
BITMAP
66
66
66
66
88
88
88
88
ENDCHAR
STARTCHAR 3005
ENCODING 12293
SWIDTH 1020 0
DWIDTH 17 0
BBX 9 12 3 0
BITMAP
6000
6000
6000
7F80
8080
8080
8080
0100
0100
1200
0C00
0200
ENDCHAR
STARTCHAR 3006
ENCODING 12294
SWIDTH 1020 0
DWIDTH 17 0
BBX 12 13 2 -1
BITMAP
0010
0060
0060
3C80
4300
4300
8480
9860
9860
A010
C000
C000
8000
ENDCHAR
STARTCHAR 3007
ENCODING 12295
SWIDTH 1020 0
DWIDTH 17 0
BBX 15 12 0 0
BITMAP
03C0
1C38
1C38
6004
8002
8002
8002
8002
8002
6004
1C38
03C0
ENDCHAR
STARTCHAR 3008
ENCODING 12296
SWIDTH 1020 0
DWIDTH 17 0
BBX 4 16 10 -2
BITMAP
10
10
10
60
60
60
80
80
80
80
60
60
60
10
10
10
ENDCHAR
STARTCHAR 3009
ENCODING 12297
SWIDTH 1020 0
DWIDTH 17 0
BBX 3 16 2 -2
BITMAP
80
80
80
40
40
40
20
20
20
20
40
40
40
80
80
80
ENDCHAR
STARTCHAR 300A
ENCODING 12298
SWIDTH 1020 0
DWIDTH 17 0
BBX 8 16 7 -2
BITMAP
11
11
11
62
62
62
8C
8C
8C
8C
62
62
62
11
11
11
ENDCHAR
STARTCHAR 300B
ENCODING 12299
SWIDTH 1020 0
DWIDTH 17 0
BBX 8 16 0 -2
BITMAP
8C
8C
8C
62
62
62
11
11
11
11
62
62
62
8C
8C
8C
ENDCHAR
STARTCHAR 300C
ENCODING 12300
SWIDTH 1020 0
DWIDTH 17 0
BBX 5 11 9 4
BITMAP
F8
80
80
80
80
80
80
80
80
80
80
ENDCHAR
STARTCHAR 300D
ENCODING 12301
SWIDTH 1020 0
DWIDTH 17 0
BBX 6 11 1 -3
BITMAP
04
04
04
04
04
04
04
04
04
04
FC
ENDCHAR
STARTCHAR 300E
ENCODING 12302
SWIDTH 1020 0
DWIDTH 17 0
BBX 8 13 6 2
BITMAP
FF
81
81
9F
90
90
90
90
90
90
90
90
F0
ENDCHAR
STARTCHAR 300F
ENCODING 12303
SWIDTH 1020 0
DWIDTH 17 0
BBX 8 12 2 -3
BITMAP
0F
09
09
09
09
09
09
09
F9
81
81
FF
ENDCHAR
STARTCHAR 3010
ENCODING 12304
SWIDTH 1020 0
DWIDTH 17 0
BBX 5 18 9 -3
BITMAP
F8
F0
F0
C0
C0
C0
80
80
80
80
80
80
80
C0
C0
C0
F0
F8
ENDCHAR
STARTCHAR 3011
ENCODING 12305
SWIDTH 1020 0
DWIDTH 17 0
BBX 6 18 1 -3
BITMAP
FC
3C
3C
1C
1C
1C
04
04
04
04
04
04
04
1C
1C
1C
3C
FC
ENDCHAR
STARTCHAR 3012
ENCODING 12306
SWIDTH 1020 0
DWIDTH 17 0
BBX 13 13 1 0
BITMAP
FFF8
0000
0000
0000
0000
FFF8
0200
0200
0200
0200
0200
0200
0200
ENDCHAR
STARTCHAR 3013
ENCODING 12307
SWIDTH 1020 0
DWIDTH 17 0
BBX 13 9 1 1
BITMAP
FFF8
FFF8
FFF8
FFF8
0000
FFF8
FFF8
FFF8
FFF8
ENDCHAR
STARTCHAR 3014
ENCODING 12308
SWIDTH 1020 0
DWIDTH 17 0
BBX 4 18 10 -3
BITMAP
10
60
60
80
80
80
80
80
80
80
80
80
80
80
80
80
60
10
ENDCHAR
STARTCHAR 3015
ENCODING 12309
SWIDTH 1020 0
DWIDTH 17 0
BBX 3 18 2 -3
BITMAP
80
40
40
20
20
20
20
20
20
20
20
20
20
20
20
20
40
80
ENDCHAR
STARTCHAR 301C
ENCODING 12316
SWIDTH 900 0
DWIDTH 15 0
BBX 0 0 0 0
BITMAP
ENDCHAR
STARTCHAR 301D
ENCODING 12317
SWIDTH 1020 0
DWIDTH 17 0
BBX 5 6 9 9
BITMAP
68
68
68
90
90
90
ENDCHAR
STARTCHAR 301F
ENCODING 12319
SWIDTH 1020 0
DWIDTH 17 0
BBX 5 6 2 -1
BITMAP
68
68
68
90
90
90
ENDCHAR
STARTCHAR 3020
ENCODING 12320
SWIDTH 1020 0
DWIDTH 17 0
BBX 12 13 2 0
BITMAP
7FE0
0000
0000
7FE0
0600
8610
8610
9690
8010
8010
8F10
6060
1F80
ENDCHAR
STARTCHAR 303C
ENCODING 12348
SWIDTH 1020 0
DWIDTH 17 0
BBX 12 12 2 0
BITMAP
FFF0
8070
8070
8090
8110
8110
8610
8810
8810
9010
E010
FFF0
ENDCHAR
STARTCHAR 3041
ENCODING 12353
SWIDTH 1020 0
DWIDTH 17 0
BBX 10 11 3 -2
BITMAP
0800
FFC0
1000
1000
1F00
76C0
76C0
96C0
98C0
1000
7100
ENDCHAR
STARTCHAR 3042
ENCODING 12354
SWIDTH 1020 0
DWIDTH 17 0
BBX 14 15 1 -2
BITMAP
0200
0238
0238
FFC0
0400
07E0
07E0
1C58
2444
C584
C584
C604
3A18
3A18
0060
ENDCHAR
STARTCHAR 3043
ENCODING 12355
SWIDTH 1020 0
DWIDTH 17 0
BBX 10 8 3 0
BITMAP
8100
8100
8100
80C0
80C0
80C0
88C0
7000
ENDCHAR
STARTCHAR 3044
ENCODING 12356
SWIDTH 1020 0
DWIDTH 17 0
BBX 14 10 2 0
BITMAP
4000
4020
8010
8010
8010
800C
800C
810C
4600
3800
ENDCHAR
STARTCHAR 3045
ENCODING 12357
SWIDTH 1020 0
DWIDTH 17 0
BBX 8 11 4 -2
BITMAP
30
0E
00
00
1E
E1
E1
01
02
00
1C
ENDCHAR
STARTCHAR 3046
ENCODING 12358
SWIDTH 1020 0
DWIDTH 17 0
BBX 10 15 3 -2
BITMAP
7C00
0380
0000
0000
1E00
E180
E180
0040
0040
0040
0040
0180
0E00
0000
7000
ENDCHAR
STARTCHAR 3047
ENCODING 12359
SWIDTH 1020 0
DWIDTH 17 0
BBX 8 11 4 -2
BITMAP
70
0E
00
00
FE
08
08
10
68
08
87
ENDCHAR
STARTCHAR 3048
ENCODING 12360
SWIDTH 1020 0
DWIDTH 17 0
BBX 12 15 2 -2
BITMAP
0C00
0380
0000
0000
7F80
0080
0080
0300
0400
0C00
0C00
1300
6300
6300
80F0
ENDCHAR
STARTCHAR 3049
ENCODING 12361
SWIDTH 1020 0
DWIDTH 17 0
BBX 11 11 3 -2
BITMAP
1000
1040
1040
FE20
1000
7F80
7F80
9040
9040
9040
E780
ENDCHAR
STARTCHAR 304A
ENCODING 12362
SWIDTH 1020 0
DWIDTH 17 0
BBX 13 15 2 -2
BITMAP
0800
0870
0870
FF08
0800
0800
0800
0FE0
3810
3810
4808
8808
8818
8810
70E0
ENDCHAR
STARTCHAR 304B
ENCODING 12363
SWIDTH 1020 0
DWIDTH 17 0
BBX 14 16 1 -2
BITMAP
1000
1000
1020
1020
1020
FE18
1118
1104
1104
6104
6100
6100
8100
8100
0000
1E00
ENDCHAR
STARTCHAR 304C
ENCODING 12364
SWIDTH 1020 0
DWIDTH 17 0
BBX 14 15 1 -2
BITMAP
1010
104C
104C
1020
FE00
1190
1190
1190
618C
618C
618C
8180
8180
0000
1E00
ENDCHAR
STARTCHAR 304D
ENCODING 12365
SWIDTH 1020 0
DWIDTH 17 0
BBX 12 15 2 -2
BITMAP
0600
06E0
06E0
FF00
01F0
FF00
0080
0080
3F60
40E0
40E0
4000
3000
1000
0F80
ENDCHAR
STARTCHAR 304E
ENCODING 12366
SWIDTH 1020 0
DWIDTH 17 0
BBX 14 17 2 -2
BITMAP
0010
0010
06CC
0620
0620
FF00
01F0
FF00
00C0
00C0
3F20
40E0
40E0
4000
3000
1000
0FC0
ENDCHAR
STARTCHAR 304F
ENCODING 12367
SWIDTH 1020 0
DWIDTH 17 0
BBX 8 14 4 -2
BITMAP
06
06
08
10
60
80
80
80
80
70
08
06
00
01
ENDCHAR
STARTCHAR 3050
ENCODING 12368
SWIDTH 1020 0
DWIDTH 17 0
BBX 12 14 3 -2
BITMAP
0600
0600
0820
1110
60C0
8000
8000
8000
8000
7000
0800
0600
0000
0100
ENDCHAR
STARTCHAR 3051
ENCODING 12369
SWIDTH 1020 0
DWIDTH 17 0
BBX 14 16 2 -2
BITMAP
0020
0020
6020
6020
6020
8FFC
8020
8020
8020
8020
8020
8020
8020
60C0
60C0
6700
ENDCHAR
STARTCHAR 3052
ENCODING 12370
SWIDTH 1020 0
DWIDTH 17 0
BBX 15 16 0 -2
BITMAP
0024
0024
6022
6038
6038
8FE4
8020
8020
8020
8020
8020
8020
8020
60C0
60C0
6700
ENDCHAR
STARTCHAR 3053
ENCODING 12371
SWIDTH 1020 0
DWIDTH 17 0
BBX 11 12 3 0
BITMAP
7FC0
0000
0000
0000
0000
0000
0000
6000
8000
8000
8020
7FC0
ENDCHAR
STARTCHAR 3054
ENCODING 12372
SWIDTH 1020 0
DWIDTH 17 0
BBX 14 12 2 0
BITMAP
7FD0
7FD0
000C
0020
0010
0000
0000
4000
8000
8000
8020
7FC0
ENDCHAR
STARTCHAR 3055
ENCODING 12373
SWIDTH 1020 0
DWIDTH 17 0
BBX 13 15 1 -2
BITMAP
0180
0180
01B8
01B8
FFC0
0040
0040
0040
1FA0
2060
2060
2000
1000
1000
0FC0
ENDCHAR
STARTCHAR 3056
ENCODING 12374
SWIDTH 1020 0
DWIDTH 17 0
BBX 15 15 0 -2
BITMAP
020C
0222
0222
03D0
FE00
0180
0040
0040
1FA0
6060
6060
6000
1000
1000
0FC0
ENDCHAR
STARTCHAR 3057
ENCODING 12375
SWIDTH 1020 0
DWIDTH 17 0
BBX 10 14 4 -2
BITMAP
6000
6000
6000
6000
8000
8000
8000
8000
8040
8040
8040
6180
0000
1E00
ENDCHAR
STARTCHAR 3058
ENCODING 12376
SWIDTH 1020 0
DWIDTH 17 0
BBX 11 14 3 -2
BITMAP
6080
6260
6260
6100
8000
8000
8000
8000
8080
8080
8080
6100
0000
1E00
ENDCHAR
STARTCHAR 3059
ENCODING 12377
SWIDTH 1020 0
DWIDTH 17 0
BBX 15 15 0 -2
BITMAP
00C0
00C0
00C0
FFFE
00C0
03C0
0CC0
0CC0
0CC0
0CC0
03C0
00C0
0100
0000
0E00
ENDCHAR
STARTCHAR 305A
ENCODING 12378
SWIDTH 1020 0
DWIDTH 17 0
BBX 15 15 0 -2
BITMAP
00C0
00C0
00C0
FFFE
00C0
03CC
0CC2
0CC2
0CD8
0CD8
03CC
00C0
0100
0000
0E00
ENDCHAR
STARTCHAR 305B
ENCODING 12379
SWIDTH 1020 0
DWIDTH 17 0
BBX 14 15 1 -2
BITMAP
0020
1020
1020
1020
11FC
FE20
FE20
1020
1020
11E0
11E0
1000
1000
1000
0FF8
ENDCHAR
STARTCHAR 305C
ENCODING 12380
SWIDTH 1020 0
DWIDTH 17 0
BBX 15 15 0 -2
BITMAP
0020
1024
1022
1022
11F8
FE24
FE24
1020
1020
11E0
11E0
1000
1000
1000
0FF8
ENDCHAR
STARTCHAR 305D
ENCODING 12381
SWIDTH 1020 0
DWIDTH 17 0
BBX 14 14 1 -2
BITMAP
1FE0
00C0
00C0
0100
0200
0200
FFFC
0200
0C00
0C00
0C00
0C00
0400
03E0
ENDCHAR
STARTCHAR 305E
ENCODING 12382
SWIDTH 1020 0
DWIDTH 17 0
BBX 15 14 0 -2
BITMAP
1FCC
00E2
00E2
0118
0200
0200
FFFC
0200
0C00
0C00
0C00
0C00
0400
03E0
ENDCHAR
STARTCHAR 305F
ENCODING 12383
SWIDTH 1020 0
DWIDTH 17 0
BBX 14 15 1 -2
BITMAP
1000
1000
FFE0
FFE0
1000
11F8
11F8
1000
6100
6200
6200
6200
81FC
8000
8000
ENDCHAR
STARTCHAR 3060
ENCODING 12384
SWIDTH 1020 0
DWIDTH 17 0
BBX 14 17 1 -2
BITMAP
0008
0008
1044
1030
FFC0
FFC0
1000
11F8
11F8
1000
2180
2200
2200
2200
C1FC
C000
C000
ENDCHAR
STARTCHAR 3061
ENCODING 12385
SWIDTH 1020 0
DWIDTH 17 0
BBX 14 15 1 -2
BITMAP
0200
0200
0200
FFFC
0C00
0C00
0C00
13C0
1C20
0018
0018
0018
0020
0000
0FC0
ENDCHAR
STARTCHAR 3062
ENCODING 12386
SWIDTH 1020 0
DWIDTH 17 0
BBX 15 17 0 -2
BITMAP
0004
0004
0222
0218
0218
FFE0
0C00
0C00
0C00
13C0
1C20
0018
0018
0018
0020
0000
0FC0
ENDCHAR
STARTCHAR 3063
ENCODING 12387
SWIDTH 1020 0
DWIDTH 17 0
BBX 10 8 3 -2
BITMAP
1E00
E100
00C0
00C0
00C0
0100
0000
1E00
ENDCHAR
STARTCHAR 3064
ENCODING 12388
SWIDTH 1020 0
DWIDTH 17 0
BBX 13 11 1 0
BITMAP
0FC0
0FC0
F020
0018
0018
0018
0018
0018
0020
01C0
1E00
ENDCHAR
STARTCHAR 3065
ENCODING 12389
SWIDTH 1020 0
DWIDTH 17 0
BBX 14 15 1 0
BITMAP
0018
00C4
00C4
0020
0FC0
0FC0
F020
0018
0018
0018
0018
0018
0020
01C0
1E00
ENDCHAR
STARTCHAR 3066
ENCODING 12390
SWIDTH 1020 0
DWIDTH 17 0
BBX 14 12 0 -2
BITMAP
03FC
FCC0
0100
0200
0200
0200
0200
0200
0200
0100
0000
00F8
ENDCHAR
STARTCHAR 3067
ENCODING 12391
SWIDTH 1020 0
DWIDTH 17 0
BBX 15 12 0 -2
BITMAP
03FC
FCC0
0104
0222
0222
0218
0200
0200
0200
0100
0000
00F8
ENDCHAR
STARTCHAR 3068
ENCODING 12392
SWIDTH 1020 0
DWIDTH 17 0
BBX 10 15 3 -2
BITMAP
1000
1000
1000
1000
0C00
0FC0
1C00
1C00
6000
8000
8000
8000
6000
0000
1FC0
ENDCHAR
STARTCHAR 3069
ENCODING 12393
SWIDTH 1020 0
DWIDTH 17 0
BBX 12 17 2 -2
BITMAP
0060
0060
2310
2080
2080
2000
1800
1F80
3800
3800
4000
8000
8000
8000
4000
0000
3F80
ENDCHAR
STARTCHAR 306A
ENCODING 12394
SWIDTH 1020 0
DWIDTH 17 0
BBX 15 15 0 -2
BITMAP
0200
021C
021C
FFC2
0C00
0C10
0C10
1010
1010
1010
61F0
621C
0212
0000
01E0
ENDCHAR
STARTCHAR 306B
ENCODING 12395
SWIDTH 1020 0
DWIDTH 17 0
BBX 13 14 2 -2
BITMAP
4000
4000
43F0
8000
8000
8000
8000
8300
8400
8400
8400
43F8
4000
4000
ENDCHAR
STARTCHAR 306C
ENCODING 12396
SWIDTH 1020 0
DWIDTH 17 0
BBX 14 15 2 -2
BITMAP
0100
0100
4100
4100
4FE0
7110
7110
410C
B60C
B6EC
B6EC
891C
7110
7110
00EC
ENDCHAR
STARTCHAR 306D
ENCODING 12397
SWIDTH 1020 0
DWIDTH 17 0
BBX 14 15 2 -2
BITMAP
1000
1000
1000
1000
F1E0
1610
1610
180C
100C
70EC
70EC
911C
1110
1110
10EC
ENDCHAR
STARTCHAR 306E
ENCODING 12398
SWIDTH 1020 0
DWIDTH 17 0
BBX 14 10 2 0
BITMAP
0FE0
3610
460C
460C
860C
880C
880C
880C
7010
00E0
ENDCHAR
STARTCHAR 306F
ENCODING 12399
SWIDTH 1020 0
DWIDTH 17 0
BBX 14 15 2 -2
BITMAP
0060
6060
6060
6060
8FFC
8060
8060
8060
8060
87E0
87E0
8870
686C
686C
6780
ENDCHAR
STARTCHAR 3070
ENCODING 12400
SWIDTH 1020 0
DWIDTH 17 0
BBX 15 15 0 -2
BITMAP
0024
6022
6022
6038
8FE4
8020
8020
8020
8020
87E0
87E0
8838
6824
6824
67C0
ENDCHAR
STARTCHAR 3071
ENCODING 12401
SWIDTH 1020 0
DWIDTH 17 0
BBX 15 15 0 -2
BITMAP
001C
6022
6022
6022
8FFC
8020
8020
8020
8020
83E0
83E0
8C38
6C2C
6FEC
63C0
ENDCHAR
STARTCHAR 3072
ENCODING 12402
SWIDTH 1020 0
DWIDTH 17 0
BBX 13 14 2 -2
BITMAP
F880
F880
1880
2060
4070
4070
4068
8060
8060
8080
8080
4300
4000
3C00
ENDCHAR
STARTCHAR 3073
ENCODING 12403
SWIDTH 1020 0
DWIDTH 17 0
BBX 14 15 2 -2
BITMAP
0010
F88C
F88C
1860
2000
4060
4070
4070
806C
8080
8080
8080
4300
4000
3C00
ENDCHAR
STARTCHAR 3074
ENCODING 12404
SWIDTH 1020 0
DWIDTH 17 0
BBX 13 15 2 -2
BITMAP
0070
F888
1888
1888
2070
4068
4068
4060
8060
8080
8080
8080
4300
4000
3C00
ENDCHAR
STARTCHAR 3075
ENCODING 12405
SWIDTH 1020 0
DWIDTH 17 0
BBX 14 14 2 -2
BITMAP
3F80
0080
0080
0100
0600
4610
4610
4610
410C
810C
810C
810C
0000
0E00
ENDCHAR
STARTCHAR 3076
ENCODING 12406
SWIDTH 1020 0
DWIDTH 17 0
BBX 14 15 2 -2
BITMAP
0010
3F8C
00E0
00E0
0310
0400
4400
4400
4410
4310
830C
830C
830C
0000
1C00
ENDCHAR
STARTCHAR 3077
ENCODING 12407
SWIDTH 1020 0
DWIDTH 17 0
BBX 13 15 2 -2
BITMAP
0070
3F88
0088
0088
0170
0600
4600
4600
4610
4110
8108
8108
8108
0000
0E00
ENDCHAR
STARTCHAR 3078
ENCODING 12408
SWIDTH 1020 0
DWIDTH 17 0
BBX 15 7 0 1
BITMAP
1E00
6180
6180
8040
0030
0030
000E
ENDCHAR
STARTCHAR 3079
ENCODING 12409
SWIDTH 1020 0
DWIDTH 17 0
BBX 15 11 0 1
BITMAP
0010
0010
004C
0020
1E00
6180
6180
8040
0030
0030
000E
ENDCHAR
STARTCHAR 307A
ENCODING 12410
SWIDTH 1020 0
DWIDTH 17 0
BBX 15 11 0 1
BITMAP
0030
004C
004C
004C
1E30
6180
6180
8040
0030
0030
000E
ENDCHAR
STARTCHAR 307B
ENCODING 12411
SWIDTH 1020 0
DWIDTH 17 0
BBX 14 14 2 -2
BITMAP
6FFC
6060
6060
8060
8FFC
8060
8060
8060
87E0
87E0
8870
686C
686C
6780
ENDCHAR
STARTCHAR 307C
ENCODING 12412
SWIDTH 1020 0
DWIDTH 17 0
BBX 15 15 0 -2
BITMAP
000C
6FE2
6FE2
6038
8020
8FFC
8020
8020
8020
83E0
83E0
8C38
6C2C
6C2C
63C0
ENDCHAR
STARTCHAR 307D
ENCODING 12413
SWIDTH 1020 0
DWIDTH 17 0
BBX 15 15 0 -2
BITMAP
001C
6FE2
6022
6022
803C
8FE0
8020
8020
8020
87E0
87E0
8838
682C
682C
67C0
ENDCHAR
STARTCHAR 307E
ENCODING 12414
SWIDTH 1020 0
DWIDTH 17 0
BBX 13 15 1 -2
BITMAP
0180
0180
0180
FFF8
0180
0180
3FF8
0180
0180
0180
1F80
21F0
21F8
2198
1E00
ENDCHAR
STARTCHAR 307F
ENCODING 12415
SWIDTH 1020 0
DWIDTH 17 0
BBX 15 14 0 -2
BITMAP
7F00
0110
0110
0110
0110
0110
1FF0
661C
8612
8612
8810
7020
0000
01C0
ENDCHAR
STARTCHAR 3080
ENCODING 12416
SWIDTH 1020 0
DWIDTH 17 0
BBX 14 15 2 -2
BITMAP
0800
0800
0800
FF70
080C
080C
0800
7800
8800
8800
8810
7810
7810
0810
07E0
ENDCHAR
STARTCHAR 3081
ENCODING 12417
SWIDTH 1020 0
DWIDTH 17 0
BBX 14 16 2 -2
BITMAP
0100
0100
0100
4100
4100
4FE0
3110
710C
710C
B60C
8E0C
8E0C
880C
7010
0000
00E0
ENDCHAR
STARTCHAR 3082
ENCODING 12418
SWIDTH 1020 0
DWIDTH 17 0
BBX 13 15 1 -2
BITMAP
0C00
0C00
0C00
FFE0
0C00
0C00
0C00
FFE0
1000
1018
1018
1018
0C20
0400
03C0
ENDCHAR
STARTCHAR 3083
ENCODING 12419
SWIDTH 1020 0
DWIDTH 17 0
BBX 9 11 3 -2
BITMAP
0600
4600
4600
4F00
F680
3080
3080
3100
0800
0800
0800
ENDCHAR
STARTCHAR 3084
ENCODING 12420
SWIDTH 1020 0
DWIDTH 17 0
BBX 14 15 1 -2
BITMAP
00C0
18C0
18F8
18F8
1BC4
1CC4
1CC4
E404
0238
0200
0200
0200
0100
0100
0100
ENDCHAR
STARTCHAR 3085
ENCODING 12421
SWIDTH 1020 0
DWIDTH 17 0
BBX 11 11 3 -2
BITMAP
0200
8200
8200
8FC0
9120
E120
6FC0
6FC0
6100
0000
0200
ENDCHAR
STARTCHAR 3086
ENCODING 12422
SWIDTH 1020 0
DWIDTH 17 0
BBX 13 15 2 -2
BITMAP
0080
0080
0080
87F0
8888
8888
9088
9088
6088
6088
67F0
6080
6080
0080
0700
ENDCHAR
STARTCHAR 3087
ENCODING 12423
SWIDTH 1020 0
DWIDTH 17 0
BBX 8 11 4 -2
BITMAP
08
08
08
0F
08
08
78
8E
89
00
70
ENDCHAR
STARTCHAR 3088
ENCODING 12424
SWIDTH 1020 0
DWIDTH 17 0
BBX 11 15 2 -2
BITMAP
0400
0400
0400
0400
07E0
0400
0400
0400
0400
0400
7C00
8780
8460
8420
7800
ENDCHAR
STARTCHAR 3089
ENCODING 12425
SWIDTH 1020 0
DWIDTH 17 0
BBX 11 15 3 -2
BITMAP
1800
0700
0000
0000
8000
8000
8000
8F00
F0C0
0020
0020
0020
01C0
0000
1E00
ENDCHAR
STARTCHAR 308A
ENCODING 12426
SWIDTH 1020 0
DWIDTH 17 0
BBX 8 14 4 -2
BITMAP
81
81
81
81
81
81
81
91
91
61
01
02
00
1C
ENDCHAR
STARTCHAR 308B
ENCODING 12427
SWIDTH 1020 0
DWIDTH 17 0
BBX 11 14 3 -2
BITMAP
7FC0
0100
0100
0600
0F00
0F00
70C0
8020
3820
3820
4620
46C0
46C0
3F00
ENDCHAR
STARTCHAR 308C
ENCODING 12428
SWIDTH 1020 0
DWIDTH 17 0
BBX 14 15 2 -2
BITMAP
1000
1000
1000
1000
F1E0
1610
1810
1810
1010
7020
9020
9020
1020
1000
101C
ENDCHAR
STARTCHAR 308D
ENCODING 12429
SWIDTH 1020 0
DWIDTH 17 0
BBX 11 14 3 -2
BITMAP
7F80
0100
0100
0200
0F00
0F00
7080
8060
0060
0060
0060
0180
0000
1E00
ENDCHAR
STARTCHAR 308E
ENCODING 12430
SWIDTH 1020 0
DWIDTH 17 0
BBX 9 11 3 -2
BITMAP
1000
1000
1000
F700
1880
1080
1080
7080
9080
1000
1700
ENDCHAR
STARTCHAR 308F
ENCODING 12431
SWIDTH 1020 0
DWIDTH 17 0
BBX 14 15 2 -2
BITMAP
1000
1000
1000
1000
F1E0
1610
1610
180C
100C
700C
700C
900C
1010
1000
10E0
ENDCHAR
STARTCHAR 3090
ENCODING 12432
SWIDTH 1020 0
DWIDTH 17 0
BBX 13 14 2 -2
BITMAP
7F00
0100
0100
01E0
3E10
3E10
4608
8608
8878
8878
8888
7088
7088
0070
ENDCHAR
STARTCHAR 3091
ENCODING 12433
SWIDTH 1020 0
DWIDTH 17 0
BBX 13 15 2 -2
BITMAP
7FF0
0080
0100
0100
0FE0
7010
0F10
0F10
30E0
3F80
3F80
0800
78F0
0800
8708
ENDCHAR
STARTCHAR 3092
ENCODING 12434
SWIDTH 1020 0
DWIDTH 17 0
BBX 13 15 1 -2
BITMAP
0C00
0C00
0C00
FFE0
1000
1E00
1E00
61B8
83C0
8D80
8D80
1180
1000
1000
0FE0
ENDCHAR
STARTCHAR 3093
ENCODING 12435
SWIDTH 1020 0
DWIDTH 17 0
BBX 13 14 2 -2
BITMAP
0600
0600
0600
0800
0800
0800
1700
1880
6080
6080
6088
8088
8088
8070
ENDCHAR
STARTCHAR 3094
ENCODING 12436
SWIDTH 1020 0
DWIDTH 17 0
BBX 13 17 1 -2
BITMAP
0020
3018
3018
0EC0
0020
0020
1E00
E100
E100
00C0
00C0
00C0
00C0
0100
0E00
0000
3000
ENDCHAR
STARTCHAR 309B
ENCODING 12443
SWIDTH 1020 0
DWIDTH 17 0
BBX 5 4 2 11
BITMAP
10
88
88
60
ENDCHAR
STARTCHAR 309C
ENCODING 12444
SWIDTH 1020 0
DWIDTH 17 0
BBX 5 6 2 9
BITMAP
70
88
88
88
88
70
ENDCHAR
STARTCHAR 309D
ENCODING 12445
SWIDTH 1020 0
DWIDTH 17 0
BBX 5 8 6 2
BITMAP
80
60
10
10
10
08
08
F8
ENDCHAR
STARTCHAR 309E
ENCODING 12446
SWIDTH 1020 0
DWIDTH 17 0
BBX 10 11 4 2
BITMAP
0180
0C40
0C40
8200
6000
1000
1000
1000
0C00
0C00
FC00
ENDCHAR
STARTCHAR 30A1
ENCODING 12449
SWIDTH 1020 0
DWIDTH 17 0
BBX 9 10 3 -2
BITMAP
FF80
0080
0080
0880
0900
0900
0800
3000
0000
4000
ENDCHAR
STARTCHAR 30A2
ENCODING 12450
SWIDTH 1020 0
DWIDTH 17 0
BBX 15 14 1 -2
BITMAP
FFFE
0006
0006
0008
0210
0200
0200
0200
0200
0200
0200
0400
0000
3800
ENDCHAR
STARTCHAR 30A3
ENCODING 12451
SWIDTH 1020 0
DWIDTH 17 0
BBX 8 10 4 -2
BITMAP
01
01
02
1C
1C
E4
04
04
04
04
ENDCHAR
STARTCHAR 30A4
ENCODING 12452
SWIDTH 1020 0
DWIDTH 17 0
BBX 13 14 1 -2
BITMAP
0018
0018
0020
00C0
0300
1D00
1D00
E100
0100
0100
0100
0100
0100
0100
ENDCHAR
STARTCHAR 30A5
ENCODING 12453
SWIDTH 1020 0
DWIDTH 17 0
BBX 9 11 3 -2
BITMAP
0C00
0C00
0C00
FF80
8080
8080
8080
0080
0100
0000
1E00
ENDCHAR
STARTCHAR 30A6
ENCODING 12454
SWIDTH 1020 0
DWIDTH 17 0
BBX 12 15 2 -2
BITMAP
0400
0400
0400
FFF0
8010
8010
8010
8010
0060
0060
0060
0080
0700
0000
3800
ENDCHAR
STARTCHAR 30A7
ENCODING 12455
SWIDTH 1020 0
DWIDTH 17 0
BBX 10 8 3 0
BITMAP
FFC0
0C00
0C00
0C00
0C00
0C00
0C00
FFC0
ENDCHAR
STARTCHAR 30A8
ENCODING 12456
SWIDTH 1020 0
DWIDTH 17 0
BBX 15 10 0 0
BITMAP
7FFC
0100
0100
0100
0100
0100
0100
0100
0100
FFFE
ENDCHAR
STARTCHAR 30A9
ENCODING 12457
SWIDTH 1020 0
DWIDTH 17 0
BBX 10 11 3 -2
BITMAP
0600
0600
0600
FFC0
0600
0600
0E00
1600
E600
0600
0E00
ENDCHAR
STARTCHAR 30AA
ENCODING 12458
SWIDTH 1020 0
DWIDTH 17 0
BBX 14 15 1 -2
BITMAP
0040
0040
0040
0040
FFFC
0040
0040
01C0
0240
1C40
1C40
E040
0040
0040
03C0
ENDCHAR
STARTCHAR 30AB
ENCODING 12459
SWIDTH 1020 0
DWIDTH 17 0
BBX 14 15 1 -2
BITMAP
0200
0200
0200
0200
FFFC
FFFC
0204
0204
0204
0204
0404
0404
1804
0000
E078
ENDCHAR
STARTCHAR 30AC
ENCODING 12460
SWIDTH 1020 0
DWIDTH 17 0
BBX 15 16 0 -2
BITMAP
000C
0662
0610
0610
0600
FFFC
FFFC
060C
060C
060C
060C
080C
080C
100C
0000
E0F0
ENDCHAR
STARTCHAR 30AD
ENCODING 12461
SWIDTH 1020 0
DWIDTH 17 0
BBX 14 15 1 -2
BITMAP
0200
0200
0200
0200
FFF8
0200
0200
0200
0200
0200
FFFC
0100
0100
0100
0100
ENDCHAR
STARTCHAR 30AE
ENCODING 12462
SWIDTH 1020 0
DWIDTH 17 0
BBX 15 15 0 -2
BITMAP
020C
0222
0218
0218
FFE0
0200
0200
0200
0200
0200
FFFC
0100
0100
0100
0100
ENDCHAR
STARTCHAR 30AF
ENCODING 12463
SWIDTH 1020 0
DWIDTH 17 0
BBX 11 15 3 -2
BITMAP
0800
0800
0800
0FE0
1020
6020
8020
8020
00C0
00C0
00C0
0100
0E00
0000
F000
ENDCHAR
STARTCHAR 30B0
ENCODING 12464
SWIDTH 1020 0
DWIDTH 17 0
BBX 14 17 1 -2
BITMAP
0018
0018
0CC4
0C20
0C20
0FE0
1020
6020
8020
8020
00C0
00C0
00C0
0100
0E00
0000
F000
ENDCHAR
STARTCHAR 30B1
ENCODING 12465
SWIDTH 1020 0
DWIDTH 17 0
BBX 14 15 2 -2
BITMAP
3000
3000
3000
3000
3FFC
60C0
60C0
80C0
00C0
0100
0100
0100
0E00
0000
7000
ENDCHAR
STARTCHAR 30B2
ENCODING 12466
SWIDTH 1020 0
DWIDTH 17 0
BBX 15 17 0 -2
BITMAP
000C
1022
1022
1010
1000
1000
1FFC
6040
6040
8040
0040
0180
0180
0180
0E00
0000
7000
ENDCHAR
STARTCHAR 30B3
ENCODING 12467
SWIDTH 1020 0
DWIDTH 17 0
BBX 13 12 1 -2
BITMAP
FFF8
0008
0008
0008
0008
0008
0008
0008
0008
FFF8
0008
0008
ENDCHAR
STARTCHAR 30B4
ENCODING 12468
SWIDTH 1020 0
DWIDTH 17 0
BBX 14 17 2 -2
BITMAP
0010
0010
010C
0080
0080
FFF0
0010
0010
0010
0010
0010
0010
0010
0010
FFF0
0010
0010
ENDCHAR
STARTCHAR 30B5
ENCODING 12469
SWIDTH 1020 0
DWIDTH 17 0
BBX 14 15 1 -2
BITMAP
1020
1020
1020
1020
FFFC
FFFC
1020
1020
1020
1020
00C0
00C0
0300
0000
1C00
ENDCHAR
STARTCHAR 30B6
ENCODING 12470
SWIDTH 1020 0
DWIDTH 17 0
BBX 16 15 0 -2
BITMAP
1024
1023
1023
1038
FFE4
FFE4
1020
1020
1020
1020
0040
0040
0380
0000
1C00
ENDCHAR
STARTCHAR 30B7
ENCODING 12471
SWIDTH 1020 0
DWIDTH 17 0
BBX 14 14 1 -2
BITMAP
3000
0E00
0E00
000C
E00C
E00C
1C10
0010
0010
0020
0040
0380
0000
3C00
ENDCHAR
STARTCHAR 30B8
ENCODING 12472
SWIDTH 1020 0
DWIDTH 17 0
BBX 14 17 1 -2
BITMAP
0010
004C
004C
3020
0E00
0E00
000C
E00C
E00C
1C10
0010
0010
0020
0040
0380
0000
3C00
ENDCHAR
STARTCHAR 30B9
ENCODING 12473
SWIDTH 1020 0
DWIDTH 17 0
BBX 14 14 1 -2
BITMAP
3FE0
0020
0020
0020
0020
0020
0040
0040
0040
01C0
0220
1C10
0010
E00C
ENDCHAR
STARTCHAR 30BA
ENCODING 12474
SWIDTH 1020 0
DWIDTH 17 0
BBX 15 16 0 -2
BITMAP
004C
0022
7FE0
7FE0
0020
0020
0020
0020
0040
0040
0040
01C0
0220
1C10
0010
E00C
ENDCHAR
STARTCHAR 30BB
ENCODING 12475
SWIDTH 1020 0
DWIDTH 17 0
BBX 15 15 0 -2
BITMAP
0200
0200
0200
021E
02E2
02E2
0F0C
F20C
0210
0210
0200
0200
0200
0200
01FE
ENDCHAR
STARTCHAR 30BC
ENCODING 12476
SWIDTH 1020 0
DWIDTH 17 0
BBX 15 16 0 -2
BITMAP
000C
0222
0210
021E
021E
02E2
0F0C
0F0C
F20C
0210
0210
0200
0200
0200
0200
01FE
ENDCHAR
STARTCHAR 30BD
ENCODING 12477
SWIDTH 1020 0
DWIDTH 17 0
BBX 12 14 2 -2
BITMAP
8010
8010
8010
4010
4010
4010
0010
0060
0060
0060
0080
0700
0000
3800
ENDCHAR
STARTCHAR 30BE
ENCODING 12478
SWIDTH 1020 0
DWIDTH 17 0
BBX 15 17 0 -2
BITMAP
000C
0022
0022
8010
8000
8000
6010
6010
6010
0010
0020
0020
0020
0040
0380
0000
1C00
ENDCHAR
STARTCHAR 30BF
ENCODING 12479
SWIDTH 1020 0
DWIDTH 17 0
BBX 11 15 3 -2
BITMAP
0800
0800
0800
0FE0
1020
6020
8E20
8E20
01C0
00C0
00C0
0100
0E00
0000
F000
ENDCHAR
STARTCHAR 30C0
ENCODING 12480
SWIDTH 1020 0
DWIDTH 17 0
BBX 14 17 1 -2
BITMAP
0018
0018
0CC4
0C20
0C20
0FE0
1020
6020
8E20
8E20
01C0
00C0
00C0
0100
0E00
0000
F000
ENDCHAR
STARTCHAR 30C1
ENCODING 12481
SWIDTH 1020 0
DWIDTH 17 0
BBX 15 14 0 -2
BITMAP
00FC
00FC
7F00
0100
0100
0100
FFFE
0100
0100
0100
0100
0200
0000
1C00
ENDCHAR
STARTCHAR 30C2
ENCODING 12482
SWIDTH 1020 0
DWIDTH 17 0
BBX 15 15 0 -2
BITMAP
000C
00E2
00E2
7F18
0100
0100
0100
FFFE
0100
0100
0100
0100
0200
0000
1C00
ENDCHAR
STARTCHAR 30C3
ENCODING 12483
SWIDTH 1020 0
DWIDTH 17 0
BBX 10 10 3 -2
BITMAP
88C0
88C0
88C0
88C0
0100
0100
0100
0E00
0000
7000
ENDCHAR
STARTCHAR 30C4
ENCODING 12484
SWIDTH 1020 0
DWIDTH 17 0
BBX 12 14 2 -2
BITMAP
8810
8810
8810
4410
4410
4410
0010
0060
0060
0060
0080
0700
0000
3800
ENDCHAR
STARTCHAR 30C5
ENCODING 12485
SWIDTH 1020 0
DWIDTH 17 0
BBX 15 17 0 -2
BITMAP
000C
0022
0022
8C10
8C00
8C00
6210
6210
6210
0010
0020
0020
0020
0040
0380
0000
1C00
ENDCHAR
STARTCHAR 30C6
ENCODING 12486
SWIDTH 1020 0
DWIDTH 17 0
BBX 14 14 1 -2
BITMAP
3FF8
0000
0000
0000
FFFC
0100
0100
0100
0100
0100
0100
0200
0000
1C00
ENDCHAR
STARTCHAR 30C7
ENCODING 12487
SWIDTH 1020 0
DWIDTH 17 0
BBX 15 17 0 -2
BITMAP
000C
0022
0022
7FD8
0000
0000
0000
FFFC
0100
0100
0100
0100
0100
0100
0200
0000
1C00
ENDCHAR
STARTCHAR 30C8
ENCODING 12488
SWIDTH 1020 0
DWIDTH 17 0
BBX 10 15 4 -2
BITMAP
8000
8000
8000
8000
8000
F000
8E00
8E00
81C0
8000
8000
8000
8000
8000
8000
ENDCHAR
STARTCHAR 30C9
ENCODING 12489
SWIDTH 1020 0
DWIDTH 17 0
BBX 11 15 3 -2
BITMAP
80C0
8620
8620
8100
8000
F000
8E00
8E00
81C0
8000
8000
8000
8000
8000
8000
ENDCHAR
STARTCHAR 30CA
ENCODING 12490
SWIDTH 1020 0
DWIDTH 17 0
BBX 14 15 1 -2
BITMAP
0100
0100
0100
0100
FFFC
FFFC
0100
0100
0100
0100
0200
0200
0C00
0000
3000
ENDCHAR
STARTCHAR 30CB
ENCODING 12491
SWIDTH 1020 0
DWIDTH 17 0
BBX 14 10 1 0
BITMAP
3FF8
0000
0000
0000
0000
0000
0000
0000
0000
FFFC
ENDCHAR
STARTCHAR 30CC
ENCODING 12492
SWIDTH 1020 0
DWIDTH 17 0
BBX 13 14 1 -2
BITMAP
3FF8
0018
0018
0018
0C20
0C20
0220
01C0
00C0
00C0
0120
0E18
0000
F000
ENDCHAR
STARTCHAR 30CD
ENCODING 12493
SWIDTH 1020 0
DWIDTH 17 0
BBX 16 15 0 -2
BITMAP
0100
0100
0100
7FF8
0018
0020
00C0
00C0
01C0
0F38
0F38
F107
0100
0100
0100
ENDCHAR
STARTCHAR 30CE
ENCODING 12494
SWIDTH 1020 0
DWIDTH 17 0
BBX 10 14 3 -2
BITMAP
0040
0040
0040
0040
0040
0040
0040
0180
0180
0180
0200
1C00
0000
E000
ENDCHAR
STARTCHAR 30CF
ENCODING 12495
SWIDTH 1020 0
DWIDTH 17 0
BBX 14 14 2 -2
BITMAP
1000
1000
1020
1020
1010
1010
6010
6010
600C
600C
800C
800C
800C
800C
ENDCHAR
STARTCHAR 30D0
ENCODING 12496
SWIDTH 1020 0
DWIDTH 17 0
BBX 14 15 2 -2
BITMAP
0010
008C
008C
1060
1000
1000
1000
1060
6060
6010
6010
6010
800C
800C
800C
ENDCHAR
STARTCHAR 30D1
ENCODING 12497
SWIDTH 1020 0
DWIDTH 17 0
BBX 13 15 2 -2
BITMAP
0070
0088
1088
1088
1070
1000
1000
1060
6060
6010
6010
6010
8008
8008
8008
ENDCHAR
STARTCHAR 30D2
ENCODING 12498
SWIDTH 1020 0
DWIDTH 17 0
BBX 11 15 3 -2
BITMAP
8000
8000
8000
8000
81E0
81E0
FE00
8000
8000
8000
8000
8000
8000
8000
7FE0
ENDCHAR
STARTCHAR 30D3
ENCODING 12499
SWIDTH 1020 0
DWIDTH 17 0
BBX 12 15 3 -2
BITMAP
0020
8110
80C0
80C0
8000
81E0
81E0
FE00
8000
8000
8000
8000
8000
8000
7FE0
ENDCHAR
STARTCHAR 30D4
ENCODING 12500
SWIDTH 1020 0
DWIDTH 17 0
BBX 13 15 2 -2
BITMAP
0070
8088
8088
8088
8070
8700
8700
F800
8000
8000
8000
8000
8000
8000
7FE0
ENDCHAR
STARTCHAR 30D5
ENCODING 12501
SWIDTH 1020 0
DWIDTH 17 0
BBX 13 14 1 -2
BITMAP
FFF8
0008
0008
0008
0008
0008
0008
0030
0030
0030
0040
0380
0000
3C00
ENDCHAR
STARTCHAR 30D6
ENCODING 12502
SWIDTH 1020 0
DWIDTH 17 0
BBX 16 17 0 -2
BITMAP
0004
0004
0043
0030
0030
FFF8
0008
0008
0008
0008
0030
0030
0030
0040
0380
0000
1C00
ENDCHAR
STARTCHAR 30D7
ENCODING 12503
SWIDTH 1020 0
DWIDTH 17 0
BBX 16 17 0 -2
BITMAP
000C
0000
0033
FFF3
FFF3
000C
0008
0008
0008
0008
0030
0030
0030
0040
0380
0000
1C00
ENDCHAR
STARTCHAR 30D8
ENCODING 12504
SWIDTH 1020 0
DWIDTH 17 0
BBX 15 8 0 1
BITMAP
0F80
1040
6020
6020
8010
000C
000C
0002
ENDCHAR
STARTCHAR 30D9
ENCODING 12505
SWIDTH 1020 0
DWIDTH 17 0
BBX 15 13 0 0
BITMAP
000C
0022
0022
0010
0000
0F80
0F80
1040
6020
6020
8010
000C
0002
ENDCHAR
STARTCHAR 30DA
ENCODING 12506
SWIDTH 1020 0
DWIDTH 17 0
BBX 15 13 0 0
BITMAP
001C
0022
0022
0022
001C
0F80
0F80
1040
6020
6020
8010
000C
0002
ENDCHAR
STARTCHAR 30DB
ENCODING 12507
SWIDTH 1020 0
DWIDTH 17 0
BBX 15 15 0 -2
BITMAP
0100
0100
0100
0100
FFFE
0100
0100
0100
1118
610C
610C
8102
0100
0100
0300
ENDCHAR
STARTCHAR 30DC
ENCODING 12508
SWIDTH 1020 0
DWIDTH 17 0
BBX 15 17 0 -2
BITMAP
000C
0122
0122
0118
0100
0100
FFFE
0100
0100
0100
1118
610C
610C
8102
0100
0100
0300
ENDCHAR
STARTCHAR 30DD
ENCODING 12509
SWIDTH 1020 0
DWIDTH 17 0
BBX 15 15 0 -2
BITMAP
011C
0122
0122
0122
FFFC
0100
0100
0100
1118
610C
610C
8102
0100
0100
0300
ENDCHAR
STARTCHAR 30DE
ENCODING 12510
SWIDTH 1020 0
DWIDTH 17 0
BBX 14 12 1 -2
BITMAP
FFFC
0004
0008
0008
0030
1040
1040
0D80
0200
0180
0080
0040
ENDCHAR
STARTCHAR 30DF
ENCODING 12511
SWIDTH 1020 0
DWIDTH 17 0
BBX 10 14 3 -2
BITMAP
7C00
7C00
03C0
0000
0000
0000
7C00
0300
0000
0000
0000
FC00
0400
03C0
ENDCHAR
STARTCHAR 30E0
ENCODING 12512
SWIDTH 1020 0
DWIDTH 17 0
BBX 14 16 0 -2
BITMAP
0200
0200
0200
0200
0200
0200
0C00
0C10
0C10
0C10
1010
1010
11EC
FE0C
FE0C
000C
ENDCHAR
STARTCHAR 30E1
ENCODING 12513
SWIDTH 1020 0
DWIDTH 17 0
BBX 14 15 1 -2
BITMAP
00C0
00C0
00C0
00C0
00C0
30C0
30C0
0F00
01E0
01E0
011C
0600
1800
0000
E000
ENDCHAR
STARTCHAR 30E2
ENCODING 12514
SWIDTH 1020 0
DWIDTH 17 0
BBX 15 14 0 -2
BITMAP
7FF8
0200
0200
0200
0200
0200
FFFE
0200
0200
0200
0200
0200
0200
01F8
ENDCHAR
STARTCHAR 30E3
ENCODING 12515
SWIDTH 1020 0
DWIDTH 17 0
BBX 10 11 3 -2
BITMAP
1000
1000
1000
17C0
F8C0
1100
1100
0900
0800
0800
0800
ENDCHAR
STARTCHAR 30E4
ENCODING 12516
SWIDTH 1020 0
DWIDTH 17 0
BBX 14 15 0 -2
BITMAP
0C00
0C00
0C00
0C3C
0FCC
F20C
0210
0210
0210
0200
0200
0100
0100
0100
0100
ENDCHAR
STARTCHAR 30E5
ENCODING 12517
SWIDTH 1020 0
DWIDTH 17 0
BBX 11 8 1 0
BITMAP
3F00
0100
0100
0100
0100
0100
0100
FFE0
ENDCHAR
STARTCHAR 30E6
ENCODING 12518
SWIDTH 1020 0
DWIDTH 17 0
BBX 15 10 0 0
BITMAP
1FE0
0020
0020
0020
0020
0020
0020
0020
0020
FFFE
ENDCHAR
STARTCHAR 30E7
ENCODING 12519
SWIDTH 1020 0
DWIDTH 17 0
BBX 8 10 4 -2
BITMAP
FF
01
01
01
01
FF
01
01
01
FF
ENDCHAR
STARTCHAR 30E8
ENCODING 12520
SWIDTH 1020 0
DWIDTH 17 0
BBX 11 14 3 -2
BITMAP
FFE0
0020
0020
0020
0020
0020
FFE0
0020
0020
0020
0020
FFE0
0020
0020
ENDCHAR
STARTCHAR 30E9
ENCODING 12521
SWIDTH 1020 0
DWIDTH 17 0
BBX 13 14 1 -2
BITMAP
3FF0
0000
0000
0000
FFF8
0008
0008
0008
0010
0030
0040
0380
0000
1C00
ENDCHAR
STARTCHAR 30EA
ENCODING 12522
SWIDTH 1020 0
DWIDTH 17 0
BBX 10 15 3 -2
BITMAP
80C0
80C0
80C0
80C0
80C0
80C0
80C0
80C0
00C0
00C0
0100
0100
0600
0000
3800
ENDCHAR
STARTCHAR 30EB
ENCODING 12523
SWIDTH 1020 0
DWIDTH 17 0
BBX 14 16 2 -2
BITMAP
0100
0100
1100
1100
1100
1100
1100
110C
110C
110C
6110
6110
6110
8120
8120
8180
ENDCHAR
STARTCHAR 30EC
ENCODING 12524
SWIDTH 1020 0
DWIDTH 17 0
BBX 11 14 3 -2
BITMAP
8000
8000
8000
8000
8000
8000
8000
8060
8060
8080
8100
8E00
8000
F000
ENDCHAR
STARTCHAR 30ED
ENCODING 12525
SWIDTH 1020 0
DWIDTH 17 0
BBX 12 12 2 -2
BITMAP
FFF0
8010
8010
8010
8010
8010
8010
8010
8010
FFF0
8010
8010
ENDCHAR
STARTCHAR 30EE
ENCODING 12526
SWIDTH 1020 0
DWIDTH 17 0
BBX 9 10 3 -2
BITMAP
FF80
8080
8080
8080
0080
0080
0080
0100
0000
1E00
ENDCHAR
STARTCHAR 30EF
ENCODING 12527
SWIDTH 1020 0
DWIDTH 17 0
BBX 12 14 2 -2
BITMAP
FFF0
8010
8010
8010
8010
8010
0010
0060
0060
0060
0080
0700
0000
3800
ENDCHAR
STARTCHAR 30F0
ENCODING 12528
SWIDTH 1020 0
DWIDTH 17 0
BBX 14 15 1 -2
BITMAP
00C0
00C0
00C0
00C0
3FF8
10C0
10C0
10C0
10C0
10C0
FFFC
00C0
00C0
00C0
00C0
ENDCHAR
STARTCHAR 30F1
ENCODING 12529
SWIDTH 1020 0
DWIDTH 17 0
BBX 14 10 1 0
BITMAP
3FF8
0020
0040
0040
0380
0200
0200
0200
0200
FFFC
ENDCHAR
STARTCHAR 30F2
ENCODING 12530
SWIDTH 1020 0
DWIDTH 17 0
BBX 11 14 3 -2
BITMAP
FFE0
0020
0020
0020
FFE0
0020
0020
00C0
00C0
00C0
0100
0E00
0000
7000
ENDCHAR
STARTCHAR 30F3
ENCODING 12531
SWIDTH 1020 0
DWIDTH 17 0
BBX 12 14 3 -2
BITMAP
E000
1800
1800
0010
0010
0010
0020
0020
0020
00C0
0100
0E00
0000
F000
ENDCHAR
STARTCHAR 30F4
ENCODING 12532
SWIDTH 1020 0
DWIDTH 17 0
BBX 14 17 2 -2
BITMAP
0010
0010
048C
0460
0460
FFF0
8010
8010
8010
8010
0060
0060
0060
0080
0700
0000
3800
ENDCHAR
STARTCHAR 30F5
ENCODING 12533
SWIDTH 1020 0
DWIDTH 17 0
BBX 9 11 3 -2
BITMAP
3000
3000
3000
FF80
3080
3080
3080
3080
4080
4080
4700
ENDCHAR
STARTCHAR 30F6
ENCODING 12534
SWIDTH 1020 0
DWIDTH 17 0
BBX 10 11 3 -2
BITMAP
6000
6000
6000
7FC0
8600
8600
8600
0600
0800
0000
7000
ENDCHAR
STARTCHAR 30FB
ENCODING 12539
SWIDTH 1020 0
DWIDTH 17 0
BBX 3 3 5 4
BITMAP
E0
E0
E0
ENDCHAR
STARTCHAR 30FC
ENCODING 12540
SWIDTH 1020 0
DWIDTH 17 0
BBX 12 3 2 5
BITMAP
8000
8000
7FF0
ENDCHAR
STARTCHAR 30FD
ENCODING 12541
SWIDTH 1020 0
DWIDTH 17 0
BBX 6 9 4 2
BITMAP
80
80
60
10
10
10
0C
0C
0C
ENDCHAR
STARTCHAR 30FE
ENCODING 12542
SWIDTH 1020 0
DWIDTH 17 0
BBX 11 11 3 2
BITMAP
0080
0260
8100
8100
6000
1000
1000
1000
0C00
0C00
0C00
ENDCHAR
STARTCHAR 30FF
ENCODING 12543
SWIDTH 1020 0
DWIDTH 17 0
BBX 11 13 3 -1
BITMAP
FFE0
0020
0020
0020
0020
0020
0020
0020
0020
0020
0020
0020
0020
ENDCHAR
STARTCHAR 3231
ENCODING 12849
SWIDTH 1020 0
DWIDTH 17 0
BBX 15 15 0 -2
BITMAP
1018
6D24
8D22
8D22
FFFE
8D22
8D22
9DFE
EE22
8CFA
8CFA
8D26
6C24
6C24
1018
ENDCHAR
STARTCHAR 3232
ENCODING 12850
SWIDTH 1020 0
DWIDTH 17 0
BBX 15 15 0 -2
BITMAP
1018
6204
6204
9FFA
8202
83E2
8E22
8E22
93E2
8222
8222
83E2
6224
0008
1018
ENDCHAR
STARTCHAR 3239
ENCODING 12857
SWIDTH 1020 0
DWIDTH 17 0
BBX 15 15 0 -2
BITMAP
1010
624C
8252
8252
8C42
8FF2
9C42
9C42
EC42
8C42
8C42
8C42
6C2C
0010
1010
ENDCHAR
STARTCHAR 32A4
ENCODING 12964
SWIDTH 1020 0
DWIDTH 17 0
BBX 15 15 0 -2
BITMAP
03C0
1C38
6184
6184
6184
81E2
81E2
8182
8182
8182
7FFC
6004
1C38
0000
03C0
ENDCHAR
STARTCHAR 32A5
ENCODING 12965
SWIDTH 1020 0
DWIDTH 17 0
BBX 15 15 0 -2
BITMAP
03C0
1C38
6184
6184
7FFC
919A
919A
919A
9FFA
6184
6184
6184
1C38
0000
03C0
ENDCHAR
STARTCHAR 32A6
ENCODING 12966
SWIDTH 1020 0
DWIDTH 17 0
BBX 15 15 0 -2
BITMAP
03C0
1C38
6004
6004
7FFC
8182
81C2
81C2
81A2
6184
6184
6184
1C38
0000
03C0
ENDCHAR
STARTCHAR 32A7
ENCODING 12967
SWIDTH 1020 0
DWIDTH 17 0
BBX 15 15 0 -2
BITMAP
03C0
1C38
6204
6204
7FFC
8202
83E2
83E2
8C42
7044
7044
63FC
1C38
1C38
03C0
ENDCHAR
STARTCHAR 32A8
ENCODING 12968
SWIDTH 1020 0
DWIDTH 17 0
BBX 15 15 0 -2
BITMAP
03C0
1C38
6204
6204
7FFC
8202
8FE2
8FE2
9222
6224
6224
63E4
1C38
0000
03C0
ENDCHAR
STARTCHAR 3303
ENCODING 13059
SWIDTH 1020 0
DWIDTH 17 0
BBX 15 15 0 -2
BITMAP
FF00
0100
1200
1200
10FE
1000
1000
6000
0C00
6C00
6C80
6C80
6C80
0C00
8F00
ENDCHAR
STARTCHAR 330D
ENCODING 13069
SWIDTH 1020 0
DWIDTH 17 0
BBX 15 16 0 -2
BITMAP
6000
6000
FEFE
6282
6282
6282
8EFE
0000
0000
6200
6200
6200
62FE
0200
0200
1C00
ENDCHAR
STARTCHAR 3314
ENCODING 13076
SWIDTH 1020 0
DWIDTH 17 0
BBX 15 16 0 -2
BITMAP
1000
1000
FE00
1000
1000
1000
FF00
0C00
0C00
0CFE
00C2
00C2
00C2
00C2
00C2
00FE
ENDCHAR
STARTCHAR 3318
ENCODING 13080
SWIDTH 1020 0
DWIDTH 17 0
BBX 15 15 0 -2
BITMAP
6D3C
7E00
7E00
82FE
0202
0C02
0C02
F03C
1000
1000
1000
6200
6100
6100
FF00
ENDCHAR
STARTCHAR 3322
ENCODING 13090
SWIDTH 1020 0
DWIDTH 17 0
BBX 15 15 0 -2
BITMAP
60C0
FE22
6202
6202
6004
1EF8
0000
0000
7E00
0C00
0C00
FF00
0C00
0C00
7000
ENDCHAR
STARTCHAR 3323
ENCODING 13091
SWIDTH 1020 0
DWIDTH 17 0
BBX 16 15 0 -2
BITMAP
2040
FE33
2203
2203
2004
1E78
0000
0000
2000
2000
2000
3E00
2000
2000
2000
ENDCHAR
STARTCHAR 3326
ENCODING 13094
SWIDTH 1020 0
DWIDTH 17 0
BBX 14 15 2 -2
BITMAP
9600
9600
8000
8000
F800
8000
8000
8120
8120
8120
0120
012C
012C
012C
0630
ENDCHAR
STARTCHAR 3327
ENCODING 13095
SWIDTH 1020 0
DWIDTH 17 0
BBX 13 15 2 -2
BITMAP
8000
8000
8000
8000
F800
F800
8000
8000
8708
8708
0088
0008
0010
0000
07E0
ENDCHAR
STARTCHAR 332B
ENCODING 13099
SWIDTH 1020 0
DWIDTH 17 0
BBX 15 15 0 -2
BITMAP
68C0
6920
68C0
68C0
663E
8600
8600
0000
6624
F924
F924
6826
6024
6024
79C4
ENDCHAR
STARTCHAR 3336
ENCODING 13110
SWIDTH 1020 0
DWIDTH 17 0
BBX 15 15 0 -2
BITMAP
0020
703E
88E2
88E2
8602
0104
6038
6038
7804
8824
8824
6824
17E4
E026
E026
ENDCHAR
STARTCHAR 333B
ENCODING 13115
SWIDTH 1020 0
DWIDTH 17 0
BBX 15 15 0 -2
BITMAP
0180
7240
7240
8D80
823E
0180
0000
0000
E050
0250
0250
E200
0C00
0000
F000
ENDCHAR
STARTCHAR 3349
ENCODING 13129
SWIDTH 1020 0
DWIDTH 17 0
BBX 15 15 0 -2
BITMAP
F000
0E00
F000
F000
0E00
F000
F000
0E42
0042
0042
0042
0042
0004
0000
0038
ENDCHAR
STARTCHAR 334A
ENCODING 13130
SWIDTH 1020 0
DWIDTH 17 0
BBX 15 15 0 -2
BITMAP
FC44
0044
0044
FC44
0004
FC38
0000
0000
9224
8024
8024
93E4
8C24
8C24
8C26
ENDCHAR
STARTCHAR 334D
ENCODING 13133
SWIDTH 1020 0
DWIDTH 17 0
BBX 15 15 0 -2
BITMAP
0200
6200
6200
1CFE
0E00
F100
0000
0000
60D0
60D0
60D0
7ED0
60D2
6010
611C
ENDCHAR
STARTCHAR 3351
ENCODING 13137
SWIDTH 1020 0
DWIDTH 17 0
BBX 15 15 0 -2
BITMAP
8800
88D2
88D2
88D2
0802
703C
0000
0000
8110
8110
8110
F910
8112
8110
811C
ENDCHAR
STARTCHAR 3357
ENCODING 13143
SWIDTH 1020 0
DWIDTH 17 0
BBX 15 15 0 -2
BITMAP
FE00
825A
825A
825A
0202
7C3C
0000
0000
6000
6000
6000
7E00
6000
6000
6000
ENDCHAR
STARTCHAR 337B
ENCODING 13179
SWIDTH 1020 0
DWIDTH 17 0
BBX 15 15 0 -2
BITMAP
0012
FE7E
1050
1050
9252
9252
926C
926C
106C
FFAC
FFAC
11AC
1272
1272
1212
ENDCHAR
STARTCHAR 337C
ENCODING 13180
SWIDTH 1020 0
DWIDTH 17 0
BBX 15 15 0 -2
BITMAP
7DE0
1240
F25E
F25E
93F2
9E52
9E52
F052
9FD2
9FD2
9272
9252
F252
1252
1E5E
ENDCHAR
STARTCHAR 337D
ENCODING 13181
SWIDTH 1020 0
DWIDTH 17 0
BBX 15 15 0 -2
BITMAP
1000
11FE
1010
1010
FE10
1050
1050
105E
6C50
6C50
6C50
6C50
8250
8250
83FE
ENDCHAR
STARTCHAR 337E
ENCODING 13182
SWIDTH 1020 0
DWIDTH 17 0
BBX 15 15 0 -2
BITMAP
1E10
F310
92D0
9250
9E22
F322
F322
927E
9E00
9E00
F23E
1262
13A2
0222
623E
ENDCHAR
STARTCHAR 338E
ENCODING 13198
SWIDTH 1020 0
DWIDTH 17 0
BBX 15 11 0 -2
BITMAP
000E
FC30
FC30
924C
9230
9230
9240
923C
9242
0040
003C
ENDCHAR
STARTCHAR 338F
ENCODING 13199
SWIDTH 1020 0
DWIDTH 17 0
BBX 15 14 0 -2
BITMAP
8000
8000
8000
800E
8C30
8C30
904C
E030
E030
9040
8C3C
8242
0040
003C
ENDCHAR
STARTCHAR 339C
ENCODING 13212
SWIDTH 1020 0
DWIDTH 17 0
BBX 15 8 0 -1
BITMAP
FC7C
9252
9252
9252
9252
9252
9252
9252
ENDCHAR
STARTCHAR 339D
ENCODING 13213
SWIDTH 1020 0
DWIDTH 17 0
BBX 15 8 0 0
BITMAP
7C7C
7C7C
8252
8052
8052
8052
8252
7C52
ENDCHAR
STARTCHAR 339E
ENCODING 13214
SWIDTH 1020 0
DWIDTH 17 0
BBX 15 13 0 -1
BITMAP
8000
8000
8000
8000
8000
8C7C
9052
E052
E052
9052
8C52
8C52
8252
ENDCHAR
STARTCHAR 33A1
ENCODING 13217
SWIDTH 1020 0
DWIDTH 17 0
BBX 16 14 0 -1
BITMAP
001C
0023
0023
0004
0018
FF3F
FF3F
8840
8840
8840
8840
8840
8840
8840
ENDCHAR
STARTCHAR 33C4
ENCODING 13252
SWIDTH 1020 0
DWIDTH 17 0
BBX 15 8 0 0
BITMAP
7C3C
7C3C
8242
8040
8040
8040
8242
7C3C
ENDCHAR
STARTCHAR 33CD
ENCODING 13261
SWIDTH 1020 0
DWIDTH 17 0
BBX 12 13 2 -1
BITMAP
8910
8910
8910
9120
9120
9120
C180
B160
9120
9120
8910
8910
8910
ENDCHAR
STARTCHAR 4E00
ENCODING 19968
SWIDTH 1020 0
DWIDTH 17 0
BBX 15 3 0 5
BITMAP
0002
0002
FFFE
ENDCHAR
STARTCHAR 4E01
ENCODING 19969
SWIDTH 1020 0
DWIDTH 17 0
BBX 15 15 0 -2
BITMAP
FFFE
00C0
00C0
00C0
00C0
00C0
00C0
00C0
00C0
00C0
00C0
00C0
00C0
00C0
0FC0
ENDCHAR
STARTCHAR 4E03
ENCODING 19971
SWIDTH 1020 0
DWIDTH 17 0
BBX 15 17 0 -2
BITMAP
0800
0800
0800
0800
081E
081E
0FE0
F800
F800
0800
0800
0800
0800
080C
080C
080C
07FC
ENDCHAR
STARTCHAR 4E07
ENCODING 19975
SWIDTH 1020 0
DWIDTH 17 0
BBX 15 15 0 -2
BITMAP
FFFE
0200
0200
0200
0200
03FC
020C
020C
0C0C
0C0C
0C0C
100C
1018
1018
01E0
ENDCHAR
STARTCHAR 4E08
ENCODING 19976
SWIDTH 1020 0
DWIDTH 17 0
BBX 15 17 0 -2
BITMAP
0040
0040
0040
0040
0040
FFFE
0040
0040
0040
0C40
0240
0240
0180
0240
1C30
0010
E00E
ENDCHAR
STARTCHAR 4E09
ENCODING 19977
SWIDTH 1020 0
DWIDTH 17 0
BBX 15 14 0 -2
BITMAP
7FFC
0000
0000
0000
0000
0000
1FF8
0000
0000
0000
0000
0002
0002
FFFE
ENDCHAR
STARTCHAR 4E0A
ENCODING 19978
SWIDTH 1020 0
DWIDTH 17 0
BBX 15 17 0 -2
BITMAP
0100
0100
0100
0100
0100
0100
01FC
0100
0100
0100
0100
0100
0100
0100
0100
0100
FFFE
ENDCHAR
STARTCHAR 4E0B
ENCODING 19979
SWIDTH 1020 0
DWIDTH 17 0
BBX 15 15 0 -2
BITMAP
FFFE
0100
0100
0100
0100
01E0
01E0
011C
0100
0100
0100
0100
0100
0100
0100
ENDCHAR
STARTCHAR 4E0D
ENCODING 19981
SWIDTH 1020 0
DWIDTH 17 0
BBX 15 15 0 -2
BITMAP
FFFE
0020
0040
00C0
0100
0320
0320
1D18
E104
E104
0102
0100
0100
0100
0100
ENDCHAR
STARTCHAR 4E0E
ENCODING 19982
SWIDTH 1020 0
DWIDTH 17 0
BBX 15 17 0 -2
BITMAP
0C00
0C00
0C00
0FFC
0C00
0C00
0C00
0FF8
0018
0018
FFFE
0018
0018
0018
0020
0000
03C0
ENDCHAR
STARTCHAR 4E10
ENCODING 19984
SWIDTH 1020 0
DWIDTH 17 0
BBX 15 15 0 -2
BITMAP
FFFE
0100
0100
0100
61FC
6100
6100
6100
7FFE
8002
8002
8002
000C
0000
00F8
ENDCHAR
STARTCHAR 4E11
ENCODING 19985
SWIDTH 1020 0
DWIDTH 17 0
BBX 15 15 0 -2
BITMAP
7FF8
0218
0218
0218
0218
0218
0218
FFFE
0C20
0C20
0C20
0C20
0C20
0C20
FFFE
ENDCHAR
STARTCHAR 4E14
ENCODING 19988
SWIDTH 1020 0
DWIDTH 17 0
BBX 15 15 0 -2
BITMAP
1FF8
1018
1018
1018
1FF8
1018
1018
1018
1FF8
1018
1018
1018
1018
1018
FFFE
ENDCHAR
STARTCHAR 4E15
ENCODING 19989
SWIDTH 1020 0
DWIDTH 17 0
BBX 15 15 0 -2
BITMAP
FFFE
0020
00C0
00C0
0100
0318
0318
1D0C
E102
0100
0100
0100
0000
0000
FFFE
ENDCHAR
STARTCHAR 4E16
ENCODING 19990
SWIDTH 1020 0
DWIDTH 17 0
BBX 15 17 0 -2
BITMAP
0100
0100
1118
1118
1118
1118
FFFE
1118
1118
1118
1118
1118
11F8
1000
1000
1000
1FFC
ENDCHAR
STARTCHAR 4E17
ENCODING 19991
SWIDTH 1020 0
DWIDTH 17 0
BBX 15 15 0 -2
BITMAP
610C
610C
610C
610C
610C
FFFE
610C
610C
610C
610C
610C
610C
610C
610C
7FFC
ENDCHAR
STARTCHAR 4E18
ENCODING 19992
SWIDTH 1020 0
DWIDTH 17 0
BBX 15 15 0 -2
BITMAP
0038
1FC0
1000
1000
1000
1FFC
1020
1020
1020
1020
1020
1020
1020
1020
FFFE
ENDCHAR
STARTCHAR 4E19
ENCODING 19993
SWIDTH 1020 0
DWIDTH 17 0
BBX 15 15 0 -2
BITMAP
FFFE
0180
0180
0180
FFFE
8182
8182
8182
8242
8C22
8C22
9012
8002
8002
800E
ENDCHAR
STARTCHAR 4E1E
ENCODING 19998
SWIDTH 1020 0
DWIDTH 17 0
BBX 15 15 0 -2
BITMAP
1FF8
0020
00C0
00C0
FD22
0D2C
0D2C
1118
610C
8102
8102
0F00
0000
0000
FFFE
ENDCHAR
STARTCHAR 4E21
ENCODING 20001
SWIDTH 1020 0
DWIDTH 17 0
BBX 15 15 0 -2
BITMAP
FFFE
0100
0100
0100
FFFE
8102
8102
9112
9112
9112
9112
9FF2
8002
8002
800E
ENDCHAR
STARTCHAR 4E26
ENCODING 20006
SWIDTH 1020 0
DWIDTH 17 0
BBX 14 17 1 -2
BITMAP
1020
1020
0C20
00C0
00C0
FFFC
0CC0
0CC0
0CC0
CCC4
2CD8
0CC0
0CC0
0CC0
0CC0
0CC0
FFFC
ENDCHAR
STARTCHAR 4E2A
ENCODING 20010
SWIDTH 1020 0
DWIDTH 17 0
BBX 15 17 0 -2
BITMAP
03C0
0C20
0C20
1018
6104
6104
8102
0100
0100
0100
0100
0100
0100
0100
0100
0100
0100
ENDCHAR
STARTCHAR 4E2D
ENCODING 20013
SWIDTH 1020 0
DWIDTH 17 0
BBX 15 17 0 -2
BITMAP
0100
0100
0100
0100
0100
FFFE
8102
8102
8102
8102
FFFE
0100
0100
0100
0100
0100
0100
ENDCHAR
STARTCHAR 4E31
ENCODING 20017
SWIDTH 1020 0
DWIDTH 17 0
BBX 15 17 0 -2
BITMAP
0020
0020
0620
8622
8622
8622
8622
8622
8622
8622
FE3E
8622
8622
0620
0820
0020
7020
ENDCHAR
STARTCHAR 4E32
ENCODING 20018
SWIDTH 1020 0
DWIDTH 17 0
BBX 15 17 0 -2
BITMAP
0100
0100
0100
7FFC
6104
6104
6104
7FFC
0100
0100
FFFE
8102
8102
FFFE
0100
0100
0100
ENDCHAR
STARTCHAR 4E36
ENCODING 20022
SWIDTH 1020 0
DWIDTH 17 0
BBX 7 4 4 4
BITMAP
E0
1C
1C
02
ENDCHAR
STARTCHAR 4E38
ENCODING 20024
SWIDTH 1020 0
DWIDTH 17 0
BBX 15 17 0 -2
BITMAP
0C00
0C00
0C00
0C00
0C00
FFE0
0C20
0C20
0C20
6C20
1C20
1C20
0C20
1222
6122
0022
803E
ENDCHAR
STARTCHAR 4E39
ENCODING 20025
SWIDTH 1020 0
DWIDTH 17 0
BBX 15 15 0 -2
BITMAP
1FFC
100C
110C
110C
10CC
100C
100C
FFFE
100C
100C
100C
100C
600C
600C
603C
ENDCHAR
STARTCHAR 4E3B
ENCODING 20027
SWIDTH 1020 0
DWIDTH 17 0
BBX 15 17 0 -2
BITMAP
0200
0200
0100
0000
0000
FFFE
0100
0100
0100
0100
7FFC
0100
0100
0100
0100
0100
FFFE
ENDCHAR
STARTCHAR 4E3C
ENCODING 20028
SWIDTH 1020 0
DWIDTH 17 0
BBX 15 17 0 -2
BITMAP
0C20
0C20
0C20
0C20
0C20
FFFE
0C20
0E20
0E20
0D20
0C20
0C20
FFFE
1020
6020
6020
6020
ENDCHAR
STARTCHAR 4E3F
ENCODING 20031
SWIDTH 1020 0
DWIDTH 17 0
BBX 9 15 1 -2
BITMAP
0180
0180
0180
0180
0180
0180
0180
0180
0180
0180
0200
0200
1C00
0000
E000
ENDCHAR
STARTCHAR 4E42
ENCODING 20034
SWIDTH 1020 0
DWIDTH 17 0
BBX 15 15 0 -2
BITMAP
0010
1010
1010
1010
0C20
0C20
0C20
0240
0240
0240
0180
0240
1C30
0000
E00E
ENDCHAR
STARTCHAR 4E43
ENCODING 20035
SWIDTH 1020 0
DWIDTH 17 0
BBX 14 15 2 -2
BITMAP
FFE0
0820
0820
0820
0820
083C
100C
100C
100C
600C
600C
600C
8010
8010
81E0
ENDCHAR
STARTCHAR 4E45
ENCODING 20037
SWIDTH 1020 0
DWIDTH 17 0
BBX 15 17 0 -2
BITMAP
0C00
0C00
0C00
0FF0
0C10
0C10
1010
1020
1020
0020
0040
0040
01A0
0210
1C0C
0000
E002
ENDCHAR
STARTCHAR 4E4B
ENCODING 20043
SWIDTH 1020 0
DWIDTH 17 0
BBX 16 17 0 -2
BITMAP
0100
0100
0100
0100
0100
7FFC
0004
0018
0020
0020
10C0
1100
1100
6E00
81C0
8040
803F
ENDCHAR
STARTCHAR 4E4D
ENCODING 20045
SWIDTH 1020 0
DWIDTH 17 0
BBX 15 17 0 -2
BITMAP
1000
1000
1000
1FFE
1100
1100
6100
61FC
8100
8100
8100
8100
01FE
0100
0100
0100
0100
ENDCHAR
STARTCHAR 4E4E
ENCODING 20046
SWIDTH 1020 0
DWIDTH 17 0
BBX 15 15 0 -2
BITMAP
00FC
7F00
0100
0100
610C
1118
0100
0100
FFFE
0100
0100
0100
0100
0100
0F00
ENDCHAR
STARTCHAR 4E4F
ENCODING 20047
SWIDTH 1020 0
DWIDTH 17 0
BBX 15 15 0 -2
BITMAP
00FC
7F00
0100
0100
0100
FFFC
0010
0010
0020
10C0
10C0
1100
6E00
0200
81FE
ENDCHAR
STARTCHAR 4E55
ENCODING 20053
SWIDTH 1020 0
DWIDTH 17 0
BBX 15 15 0 -2
BITMAP
7FFE
6040
6040
7FFE
6040
7FFE
6040
6040
6FFE
6842
6842
8842
884E
884E
0040
ENDCHAR
STARTCHAR 4E56
ENCODING 20054
SWIDTH 1020 0
DWIDTH 17 0
BBX 15 15 0 -2
BITMAP
7FFC
0100
0100
FFFE
0100
0922
F924
F924
0938
0920
0920
1922
E91E
0100
0100
ENDCHAR
STARTCHAR 4E57
ENCODING 20055
SWIDTH 1020 0
DWIDTH 17 0
BBX 15 15 0 -2
BITMAP
7FFC
0100
0100
7FFC
1110
FFFE
1110
1110
1110
1110
7FFC
0320
1D10
0110
E10E
ENDCHAR
STARTCHAR 4E58
ENCODING 20056
SWIDTH 1020 0
DWIDTH 17 0
BBX 16 15 0 -2
BITMAP
7FFC
0100
0100
FFFF
0D20
FD27
FD27
0D38
1D23
1D23
ED1F
03C0
1D38
0108
E107
ENDCHAR
STARTCHAR 4E59
ENCODING 20057
SWIDTH 1020 0
DWIDTH 17 0
BBX 12 15 2 -2
BITMAP
FFE0
0020
00C0
00C0
0100
0600
0600
0800
1000
6010
8010
8010
8010
8000
7FE0
ENDCHAR
STARTCHAR 4E5D
ENCODING 20061
SWIDTH 1020 0
DWIDTH 17 0
BBX 15 17 0 -2
BITMAP
0600
0600
0600
0600
FFE0
FFE0
0620
0620
0620
0620
0620
0820
0820
0822
1022
0022
E01E
ENDCHAR
STARTCHAR 4E5E
ENCODING 20062
SWIDTH 1020 0
DWIDTH 17 0
BBX 15 17 0 -2
BITMAP
6000
6000
6000
7FFE
6000
6000
8FF8
8018
8018
00E0
0300
1C02
6002
6002
6002
2000
1FFC
ENDCHAR
STARTCHAR 4E5F
ENCODING 20063
SWIDTH 1020 0
DWIDTH 17 0
BBX 15 17 0 -2
BITMAP
0100
0100
0100
111C
11E4
11E4
1F04
F104
F104
1104
111C
1100
1100
1102
1002
1002
0FFE
ENDCHAR
STARTCHAR 4E62
ENCODING 20066
SWIDTH 1020 0
DWIDTH 17 0
BBX 15 17 0 -2
BITMAP
0040
0040
1040
1040
1040
1040
9240
9240
9240
9240
9240
9242
9242
9242
FE42
0002
003E
ENDCHAR
STARTCHAR 4E71
ENCODING 20081
SWIDTH 1020 0
DWIDTH 17 0
BBX 15 15 0 -2
BITMAP
0320
FC20
FC20
1020
1020
FF20
FF20
1020
1020
FF20
FF20
8122
8122
8122
FF1E
ENDCHAR
STARTCHAR 4E73
ENCODING 20083
SWIDTH 1020 0
DWIDTH 17 0
BBX 15 16 0 -2
BITMAP
FED0
FED0
10D0
8D10
8D10
6110
0010
0010
7E10
0210
0C10
0C10
FFD2
0C12
0C12
1C1E
ENDCHAR
STARTCHAR 4E7E
ENCODING 20094
SWIDTH 1020 0
DWIDTH 17 0
BBX 15 17 0 -2
BITMAP
00C0
00C0
10C0
FEFE
10C0
10C0
FF00
82FE
82FE
FE04
8218
8218
FE20
10C2
FF02
1102
11FE
ENDCHAR
STARTCHAR 4E80
ENCODING 20096
SWIDTH 1020 0
DWIDTH 17 0
BBX 15 15 0 -2
BITMAP
1FE0
60C0
60C0
FFF8
6218
7FFC
6204
6204
FFFC
8204
8204
FFFC
8202
8202
01FE
ENDCHAR
STARTCHAR 4E82
ENCODING 20098
SWIDTH 1020 0
DWIDTH 17 0
BBX 15 15 0 -2
BITMAP
FFD0
9190
8C50
8C50
7F90
0210
0210
FFD0
9050
9050
FFD0
9252
8C52
8052
93DE
ENDCHAR
STARTCHAR 4E85
ENCODING 20101
SWIDTH 1020 0
DWIDTH 17 0
BBX 5 15 3 -2
BITMAP
08
08
08
08
08
08
08
08
08
08
08
08
08
08
F8
ENDCHAR
STARTCHAR 4E86
ENCODING 20102
SWIDTH 1020 0
DWIDTH 17 0
BBX 14 15 0 -2
BITMAP
FFFC
0018
0020
0020
00C0
0100
0100
0100
0100
0100
0100
0100
0100
0100
0F00
ENDCHAR
STARTCHAR 4E88
ENCODING 20104
SWIDTH 1020 0
DWIDTH 17 0
BBX 15 15 0 -2
BITMAP
7FF8
0020
0040
00C0
0100
FFFE
010C
010C
0118
0100
0100
0100
0100
0100
0F00
ENDCHAR
STARTCHAR 4E89
ENCODING 20105
SWIDTH 1020 0
DWIDTH 17 0
BBX 15 15 0 -2
BITMAP
0FF8
1020
60C0
60C0
7FFC
010C
010C
FFFE
010C
010C
7FFC
0100
0100
0100
0F00
ENDCHAR
STARTCHAR 4E8A
ENCODING 20106
SWIDTH 1020 0
DWIDTH 17 0
BBX 15 17 0 -2
BITMAP
0100
0100
0100
FFFE
1118
1118
0D20
7FFC
010C
010C
FFFE
010C
010C
7FFC
0100
0100
0F00
ENDCHAR
STARTCHAR 4E8B
ENCODING 20107
SWIDTH 1020 0
DWIDTH 17 0
BBX 15 17 0 -2
BITMAP
0100
0100
0100
FFFE
1118
1118
1118
7FFC
010C
010C
FFFE
010C
010C
7FFC
0100
0100
0F00
ENDCHAR
STARTCHAR 4E8C
ENCODING 20108
SWIDTH 1020 0
DWIDTH 17 0
BBX 15 10 0 0
BITMAP
7FFC
0000
0000
0000
0000
0000
0000
0000
0002
FFFE
ENDCHAR
STARTCHAR 4E8E
ENCODING 20110
SWIDTH 1020 0
DWIDTH 17 0
BBX 15 15 0 -2
BITMAP
7FFC
0100
0100
0100
0100
0100
0100
FFFE
0100
0100
0100
0100
0100
0100
0F00
ENDCHAR
STARTCHAR 4E91
ENCODING 20113
SWIDTH 1020 0
DWIDTH 17 0
BBX 15 15 0 -2
BITMAP
7FFC
0000
0000
0000
0000
FFFE
0C00
0C00
0C18
1018
1018
1018
60EC
600C
7F0C
ENDCHAR
STARTCHAR 4E92
ENCODING 20114
SWIDTH 1020 0
DWIDTH 17 0
BBX 15 15 0 -2
BITMAP
FFFE
0100
0200
0200
03F8
0C18
0C18
0C20
1020
1020
1FC0
00C0
0100
0100
FFFE
ENDCHAR
STARTCHAR 4E94
ENCODING 20116
SWIDTH 1020 0
DWIDTH 17 0
BBX 15 15 0 -2
BITMAP
7FFC
0100
0100
0100
0100
1FF8
0218
0218
0218
0C18
0C18
0C18
0C18
0C18
FFFE
ENDCHAR
STARTCHAR 4E95
ENCODING 20117
SWIDTH 1020 0
DWIDTH 17 0
BBX 15 17 0 -2
BITMAP
0C20
0C20
0C20
0C20
0C20
FFFE
0C20
0C20
0C20
0C20
FFFE
1020
1020
1020
6020
6020
6020
ENDCHAR
STARTCHAR 4E98
ENCODING 20120
SWIDTH 1020 0
DWIDTH 17 0
BBX 15 15 0 -2
BITMAP
FFFE
0000
0000
1FF8
1018
1FF8
1018
1018
1018
1018
1FF8
0000
0000
0000
FFFE
ENDCHAR
STARTCHAR 4E99
ENCODING 20121
SWIDTH 1020 0
DWIDTH 17 0
BBX 15 15 0 -2
BITMAP
FFFE
0200
0200
0200
03F8
0D18
0D18
0CD8
1220
1120
1120
00C0
00C0
00C0
FFFE
ENDCHAR
STARTCHAR 4E9B
ENCODING 20123
SWIDTH 1020 0
DWIDTH 17 0
BBX 15 17 0 -2
BITMAP
00C0
00C0
10CE
9EF8
90C0
90C0
90C2
9FC2
9FC2
F0FE
0000
0000
1FF8
0000
0000
0000
FFFE
ENDCHAR
STARTCHAR 4E9C
ENCODING 20124
SWIDTH 1020 0
DWIDTH 17 0
BBX 15 15 0 -2
BITMAP
FFFE
02C0
02C0
02C0
7FFC
62CC
62CC
62CC
62CC
62CC
7FFC
02C0
02C0
02C0
FFFE
ENDCHAR
STARTCHAR 4E9E
ENCODING 20126
SWIDTH 1020 0
DWIDTH 17 0
BBX 15 15 0 -2
BITMAP
FFFE
02C0
02C0
02C0
7EFC
600C
600C
600C
7EFC
02C0
02C0
02C0
02C0
02C0
FFFE
ENDCHAR
STARTCHAR 4E9F
ENCODING 20127
SWIDTH 1020 0
DWIDTH 17 0
BBX 15 15 0 -2
BITMAP
FFFE
0200
0C00
0C00
0F3E
FD02
8D22
8D22
8D2C
FD1C
FD1C
01E2
0200
0200
FFFE
ENDCHAR
STARTCHAR 4EA0
ENCODING 20128
SWIDTH 1020 0
DWIDTH 17 0
BBX 15 7 0 5
BITMAP
0100
0100
0100
0100
0100
0100
FFFE
ENDCHAR
STARTCHAR 4EA1
ENCODING 20129
SWIDTH 1020 0
DWIDTH 17 0
BBX 15 17 0 -2
BITMAP
0100
0100
0100
0100
0100
FFFE
1000
1000
1000
1000
1000
1000
1000
1000
1000
1000
0FFE
ENDCHAR
STARTCHAR 4EA2
ENCODING 20130
SWIDTH 1020 0
DWIDTH 17 0
BBX 15 17 0 -2
BITMAP
0100
0100
0100
FFFE
0000
0000
0000
0FE0
0820
0820
0820
0820
0820
0822
1022
0002
E01E
ENDCHAR
STARTCHAR 4EA4
ENCODING 20132
SWIDTH 1020 0
DWIDTH 17 0
BBX 15 17 0 -2
BITMAP
0180
0180
0180
FFFE
0C20
0C20
1010
600C
600C
0C20
0240
0240
0180
0240
1C30
0010
E00E
ENDCHAR
STARTCHAR 4EA5
ENCODING 20133
SWIDTH 1020 0
DWIDTH 17 0
BBX 16 17 0 -2
BITMAP
0100
0100
0100
FFFF
0818
0818
1020
08C0
08C0
0704
7818
7818
0020
01C0
0E38
0000
F007
ENDCHAR
STARTCHAR 4EA6
ENCODING 20134
SWIDTH 1020 0
DWIDTH 17 0
BBX 15 17 0 -2
BITMAP
0100
0100
0100
0100
0100
FFFE
0220
0220
622C
622C
622C
8222
8222
8C22
0C20
0C20
70E0
ENDCHAR
STARTCHAR 4EA8
ENCODING 20136
SWIDTH 1020 0
DWIDTH 17 0
BBX 15 17 0 -2
BITMAP
0100
0100
0100
FFFE
0C20
0C20
0C20
0FE0
0000
0000
FFFE
00C0
00C0
0100
0100
0100
0F00
ENDCHAR
STARTCHAR 4EAB
ENCODING 20139
SWIDTH 1020 0
DWIDTH 17 0
BBX 15 17 0 -2
BITMAP
0100
0100
0100
FFFE
0C20
0C20
0C20
1FF8
0020
0020
00C0
00C0
FFFE
0100
0100
0100
0F00
ENDCHAR
STARTCHAR 4EAC
ENCODING 20140
SWIDTH 1020 0
DWIDTH 17 0
BBX 15 17 0 -2
BITMAP
0100
0100
0100
FFFE
0000
0000
1FF0
1010
1010
1010
1FF0
0100
0100
610C
8102
0100
0F00
ENDCHAR
STARTCHAR 4EAD
ENCODING 20141
SWIDTH 1020 0
DWIDTH 17 0
BBX 15 17 0 -2
BITMAP
0100
0100
0100
FFFE
1018
1018
1FF8
0000
0000
FFFE
8002
8002
9FFA
0100
0100
0100
0F00
ENDCHAR
STARTCHAR 4EAE
ENCODING 20142
SWIDTH 1020 0
DWIDTH 17 0
BBX 15 17 0 -2
BITMAP
0100
0100
0100
FFFE
1010
1010
1010
1FF0
0000
0000
FFFE
88C2
88C2
08C0
10C2
00C2
E0FE
ENDCHAR
STARTCHAR 4EB0
ENCODING 20144
SWIDTH 1020 0
DWIDTH 17 0
BBX 15 17 0 -2
BITMAP
0100
0100
0100
FFFE
0000
0000
1FF0
1010
1010
1FF0
1010
1010
1FF0
0100
610C
0104
8302
ENDCHAR
STARTCHAR 4EB3
ENCODING 20147
SWIDTH 1020 0
DWIDTH 17 0
BBX 15 17 0 -2
BITMAP
0100
0100
0100
FFFE
0C20
0C20
0FE0
0000
0000
FFFE
80C2
8000
9F00
01FC
7F02
0102
01FE
ENDCHAR
STARTCHAR 4EB6
ENCODING 20150
SWIDTH 1020 0
DWIDTH 17 0
BBX 15 17 0 -2
BITMAP
0100
0100
0100
FFFE
6C2C
6C2C
6FEC
600C
600C
7FFC
1018
1018
1FF8
1018
1018
1018
FFFE
ENDCHAR
STARTCHAR 4EBA
ENCODING 20154
SWIDTH 1020 0
DWIDTH 17 0
BBX 15 16 0 -2
BITMAP
0180
0180
0180
0180
0180
0180
0240
0240
0240
0C20
0C20
0C20
1010
600C
0000
8002
ENDCHAR
STARTCHAR 4EC0
ENCODING 20160
SWIDTH 1020 0
DWIDTH 17 0
BBX 17 17 0 -2
BITMAP
001800
001800
101800
101800
301800
201800
23FF80
E01800
201800
201800
201800
201800
201800
201800
201800
201800
201800
ENDCHAR
STARTCHAR 4EC1
ENCODING 20161
SWIDTH 1020 0
DWIDTH 17 0
BBX 16 15 0 -2
BITMAP
1800
1BFF
2000
2000
2000
E000
2000
2000
2000
2000
2000
2000
23FF
2000
2000
ENDCHAR
STARTCHAR 4EC2
ENCODING 20162
SWIDTH 1020 0
DWIDTH 17 0
BBX 16 17 0 -2
BITMAP
0040
0040
1040
1040
33FF
23FF
2043
E043
E043
2043
2183
2183
2183
2203
2204
2204
2038
ENDCHAR
STARTCHAR 4EC4
ENCODING 20164
SWIDTH 1020 0
DWIDTH 17 0
BBX 15 15 0 -2
BITMAP
7FFE
6000
6020
6020
6020
6020
6020
6020
6020
6050
6050
8050
818C
818C
0E02
ENDCHAR
STARTCHAR 4EC6
ENCODING 20166
SWIDTH 1020 0
DWIDTH 17 0
BBX 17 17 0 -2
BITMAP
002000
002000
0C2000
0C2000
1C2000
102000
102000
703C00
703C00
902380
102000
102000
102000
102000
102000
102000
102000
ENDCHAR
STARTCHAR 4EC7
ENCODING 20167
SWIDTH 1020 0
DWIDTH 17 0
BBX 16 17 0 -2
BITMAP
0040
0040
1040
1040
1040
2FFC
2044
E044
2044
2044
2044
2184
2184
2184
2203
2203
3C03
ENDCHAR
STARTCHAR 4ECA
ENCODING 20170
SWIDTH 1020 0
DWIDTH 17 0
BBX 15 15 0 -2
BITMAP
03E0
0C10
0C10
100C
6FF2
8000
0000
0000
1FFC
000C
000C
000C
0030
0000
03C0
ENDCHAR
STARTCHAR 4ECB
ENCODING 20171
SWIDTH 1020 0
DWIDTH 17 0
BBX 15 15 0 -2
BITMAP
03C0
0C20
1010
1010
6C2C
8C22
8C22
0C20
0C20
0C20
1020
1020
6020
6020
6020
ENDCHAR
STARTCHAR 4ECD
ENCODING 20173
SWIDTH 1020 0
DWIDTH 17 0
BBX 15 15 0 -2
BITMAP
1FF8
1998
2198
2198
2198
E19E
2182
2182
2182
2202
2202
2202
2404
2404
2438
ENDCHAR
STARTCHAR 4ECE
ENCODING 20174
SWIDTH 1020 0
DWIDTH 17 0
BBX 15 15 0 -2
BITMAP
1020
1020
1020
1020
1020
1020
1020
6C50
6C50
6D8C
6D8C
818C
8202
8202
8202
ENDCHAR
STARTCHAR 4ECF
ENCODING 20175
SWIDTH 1020 0
DWIDTH 17 0
BBX 16 15 0 -2
BITMAP
1040
1040
3040
2040
2040
E040
2180
2180
2184
2184
2184
2204
220B
220B
23E3
ENDCHAR
STARTCHAR 4ED4
ENCODING 20180
SWIDTH 1020 0
DWIDTH 17 0
BBX 16 15 0 -2
BITMAP
19FF
1803
2004
2004
2018
E018
E018
23FF
2018
2018
2018
2018
2018
2018
20F8
ENDCHAR
STARTCHAR 4ED5
ENCODING 20181
SWIDTH 1020 0
DWIDTH 17 0
BBX 16 17 0 -2
BITMAP
0030
0030
1830
1830
3830
2030
23FF
E030
2030
2030
2030
2030
2030
2030
2030
2030
23FF
ENDCHAR
STARTCHAR 4ED6
ENCODING 20182
SWIDTH 1020 0
DWIDTH 17 0
BBX 16 17 0 -2
BITMAP
0040
0040
1040
125C
327C
2264
23C4
EE44
EE44
2244
225C
2240
2240
2243
2203
2203
23FF
ENDCHAR
STARTCHAR 4ED7
ENCODING 20183
SWIDTH 1020 0
DWIDTH 17 0
BBX 16 17 0 -2
BITMAP
0018
0018
1818
1818
3818
23FF
2018
E018
E018
2118
20D8
20D8
2038
2018
20E4
2004
2303
ENDCHAR
STARTCHAR 4ED8
ENCODING 20184
SWIDTH 1020 0
DWIDTH 17 0
BBX 16 17 0 -2
BITMAP
0004
0004
1804
1804
3804
23FF
2004
E004
2104
2104
20C4
2004
2004
2004
2004
2004
203C
ENDCHAR
STARTCHAR 4ED9
ENCODING 20185
SWIDTH 1020 0
DWIDTH 17 0
BBX 15 17 0 -2
BITMAP
0020
0020
1020
1020
3020
2020
2222
E222
2222
2222
2222
2222
2222
2222
2222
2222
23FE
ENDCHAR
STARTCHAR 4EDD
ENCODING 20189
SWIDTH 1020 0
DWIDTH 17 0
BBX 15 15 0 -2
BITMAP
03C0
0C20
1018
1018
6004
8002
8002
1FF8
0100
0100
0100
0100
0100
0100
7FFC
ENDCHAR
STARTCHAR 4EDE
ENCODING 20190
SWIDTH 1020 0
DWIDTH 17 0
BBX 16 15 0 -2
BITMAP
13FF
1043
2043
2043
2243
E1C3
2043
2043
21A3
21A3
21A3
2203
2204
2204
2038
ENDCHAR
STARTCHAR 4EDF
ENCODING 20191
SWIDTH 1020 0
DWIDTH 17 0
BBX 15 15 0 -2
BITMAP
101E
13E0
2020
2020
2020
E020
E020
2FFE
2020
2020
2020
2020
2020
2020
2020
ENDCHAR
STARTCHAR 4EE3
ENCODING 20195
SWIDTH 1020 0
DWIDTH 17 0
BBX 15 17 0 -2
BITMAP
00C0
00C0
10CC
10C2
30C2
20C0
2FFE
E020
2020
2020
2020
2010
2010
2010
200C
200C
200C
ENDCHAR
STARTCHAR 4EE4
ENCODING 20196
SWIDTH 1020 0
DWIDTH 17 0
BBX 15 15 0 -2
BITMAP
07E0
0818
0818
1004
7FFA
8000
0000
0000
7FFC
0104
0104
0104
0138
0100
0100
ENDCHAR
STARTCHAR 4EE5
ENCODING 20197
SWIDTH 1020 0
DWIDTH 17 0
BBX 15 15 0 -2
BITMAP
1004
1104
1104
1104
10C4
10C4
10C4
1004
1018
1E18
1E18
E024
01C2
01C2
0E02
ENDCHAR
STARTCHAR 4EED
ENCODING 20205
SWIDTH 1020 0
DWIDTH 17 0
BBX 16 15 0 -2
BITMAP
13FF
1043
2243
2243
21C3
E043
E043
2063
219B
2187
2187
2203
2204
2204
2038
ENDCHAR
STARTCHAR 4EEE
ENCODING 20206
SWIDTH 1020 0
DWIDTH 17 0
BBX 16 15 0 -2
BITMAP
1BFF
1A00
2200
2200
23FC
E204
22C4
22C4
2224
2418
2418
2418
20E4
2004
2303
ENDCHAR
STARTCHAR 4EF0
ENCODING 20208
SWIDTH 1020 0
DWIDTH 17 0
BBX 15 15 0 -2
BITMAP
1060
139E
33BE
2222
2222
E222
2222
2222
2222
2222
2222
2262
2FA6
2020
2020
ENDCHAR
STARTCHAR 4EF2
ENCODING 20210
SWIDTH 1020 0
DWIDTH 17 0
BBX 15 17 0 -2
BITMAP
0020
0020
1820
1820
3820
27FE
2422
E422
2422
2422
27FE
2020
2020
2020
2020
2020
2020
ENDCHAR
STARTCHAR 4EF6
ENCODING 20214
SWIDTH 1020 0
DWIDTH 17 0
BBX 15 17 0 -2
BITMAP
0010
0010
1110
1110
31FE
21FE
2610
E610
E610
2010
2FFE
2010
2010
2010
2010
2010
2010
ENDCHAR
STARTCHAR 4EF7
ENCODING 20215
SWIDTH 1020 0
DWIDTH 17 0
BBX 16 15 0 -2
BITMAP
1878
1984
2000
2203
2400
E184
2184
2184
2184
2184
2184
2184
2204
2204
2204
ENDCHAR
STARTCHAR 4EFB
ENCODING 20219
SWIDTH 1020 0
DWIDTH 17 0
BBX 15 15 0 -2
BITMAP
101C
17E0
2020
2020
2020
E020
E020
2FFE
2020
2020
2020
2020
2020
2020
27FE
ENDCHAR
STARTCHAR 4F01
ENCODING 20225
SWIDTH 1020 0
DWIDTH 17 0
BBX 15 15 0 -2
BITMAP
03C0
0C20
0C20
1018
610C
8102
0100
0100
11F8
1100
1100
1100
1100
1100
FFFE
ENDCHAR
STARTCHAR 4F09
ENCODING 20233
SWIDTH 1020 0
DWIDTH 17 0
BBX 16 17 0 -2
BITMAP
0030
0030
1830
1BFF
2000
2000
2000
E1FC
2184
2184
2184
2184
2184
2184
2204
2204
2207
ENDCHAR
STARTCHAR 4F0A
ENCODING 20234
SWIDTH 1020 0
DWIDTH 17 0
BBX 15 15 0 -2
BITMAP
13FE
1022
2022
2022
2FFE
E022
2022
2022
23FE
2020
2020
2020
2040
2000
2380
ENDCHAR
STARTCHAR 4F0D
ENCODING 20237
SWIDTH 1020 0
DWIDTH 17 0
BBX 15 15 0 -2
BITMAP
17FE
1020
2020
2020
2020
E7FC
20CC
20CC
20CC
210C
210C
210C
210C
210C
2FFE
ENDCHAR
STARTCHAR 4F0E
ENCODING 20238
SWIDTH 1020 0
DWIDTH 17 0
BBX 16 17 0 -2
BITMAP
0020
0020
1020
1FFF
2020
2020
2020
E7FC
2004
2004
2104
2104
2104
20D8
20F8
2008
2F07
ENDCHAR
STARTCHAR 4F0F
ENCODING 20239
SWIDTH 1020 0
DWIDTH 17 0
BBX 15 17 0 -2
BITMAP
0020
102C
102C
1022
3022
2020
2FFE
E020
2020
2020
2020
20D0
20D0
20D0
210C
2004
2E02
ENDCHAR
STARTCHAR 4F10
ENCODING 20240
SWIDTH 1020 0
DWIDTH 17 0
BBX 15 17 0 -2
BITMAP
00C0
00C0
10CC
10C2
30C2
20C0
2FFE
E020
2022
2022
202C
2010
2010
2030
21CC
2004
2E02
ENDCHAR
STARTCHAR 4F11
ENCODING 20241
SWIDTH 1020 0
DWIDTH 17 0
BBX 16 17 0 -2
BITMAP
0020
0020
1820
1820
3820
27FF
2020
E020
2060
2060
21B8
2224
2224
2423
2020
2020
2020
ENDCHAR
STARTCHAR 4F1A
ENCODING 20250
SWIDTH 1020 0
DWIDTH 17 0
BBX 15 15 0 -2
BITMAP
03C0
0C20
0C20
1018
6FEC
8002
0000
0000
FFFE
0C18
0C18
0C18
10EC
10EC
1F0C
ENDCHAR
STARTCHAR 4F1C
ENCODING 20252
SWIDTH 1020 0
DWIDTH 17 0
BBX 15 17 0 -2
BITMAP
00C0
00C0
10C0
13FC
33FC
20CC
20CC
E10E
E10E
2120
2020
2020
2FFE
2020
2020
2020
2020
ENDCHAR
STARTCHAR 4F1D
ENCODING 20253
SWIDTH 1020 0
DWIDTH 17 0
BBX 16 15 0 -2
BITMAP
19FC
1800
2000
2000
2000
E3FF
2040
2040
2040
2184
2184
2184
221B
221B
23E3
ENDCHAR
STARTCHAR 4F2F
ENCODING 20271
SWIDTH 1020 0
DWIDTH 17 0
BBX 15 17 0 -2
BITMAP
0020
0020
1020
1040
33C0
23FE
2202
E202
2202
2202
23FE
2202
2202
2202
2202
2202
23FE
ENDCHAR
STARTCHAR 4F30
ENCODING 20272
SWIDTH 1020 0
DWIDTH 17 0
BBX 16 17 0 -2
BITMAP
0030
0030
1830
1830
3830
23FF
2030
E030
2030
2030
23FF
2203
2203
2203
2203
2203
23FF
ENDCHAR
STARTCHAR 4F34
ENCODING 20276
SWIDTH 1020 0
DWIDTH 17 0
BBX 16 17 0 -2
BITMAP
0030
0030
1830
1A33
3A33
21B4
2030
E3FF
2030
2030
2030
2030
23FF
2030
2030
2030
2030
ENDCHAR
STARTCHAR 4F36
ENCODING 20278
SWIDTH 1020 0
DWIDTH 17 0
BBX 15 15 0 -2
BITMAP
1078
1184
2200
2202
23FC
E000
2000
2000
2FFE
2042
2042
2042
205C
2040
2040
ENDCHAR
STARTCHAR 4F38
ENCODING 20280
SWIDTH 1020 0
DWIDTH 17 0
BBX 15 17 0 -2
BITMAP
0020
0020
1020
13FE
33FE
2222
2222
E3FE
2222
2222
2222
2222
23FE
2020
2020
2020
2020
ENDCHAR
STARTCHAR 4F3A
ENCODING 20282
SWIDTH 1020 0
DWIDTH 17 0
BBX 15 15 0 -2
BITMAP
1BFE
1802
2002
2002
23F2
E002
E002
23F2
2232
2232
2232
23F2
2002
2002
2006
ENDCHAR
STARTCHAR 4F3C
ENCODING 20284
SWIDTH 1020 0
DWIDTH 17 0
BBX 16 15 0 -2
BITMAP
1204
1204
3244
2244
2234
E204
E204
2204
2208
2388
2388
3C34
2043
2043
2383
ENDCHAR
STARTCHAR 4F3D
ENCODING 20285
SWIDTH 1020 0
DWIDTH 17 0
BBX 16 17 0 -2
BITMAP
0200
0200
1A00
1A0F
3A0F
27CB
224B
E24B
224B
224B
224B
244B
244B
244B
204B
204B
230F
ENDCHAR
STARTCHAR 4F43
ENCODING 20291
SWIDTH 1020 0
DWIDTH 17 0
BBX 15 15 0 -2
BITMAP
13FE
1222
3222
2222
2222
E222
E222
23FE
2222
2222
2222
2222
2222
2222
23FE
ENDCHAR
STARTCHAR 4F46
ENCODING 20294
SWIDTH 1020 0
DWIDTH 17 0
BBX 16 15 0 -2
BITMAP
19FF
1983
2183
2183
21FF
E183
2183
2183
2183
2183
21FF
2000
2000
2000
23FF
ENDCHAR
STARTCHAR 4F47
ENCODING 20295
SWIDTH 1020 0
DWIDTH 17 0
BBX 16 16 0 -2
BITMAP
0020
1820
1BFF
3BFF
2203
2203
2203
E000
23FF
2018
2018
2018
2018
2018
2018
20F8
ENDCHAR
STARTCHAR 4F4D
ENCODING 20301
SWIDTH 1020 0
DWIDTH 17 0
BBX 15 17 0 -2
BITMAP
0020
0020
1020
1020
3020
2FFE
2000
E10C
E10C
210C
210C
210C
210C
2110
2010
2010
2FFE
ENDCHAR
STARTCHAR 4F4E
ENCODING 20302
SWIDTH 1020 0
DWIDTH 17 0
BBX 15 15 0 -2
BITMAP
100E
17F0
2610
2610
2610
E7FE
260C
260C
260C
2602
2602
27C2
2000
2000
2FFE
ENDCHAR
STARTCHAR 4F4F
ENCODING 20303
SWIDTH 1020 0
DWIDTH 17 0
BBX 15 17 0 -2
BITMAP
00C0
1020
1020
1000
3000
2FFE
2020
E020
2020
2020
27FE
2020
2020
2020
2020
2020
2FFE
ENDCHAR
STARTCHAR 4F50
ENCODING 20304
SWIDTH 1020 0
DWIDTH 17 0
BBX 16 17 0 -2
BITMAP
0040
0040
1840
1FFF
2180
2180
2180
E180
23FF
23FF
2208
2408
2408
2408
2008
2008
23FF
ENDCHAR
STARTCHAR 4F51
ENCODING 20305
SWIDTH 1020 0
DWIDTH 17 0
BBX 16 17 0 -2
BITMAP
0030
0030
1030
13FF
33FF
2030
2030
E040
E040
21FF
2383
2383
3D83
2183
2183
2183
21FF
ENDCHAR
STARTCHAR 4F53
ENCODING 20307
SWIDTH 1020 0
DWIDTH 17 0
BBX 16 17 0 -2
BITMAP
0020
0020
1820
1820
3820
27FF
2020
E060
21B8
21B8
2224
2423
2423
23FC
2020
2020
2020
ENDCHAR
STARTCHAR 4F55
ENCODING 20309
SWIDTH 1020 0
DWIDTH 17 0
BBX 16 15 0 -2
BITMAP
1BFF
1804
2004
2004
23C4
E2C4
22C4
22C4
22C4
22C4
23C4
2004
2004
2004
203C
ENDCHAR
STARTCHAR 4F57
ENCODING 20311
SWIDTH 1020 0
DWIDTH 17 0
BBX 15 16 0 -2
BITMAP
0020
1020
13FE
33FE
2202
2202
E100
211C
211C
21E0
2100
2100
2100
2102
2002
20FE
ENDCHAR
STARTCHAR 4F59
ENCODING 20313
SWIDTH 1020 0
DWIDTH 17 0
BBX 15 15 0 -2
BITMAP
03C0
0C20
0C20
1018
6FE4
8102
0100
0100
7FFC
0100
0100
6104
8102
0100
0F00
ENDCHAR
STARTCHAR 4F5A
ENCODING 20314
SWIDTH 1020 0
DWIDTH 17 0
BBX 16 17 0 -2
BITMAP
0030
0030
1230
1230
33FF
23FF
2C30
EC30
EC30
23FF
2030
2030
2030
2048
2184
2000
2E03
ENDCHAR
STARTCHAR 4F5B
ENCODING 20315
SWIDTH 1020 0
DWIDTH 17 0
BBX 16 17 0 -2
BITMAP
0048
0048
1048
1FFF
204B
204B
23FF
E248
2248
2248
23FF
204B
204B
204B
218C
2008
2E08
ENDCHAR
STARTCHAR 4F5C
ENCODING 20316
SWIDTH 1020 0
DWIDTH 17 0
BBX 15 17 0 -2
BITMAP
0180
0180
1180
11FE
21A0
21A0
2220
E23E
E23E
2020
2020
2020
203E
2020
2020
2020
2020
ENDCHAR
STARTCHAR 4F5D
ENCODING 20317
SWIDTH 1020 0
DWIDTH 17 0
BBX 15 17 0 -2
BITMAP
0180
0180
1180
11FE
2202
2202
2202
E1E2
21A2
21A2
21A2
21A2
21E2
2002
2004
2000
2038
ENDCHAR
STARTCHAR 4F5E
ENCODING 20318
SWIDTH 1020 0
DWIDTH 17 0
BBX 16 15 0 -2
BITMAP
17FC
1000
2000
2000
2FFF
E0C0
20C0
20C0
2FFF
2104
2104
2708
20F8
2008
2F07
ENDCHAR
STARTCHAR 4F69
ENCODING 20329
SWIDTH 1020 0
DWIDTH 17 0
BBX 16 15 0 -2
BITMAP
0FFC
1C04
2FE4
2FE4
ED04
2D04
2D04
2FE4
2D24
2D24
2D24
2D23
3123
3123
2103
ENDCHAR
STARTCHAR 4F6F
ENCODING 20335
SWIDTH 1020 0
DWIDTH 17 0
BBX 15 17 0 -2
BITMAP
010C
010C
10CC
1010
3010
27FE
2020
E020
E020
27FE
2020
2020
2020
2FFE
2020
2020
2020
ENDCHAR
STARTCHAR 4F70
ENCODING 20336
SWIDTH 1020 0
DWIDTH 17 0
BBX 16 15 0 -2
BITMAP
1BFF
1808
2030
2030
21FF
E183
2183
2183
21FF
2183
2183
2183
2183
2183
21FF
ENDCHAR
STARTCHAR 4F73
ENCODING 20339
SWIDTH 1020 0
DWIDTH 17 0
BBX 15 17 0 -2
BITMAP
0020
0020
1020
17FE
2020
2020
2020
EFFE
2020
2020
2020
2020
27FE
2020
2020
2020
2FFE
ENDCHAR
STARTCHAR 4F75
ENCODING 20341
SWIDTH 1020 0
DWIDTH 17 0
BBX 15 17 0 -2
BITMAP
060C
060C
110C
1010
3010
2FFE
210C
E10C
210C
210C
2FFE
210C
210C
210C
260C
260C
260C
ENDCHAR
STARTCHAR 4F76
ENCODING 20342
SWIDTH 1020 0
DWIDTH 17 0
BBX 16 17 0 -2
BITMAP
0008
0008
1808
1BFF
2008
2008
2008
E1FF
2000
2000
2000
2000
21FF
2183
2183
2183
21FF
ENDCHAR
STARTCHAR 4F7B
ENCODING 20347
SWIDTH 1020 0
DWIDTH 17 0
BBX 16 17 0 -2
BITMAP
0020
19A0
19A0
19A3
25A4
25A4
23A0
E1A0
21B8
21B8
23A4
25A3
25A3
21A0
2223
2003
3C1F
ENDCHAR
STARTCHAR 4F7C
ENCODING 20348
SWIDTH 1020 0
DWIDTH 17 0
BBX 16 17 0 -2
BITMAP
0030
0030
1030
13FF
2000
2000
2184
E203
2000
2000
2184
2184
2048
2038
21C4
2004
2E03
ENDCHAR
STARTCHAR 4F7F
ENCODING 20351
SWIDTH 1020 0
DWIDTH 17 0
BBX 15 17 0 -2
BITMAP
0020
0020
1020
13FE
2020
2020
23FE
E222
2222
2222
23FE
2020
2020
2060
2198
2008
2E06
ENDCHAR
STARTCHAR 4F83
ENCODING 20355
SWIDTH 1020 0
DWIDTH 17 0
BBX 16 15 0 -2
BITMAP
1BFF
1A03
2203
2203
2203
E3FF
2000
2000
21A4
21A4
21A4
21A4
2224
2024
2427
ENDCHAR
STARTCHAR 4F86
ENCODING 20358
SWIDTH 1020 0
DWIDTH 17 0
BBX 16 17 0 -2
BITMAP
0100
0100
0100
FFFF
0100
0100
1118
1118
1118
6D24
8103
8103
03C0
1D38
E107
0100
0100
ENDCHAR
STARTCHAR 4F88
ENCODING 20360
SWIDTH 1020 0
DWIDTH 17 0
BBX 16 16 0 -2
BITMAP
0020
1020
10FF
33FF
2303
20C4
E038
E038
23C0
20FF
20FF
2303
20C4
2038
2000
2FC0
ENDCHAR
STARTCHAR 4F8B
ENCODING 20363
SWIDTH 1020 0
DWIDTH 17 0
BBX 15 15 0 -2
BITMAP
1FE2
1A0A
220A
220A
23CA
E44A
E44A
244A
224A
218A
218A
2182
2202
2002
3C0E
ENDCHAR
STARTCHAR 4F8D
ENCODING 20365
SWIDTH 1020 0
DWIDTH 17 0
BBX 15 17 0 -2
BITMAP
0020
0020
1020
17FE
2020
2020
2020
EFFE
200C
200C
2FFE
200C
200C
210C
20CC
200C
201C
ENDCHAR
STARTCHAR 4F8F
ENCODING 20367
SWIDTH 1020 0
DWIDTH 17 0
BBX 16 17 0 -2
BITMAP
0030
0030
1230
1230
3230
23FF
2C30
EC30
EC30
23FF
2030
2030
2078
21B4
2E33
2030
2030
ENDCHAR
STARTCHAR 4F91
ENCODING 20369
SWIDTH 1020 0
DWIDTH 17 0
BBX 15 17 0 -2
BITMAP
0020
0020
1820
1BFE
2040
2040
2040
E1FE
2182
2182
23FE
2582
2582
21FE
2182
2182
2186
ENDCHAR
STARTCHAR 4F96
ENCODING 20374
SWIDTH 1020 0
DWIDTH 17 0
BBX 15 15 0 -2
BITMAP
0FE0
1010
1010
7FFC
8002
7FFC
624C
624C
624C
624C
7FFC
624C
624C
624C
625C
ENDCHAR
STARTCHAR 4F98
ENCODING 20376
SWIDTH 1020 0
DWIDTH 17 0
BBX 15 17 0 -2
BITMAP
0040
0040
1840
1FFE
2402
2402
243A
E3C0
2040
2040
207E
207E
27C0
2040
2042
2042
207E
ENDCHAR
STARTCHAR 4F9B
ENCODING 20379
SWIDTH 1020 0
DWIDTH 17 0
BBX 16 17 0 -2
BITMAP
0188
0188
1988
1988
3988
27FF
2188
E188
2188
2188
27FF
2000
2000
2188
2204
2004
2403
ENDCHAR
STARTCHAR 4F9D
ENCODING 20381
SWIDTH 1020 0
DWIDTH 17 0
BBX 16 17 0 -2
BITMAP
0020
0020
1020
1FFF
20C0
20C0
20C0
E123
E123
2623
2E24
3618
3618
2618
26E4
2600
2F03
ENDCHAR
STARTCHAR 4FA0
ENCODING 20384
SWIDTH 1020 0
DWIDTH 17 0
BBX 15 17 0 -2
BITMAP
0020
0020
1020
17FE
37FE
2020
2622
E12C
E12C
2020
2FFE
2FFE
2020
20D0
210C
2004
2E02
ENDCHAR
STARTCHAR 4FA1
ENCODING 20385
SWIDTH 1020 0
DWIDTH 17 0
BBX 16 15 0 -2
BITMAP
1BFF
1848
3848
2048
23FF
E24B
224B
224B
224B
224B
224B
224B
224B
224B
23FF
ENDCHAR
STARTCHAR 4FAB
ENCODING 20395
SWIDTH 1020 0
DWIDTH 17 0
BBX 16 17 0 -2
BITMAP
0020
0020
1020
1FFF
2600
2600
2600
E1FC
20C0
20C0
2FFF
2104
2104
2718
20F8
2008
2F07
ENDCHAR
STARTCHAR 4FAD
ENCODING 20397
SWIDTH 1020 0
DWIDTH 17 0
BBX 16 15 0 -2
BITMAP
1BFF
1A03
2203
2203
23FF
E204
2204
2204
2444
2423
2423
2403
21C0
2040
203C
ENDCHAR
STARTCHAR 4FAE
ENCODING 20398
SWIDTH 1020 0
DWIDTH 17 0
BBX 15 17 0 -2
BITMAP
0100
0100
1100
11FE
2600
2600
27FC
E12C
212C
212C
2FFE
26CC
26CC
26CC
27FE
2010
2010
ENDCHAR
STARTCHAR 4FAF
ENCODING 20399
SWIDTH 1020 0
DWIDTH 17 0
BBX 15 15 0 -2
BITMAP
17FC
100C
200C
200C
2FFE
E100
E100
21FE
2620
2620
2FFE
20D0
210C
2004
2E02
ENDCHAR
STARTCHAR 4FB5
ENCODING 20405
SWIDTH 1020 0
DWIDTH 17 0
BBX 16 15 0 -2
BITMAP
17FC
1004
2004
27FC
2004
EFFF
2803
2803
27FC
2104
2104
2108
2078
2008
2F07
ENDCHAR
STARTCHAR 4FB6
ENCODING 20406
SWIDTH 1020 0
DWIDTH 17 0
BBX 15 15 0 -2
BITMAP
13FE
1202
2202
2202
23FE
E020
2000
2040
23FE
2202
2202
2202
2202
2202
23FE
ENDCHAR
STARTCHAR 4FBF
ENCODING 20415
SWIDTH 1020 0
DWIDTH 17 0
BBX 15 15 0 -2
BITMAP
13FE
1020
2020
23FE
2222
E3FE
2222
2222
23FE
21A0
21A0
2060
2198
2008
2E06
ENDCHAR
STARTCHAR 4FC2
ENCODING 20418
SWIDTH 1020 0
DWIDTH 17 0
BBX 16 15 0 -2
BITMAP
1BFF
1840
2080
2184
2208
E1B0
2000
2043
27FF
2030
2030
2234
2433
2030
2030
ENDCHAR
STARTCHAR 4FC3
ENCODING 20419
SWIDTH 1020 0
DWIDTH 17 0
BBX 16 15 0 -2
BITMAP
13FF
1203
2203
2203
23FF
E020
2020
2020
223F
2220
2220
2220
23E0
2000
3C1F
ENDCHAR
STARTCHAR 4FC4
ENCODING 20420
SWIDTH 1020 0
DWIDTH 17 0
BBX 15 17 0 -2
BITMAP
0010
0010
11D2
1E12
7E12
6210
62FE
FF10
6212
6212
63D2
7E0C
7E0C
620C
6232
6232
6FC2
ENDCHAR
STARTCHAR 4FCA
ENCODING 20426
SWIDTH 1020 0
DWIDTH 17 0
BBX 16 17 0 -2
BITMAP
00C0
00C0
10C4
1104
3104
2FFF
20C8
E10B
E10B
2E07
20FC
2704
2704
2108
20F8
2008
2F07
ENDCHAR
STARTCHAR 4FCE
ENCODING 20430
SWIDTH 1020 0
DWIDTH 17 0
BBX 15 15 0 -2
BITMAP
107E
1042
1042
1042
1C7E
6242
8042
8042
107E
1042
1042
1C42
6242
0042
81FE
ENDCHAR
STARTCHAR 4FD0
ENCODING 20432
SWIDTH 1020 0
DWIDTH 17 0
BBX 15 15 0 -2
BITMAP
18E2
1F1A
3F1A
211A
211A
E7FA
E7FA
211A
231A
23C2
23C2
2522
2502
2502
2106
ENDCHAR
STARTCHAR 4FD1
ENCODING 20433
SWIDTH 1020 0
DWIDTH 17 0
BBX 15 15 0 -2
BITMAP
13FC
1018
2020
2020
23FE
E222
E222
23FE
2222
2222
23FE
2222
2222
2222
2226
ENDCHAR
STARTCHAR 4FD4
ENCODING 20436
SWIDTH 1020 0
DWIDTH 17 0
BBX 16 15 0 -2
BITMAP
13FF
1203
2203
23FF
2203
E3FF
2203
2203
23FF
2048
2048
2048
218B
200B
2E0F
ENDCHAR
STARTCHAR 4FD7
ENCODING 20439
SWIDTH 1020 0
DWIDTH 17 0
BBX 16 15 0 -2
BITMAP
1184
1203
3203
2000
2038
E044
E044
2183
2200
2200
21FF
2183
2183
2183
21FF
ENDCHAR
STARTCHAR 4FD8
ENCODING 20440
SWIDTH 1020 0
DWIDTH 17 0
BBX 16 15 0 -2
BITMAP
19FF
1980
2234
2234
2233
E000
E000
207F
2004
2008
2008
23FF
2008
2008
2038
ENDCHAR
STARTCHAR 4FDA
ENCODING 20442
SWIDTH 1020 0
DWIDTH 17 0
BBX 16 15 0 -2
BITMAP
1BFF
1A33
3A33
23FF
2233
E233
E233
23FF
2030
2030
23FF
2030
2030
2030
23FF
ENDCHAR
STARTCHAR 4FDB
ENCODING 20443
SWIDTH 1020 0
DWIDTH 17 0
BBX 16 15 0 -2
BITMAP
11F8
1208
3E38
23FF
23FF
E233
2233
2233
23FF
2048
2048
2048
218B
200B
2E0F
ENDCHAR
STARTCHAR 4FDD
ENCODING 20445
SWIDTH 1020 0
DWIDTH 17 0
BBX 16 15 0 -2
BITMAP
13FF
1203
2203
2203
23FF
E030
E030
23FF
2030
2030
2078
21B4
2E33
2030
2030
ENDCHAR
STARTCHAR 4FDF
ENCODING 20447
SWIDTH 1020 0
DWIDTH 17 0
BBX 15 17 0 -2
BITMAP
00C0
00C0
10D0
110C
310C
2FFE
2100
E1FE
2020
2620
2620
2620
2FFE
20D0
210C
2004
2E02
ENDCHAR
STARTCHAR 4FE1
ENCODING 20449
SWIDTH 1020 0
DWIDTH 17 0
BBX 16 15 0 -2
BITMAP
19FF
1800
2000
23FF
2000
E1FF
2000
2000
2000
2000
21FF
2183
2183
2183
21FF
ENDCHAR
STARTCHAR 4FE3
ENCODING 20451
SWIDTH 1020 0
DWIDTH 17 0
BBX 15 15 0 -2
BITMAP
13FE
1202
2202
2202
23FE
E000
E000
23FE
2020
2020
23FE
2020
21D8
2008
2E06
ENDCHAR
STARTCHAR 4FE4
ENCODING 20452
SWIDTH 1020 0
DWIDTH 17 0
BBX 15 17 0 -2
BITMAP
0218
0218
1998
1820
3820
27FC
2044
E7FC
2440
2440
27FE
21C2
21C2
2242
245C
2040
2040
ENDCHAR
STARTCHAR 4FE5
ENCODING 20453
SWIDTH 1020 0
DWIDTH 17 0
BBX 16 17 0 -2
BITMAP
0030
0030
1830
1BFF
2030
2030
23FF
E233
E233
23FF
2233
2233
23FF
2030
23FF
2030
2030
ENDCHAR
STARTCHAR 4FEE
ENCODING 20462
SWIDTH 1020 0
DWIDTH 17 0
BBX 15 17 0 -2
BITMAP
0180
0180
1980
19FE
2204
2204
2244
E038
2426
2426
25C0
241C
241C
25E0
2006
2000
23F8
ENDCHAR
STARTCHAR 4FEF
ENCODING 20463
SWIDTH 1020 0
DWIDTH 17 0
BBX 16 17 0 -2
BITMAP
0040
0040
1840
1FFF
3FFF
2444
2444
E5FF
E5FF
2784
25A4
25A4
259C
2584
3984
2184
219C
ENDCHAR
STARTCHAR 4FF3
ENCODING 20467
SWIDTH 1020 0
DWIDTH 17 0
BBX 16 17 0 -2
BITMAP
0008
0008
1048
1FCF
2048
2048
2048
E3CF
2048
2048
2048
2048
2FC8
204F
2188
2008
2E08
ENDCHAR
STARTCHAR 4FF5
ENCODING 20469
SWIDTH 1020 0
DWIDTH 17 0
BBX 15 17 0 -2
BITMAP
0030
0030
1030
1FFE
2030
2030
23FE
E030
E030
2FFE
2042
2044
21B4
2F88
2184
2184
23F2
ENDCHAR
STARTCHAR 4FF6
ENCODING 20470
SWIDTH 1020 0
DWIDTH 17 0
BBX 16 16 0 -2
BITMAP
0100
191F
19E3
39E3
2103
211B
E7FB
E7FB
211B
2104
2524
2524
2524
211B
211B
2323
ENDCHAR
STARTCHAR 4FF8
ENCODING 20472
SWIDTH 1020 0
DWIDTH 17 0
BBX 16 17 0 -2
BITMAP
0030
0030
1830
1BFF
2040
2040
23FF
E188
E188
27FF
2234
2434
25FF
2030
23FF
2030
2030
ENDCHAR
STARTCHAR 4FFA
ENCODING 20474
SWIDTH 1020 0
DWIDTH 17 0
BBX 16 17 0 -2
BITMAP
0020
0020
1020
1FFF
2184
2184
2223
EFFF
3223
3223
23FF
2223
2223
23FF
2020
2020
203F
ENDCHAR
STARTCHAR 4FFE
ENCODING 20478
SWIDTH 1020 0
DWIDTH 17 0
BBX 15 16 0 -2
BITMAP
0020
10C0
17FE
37FE
2622
27FE
E622
2622
2622
27FE
20D0
20D0
2110
2FFE
2010
2010
ENDCHAR
STARTCHAR 5005
ENCODING 20485
SWIDTH 1020 0
DWIDTH 17 0
BBX 15 17 0 -2
BITMAP
0020
0020
1020
17FE
2000
2000
210C
E10C
E10C
26D2
2020
2020
2020
2FFE
2020
2020
2020
ENDCHAR
STARTCHAR 5006
ENCODING 20486
SWIDTH 1020 0
DWIDTH 17 0
BBX 15 15 0 -2
BITMAP
1FFE
1840
2040
2040
27FE
E442
E442
247A
264A
264A
264A
25FE
2442
2442
244E
ENDCHAR
STARTCHAR 5009
ENCODING 20489
SWIDTH 1020 0
DWIDTH 17 0
BBX 15 15 0 -2
BITMAP
03E0
0C18
0C18
1FFC
7006
9FFC
1004
1004
1FFC
1000
1000
6FFC
6C04
6C04
0FFC
ENDCHAR
STARTCHAR 500B
ENCODING 20491
SWIDTH 1020 0
DWIDTH 17 0
BBX 16 15 0 -2
BITMAP
13FF
1233
3233
2233
23FF
E233
2233
227B
224B
224B
224B
227B
2203
2203
23FF
ENDCHAR
STARTCHAR 500D
ENCODING 20493
SWIDTH 1020 0
DWIDTH 17 0
BBX 15 17 0 -2
BITMAP
0060
0060
0860
0FFE
108C
108C
108C
F7FE
1000
1000
1000
1000
11FE
1102
1102
1102
11FE
ENDCHAR
STARTCHAR 500F
ENCODING 20495
SWIDTH 1020 0
DWIDTH 17 0
BBX 16 17 0 -2
BITMAP
00C0
00C0
10C0
10FF
31FF
2D04
2EC4
ECF8
ECF8
2F27
2C24
2C24
2FFF
2C20
21D8
2000
2E07
ENDCHAR
STARTCHAR 5011
ENCODING 20497
SWIDTH 1020 0
DWIDTH 17 0
BBX 15 15 0 -2
BITMAP
13CE
124A
324A
23CE
224A
E24A
E24A
23CE
2202
2202
2202
2202
2202
2202
220E
ENDCHAR
STARTCHAR 5012
ENCODING 20498
SWIDTH 1020 0
DWIDTH 17 0
BBX 15 15 0 -2
BITMAP
1FE2
111A
201A
261A
281A
EFFA
211A
211A
211A
211A
2FDA
2102
2102
2102
2FE6
ENDCHAR
STARTCHAR 5014
ENCODING 20500
SWIDTH 1020 0
DWIDTH 17 0
BBX 16 15 0 -2
BITMAP
1BFF
1A03
2203
23FF
2208
E24B
224B
224B
227F
2208
2208
258B
258B
258B
21FF
ENDCHAR
STARTCHAR 5016
ENCODING 20502
SWIDTH 1020 0
DWIDTH 17 0
BBX 15 17 0 -2
BITMAP
0020
0020
1020
17FE
2020
2020
2FFE
E10C
210C
210C
2FFE
2020
2020
27FE
2020
2020
2020
ENDCHAR
STARTCHAR 5019
ENCODING 20505
SWIDTH 1020 0
DWIDTH 17 0
BBX 16 15 0 -2
BITMAP
19FC
1804
2404
2404
27FF
E440
E440
247F
2598
2598
25FF
2418
2424
2004
21C3
ENDCHAR
STARTCHAR 501A
ENCODING 20506
SWIDTH 1020 0
DWIDTH 17 0
BBX 16 17 0 -2
BITMAP
0030
1030
1030
13FF
2048
2048
2184
E203
E203
2FFF
2003
2003
21F3
21B3
21F3
2003
2007
ENDCHAR
STARTCHAR 501F
ENCODING 20511
SWIDTH 1020 0
DWIDTH 17 0
BBX 16 17 0 -2
BITMAP
0044
0044
1844
1BFF
3BFF
2044
2044
E3FF
2000
2000
21FF
2183
2183
21FF
2183
2183
21FF
ENDCHAR
STARTCHAR 5021
ENCODING 20513
SWIDTH 1020 0
DWIDTH 17 0
BBX 16 15 0 -2
BITMAP
11FC
1184
2184
21FC
2184
E1FC
2000
2000
23FF
2203
2203
23FF
2203
2203
23FF
ENDCHAR
STARTCHAR 5023
ENCODING 20515
SWIDTH 1020 0
DWIDTH 17 0
BBX 16 17 0 -2
BITMAP
0230
0230
1A30
1A3F
3A3F
27F3
2233
E203
23CB
23CB
224B
2444
2444
2444
204B
204B
23B3
ENDCHAR
STARTCHAR 5024
ENCODING 20516
SWIDTH 1020 0
DWIDTH 17 0
BBX 16 17 0 -2
BITMAP
0008
0008
1808
1BFF
2008
2008
207F
E243
E243
227F
2243
2243
2243
227F
2200
2200
23FF
ENDCHAR
STARTCHAR 5025
ENCODING 20517
SWIDTH 1020 0
DWIDTH 17 0
BBX 15 17 0 -2
BITMAP
0020
1020
1020
1FFE
28D2
28D2
28D0
E0D2
E0D2
271E
2000
2000
21FC
2020
2020
2020
2FFE
ENDCHAR
STARTCHAR 5026
ENCODING 20518
SWIDTH 1020 0
DWIDTH 17 0
BBX 15 17 0 -2
BITMAP
00C0
1222
1222
110C
310C
2FFE
2110
EFFE
210C
210C
23FE
3C0C
3C0C
23FC
2202
2202
23FE
ENDCHAR
STARTCHAR 5028
ENCODING 20520
SWIDTH 1020 0
DWIDTH 17 0
BBX 16 15 0 -2
BITMAP
1BFF
1A03
2203
23FF
2208
E3FF
2208
2208
2208
23FF
23FF
2583
2583
2583
21FF
ENDCHAR
STARTCHAR 5029
ENCODING 20521
SWIDTH 1020 0
DWIDTH 17 0
BBX 15 17 0 -2
BITMAP
0020
0020
1020
13FE
2020
2020
23FE
E020
E020
2FFE
2222
2222
2222
23FE
2202
2202
2206
ENDCHAR
STARTCHAR 502A
ENCODING 20522
SWIDTH 1020 0
DWIDTH 17 0
BBX 16 16 0 -2
BITMAP
0030
1040
138F
338F
2203
23CF
E203
2203
2203
23FF
2048
2048
2048
218B
200B
2E0F
ENDCHAR
STARTCHAR 502B
ENCODING 20523
SWIDTH 1020 0
DWIDTH 17 0
BBX 16 15 0 -2
BITMAP
1878
1984
2203
2203
25FF
E000
E000
23FF
224B
224B
224B
23FF
224B
224B
224B
ENDCHAR
STARTCHAR 502C
ENCODING 20524
SWIDTH 1020 0
DWIDTH 17 0
BBX 15 17 0 -2
BITMAP
00C0
00C0
10C0
10FE
20C0
20C0
27FE
E602
E602
27FE
2602
2602
27FE
2020
2FFE
2020
2020
ENDCHAR
STARTCHAR 502D
ENCODING 20525
SWIDTH 1020 0
DWIDTH 17 0
BBX 16 15 0 -2
BITMAP
17FF
1020
2020
2FFF
2060
E1A4
2623
2623
2FFF
2104
2104
2118
2078
2008
2F07
ENDCHAR
STARTCHAR 5036
ENCODING 20534
SWIDTH 1020 0
DWIDTH 17 0
BBX 16 15 0 -2
BITMAP
1BFC
1A04
2204
23FC
2204
E3FC
2204
2204
2204
2204
27FF
2000
2204
2004
2403
ENDCHAR
STARTCHAR 5039
ENCODING 20537
SWIDTH 1020 0
DWIDTH 17 0
BBX 16 15 0 -2
BITMAP
1078
1184
2184
23FF
2C30
E3FF
2233
2233
2233
2233
23FF
2030
21C8
2008
2E07
ENDCHAR
STARTCHAR 5043
ENCODING 20547
SWIDTH 1020 0
DWIDTH 17 0
BBX 16 15 0 -2
BITMAP
13FF
1243
2243
227F
2243
E27F
2208
2208
23FF
2234
2234
223C
2243
2243
23FF
ENDCHAR
STARTCHAR 5047
ENCODING 20551
SWIDTH 1020 0
DWIDTH 17 0
BBX 15 15 0 -2
BITMAP
13FE
1222
3222
2222
23E6
E200
223E
223E
23C2
221A
221A
23DA
221C
2200
22E2
ENDCHAR
STARTCHAR 5048
ENCODING 20552
SWIDTH 1020 0
DWIDTH 17 0
BBX 15 15 0 -2
BITMAP
13FC
1204
2204
23FC
2204
E3FC
2180
2180
23FE
23FE
2E22
225A
23E2
2004
201C
ENDCHAR
STARTCHAR 5049
ENCODING 20553
SWIDTH 1020 0
DWIDTH 17 0
BBX 15 16 0 -2
BITMAP
0020
1020
17FE
37FE
20C2
2FFE
E60C
E60C
27FC
2020
2020
27FE
2620
2FFE
2020
2020
ENDCHAR
STARTCHAR 504F
ENCODING 20559
SWIDTH 1020 0
DWIDTH 17 0
BBX 16 15 0 -2
BITMAP
13FF
1000
2000
23FF
2203
E3FF
2200
2200
2FFF
324B
324B
23FF
224B
224B
224B
ENDCHAR
STARTCHAR 5050
ENCODING 20560
SWIDTH 1020 0
DWIDTH 17 0
BBX 16 17 0 -2
BITMAP
0030
0030
1830
1BFF
3BFF
2184
2078
E184
E184
23FF
2243
220C
220C
2470
2407
2407
21F8
ENDCHAR
STARTCHAR 5055
ENCODING 20565
SWIDTH 1020 0
DWIDTH 17 0
BBX 16 17 0 -2
BITMAP
0018
1218
1218
13DF
33DF
2218
2218
E3C7
2000
2020
23FF
2203
2203
23FF
2203
2203
23FF
ENDCHAR
STARTCHAR 5056
ENCODING 20566
SWIDTH 1020 0
DWIDTH 17 0
BBX 16 17 0 -2
BITMAP
0020
0020
1820
1BFF
2023
2023
2024
E7FF
2044
2044
21FF
2383
2383
25FF
2183
2183
21FF
ENDCHAR
STARTCHAR 505A
ENCODING 20570
SWIDTH 1020 0
DWIDTH 17 0
BBX 16 17 0 -2
BITMAP
0230
0230
1A30
1A3F
3A3F
27F3
2233
E203
220B
220B
27CB
2444
2444
2444
244B
244B
27F3
ENDCHAR
STARTCHAR 505C
ENCODING 20572
SWIDTH 1020 0
DWIDTH 17 0
BBX 16 17 0 -2
BITMAP
0040
0040
1840
1FFF
2204
2204
23FC
E000
E000
27FF
2403
2003
23FF
2020
2020
2020
21E0
ENDCHAR
STARTCHAR 5065
ENCODING 20581
SWIDTH 1020 0
DWIDTH 17 0
BBX 16 17 0 -2
BITMAP
0008
0008
1808
1EFF
220B
220B
23FF
E40B
E40B
26FF
2208
2208
3BFF
2408
2600
2A00
39FF
ENDCHAR
STARTCHAR 506C
ENCODING 20588
SWIDTH 1020 0
DWIDTH 17 0
BBX 16 17 0 -2
BITMAP
0180
0180
1980
1BFF
3FFF
244B
238B
E273
245B
244B
2004
2040
2040
2224
3A03
3A03
21F8
ENDCHAR
STARTCHAR 5072
ENCODING 20594
SWIDTH 1020 0
DWIDTH 17 0
BBX 15 15 0 -2
BITMAP
1BFE
1A22
3A22
23FE
2222
E222
E222
23FE
20C0
2024
2024
2502
3900
3900
20FC
ENDCHAR
STARTCHAR 5074
ENCODING 20596
SWIDTH 1020 0
DWIDTH 17 0
BBX 15 15 0 -2
BITMAP
0FC2
1C4A
1C4A
2FCA
EC4A
2FCA
2C4A
2C4A
2C4A
2C4A
2FCA
2002
2C42
2042
303E
ENDCHAR
STARTCHAR 5075
ENCODING 20597
SWIDTH 1020 0
DWIDTH 17 0
BBX 16 17 0 -2
BITMAP
0040
0040
1040
107F
2040
2040
23FF
E203
E203
23FF
2203
2203
23FF
2000
2184
2004
2E03
ENDCHAR
STARTCHAR 5076
ENCODING 20598
SWIDTH 1020 0
DWIDTH 17 0
BBX 15 15 0 -2
BITMAP
13FE
1232
3232
23FE
2232
E3FE
2030
2030
23FE
2242
2242
224A
23FA
2202
220E
ENDCHAR
STARTCHAR 5078
ENCODING 20600
SWIDTH 1020 0
DWIDTH 17 0
BBX 16 15 0 -2
BITMAP
1BF8
1984
2207
2203
25FF
E000
27CB
27CB
244B
27F4
27F4
2474
27CB
27CB
244B
ENDCHAR
STARTCHAR 507D
ENCODING 20605
SWIDTH 1020 0
DWIDTH 17 0
BBX 15 17 0 -2
BITMAP
0218
0218
1998
1820
3820
27F8
2198
E3FC
2004
2404
3FFE
2002
2002
25A2
25A2
25A2
201C
ENDCHAR
STARTCHAR 5080
ENCODING 20608
SWIDTH 1020 0
DWIDTH 17 0
BBX 16 16 0 -2
BITMAP
0020
1040
13FF
33FF
2223
23FF
E223
2223
2223
23FF
21A4
21A4
21A4
2223
2223
221F
ENDCHAR
STARTCHAR 5085
ENCODING 20613
SWIDTH 1020 0
DWIDTH 17 0
BBX 15 17 0 -2
BITMAP
0020
0020
1022
17FE
37FE
2020
27FE
E622
27FE
27FE
2622
200C
200C
2FFE
210C
210C
20DC
ENDCHAR
STARTCHAR 508D
ENCODING 20621
SWIDTH 1020 0
DWIDTH 17 0
BBX 15 17 0 -2
BITMAP
0020
0020
1820
1FFE
2198
2198
2198
E7FE
2442
2442
23FE
2180
2180
21FE
2202
2202
221C
ENDCHAR
STARTCHAR 5091
ENCODING 20625
SWIDTH 1020 0
DWIDTH 17 0
BBX 15 17 0 -2
BITMAP
000C
000C
17CC
16FE
3EFE
2ECC
21FE
E10C
E10C
2E2C
2020
2020
2FFE
20E0
212C
2024
2E22
ENDCHAR
STARTCHAR 5098
ENCODING 20632
SWIDTH 1020 0
DWIDTH 17 0
BBX 15 15 0 -2
BITMAP
0FE0
1018
1118
6D24
911A
6D24
1118
1118
6D24
8102
8102
FFFE
0100
0100
0100
ENDCHAR
STARTCHAR 5099
ENCODING 20633
SWIDTH 1020 0
DWIDTH 17 0
BBX 15 17 0 -2
BITMAP
0118
0118
1118
1FFE
2118
2118
23FE
E200
E200
23FE
2E22
2E22
33FE
2222
23FE
2222
2222
ENDCHAR
STARTCHAR 509A
ENCODING 20634
SWIDTH 1020 0
DWIDTH 17 0
BBX 16 17 0 -2
BITMAP
0188
0188
1988
1FFF
200B
200B
224B
E433
2003
2003
2034
2244
2244
2184
224B
224B
2433
ENDCHAR
STARTCHAR 50AC
ENCODING 20652
SWIDTH 1020 0
DWIDTH 17 0
BBX 16 17 0 -2
BITMAP
0020
0020
1223
1223
33FF
23FF
2104
E3FF
2E18
2E18
33FF
2218
2218
23FF
2218
2218
23FF
ENDCHAR
STARTCHAR 50AD
ENCODING 20653
SWIDTH 1020 0
DWIDTH 17 0
BBX 15 17 0 -2
BITMAP
0020
0020
1020
13FE
33FE
2222
23FE
E222
E222
22FE
2220
2220
2FFE
3222
23FE
2222
2222
ENDCHAR
STARTCHAR 50B2
ENCODING 20658
SWIDTH 1020 0
DWIDTH 17 0
BBX 16 17 0 -2
BITMAP
0188
0188
1988
1FCF
218B
218B
27FB
E183
E183
27FB
220B
23C4
23C4
2444
204B
204B
23B3
ENDCHAR
STARTCHAR 50B3
ENCODING 20659
SWIDTH 1020 0
DWIDTH 17 0
BBX 15 17 0 -2
BITMAP
0020
0020
1020
1FFE
2622
2622
27FE
E622
E622
2FFE
200C
200C
2FFE
200C
210C
210C
20DC
ENDCHAR
STARTCHAR 50B4
ENCODING 20660
SWIDTH 1020 0
DWIDTH 17 0
BBX 16 15 0 -2
BITMAP
13FF
1200
2200
227C
2244
E27C
2200
2200
23CF
224B
224B
23CF
2200
2200
23FF
ENDCHAR
STARTCHAR 50B5
ENCODING 20661
SWIDTH 1020 0
DWIDTH 17 0
BBX 15 17 0 -2
BITMAP
0020
0020
1020
1FFE
2020
2020
23FE
E020
E020
2FFE
220C
220C
23FC
220C
23FC
200C
3C0E
ENDCHAR
STARTCHAR 50B7
ENCODING 20663
SWIDTH 1020 0
DWIDTH 17 0
BBX 16 17 0 -2
BITMAP
0180
0180
1180
13FF
3FFF
2E04
23FC
E204
E204
23FF
2180
2180
2FFF
2223
2C43
2000
219C
ENDCHAR
STARTCHAR 50BE
ENCODING 20670
SWIDTH 1020 0
DWIDTH 17 0
BBX 16 15 0 -2
BITMAP
19FF
1808
240F
247F
2443
E5FF
2643
2643
247F
2443
2443
267F
2044
2044
2383
ENDCHAR
STARTCHAR 50C2
ENCODING 20674
SWIDTH 1020 0
DWIDTH 17 0
BBX 16 17 0 -2
BITMAP
0020
0020
1020
13FF
33FF
2223
2FFF
E223
E223
23FF
2223
2223
2FFF
2104
21F8
2008
2E07
ENDCHAR
STARTCHAR 50C5
ENCODING 20677
SWIDTH 1020 0
DWIDTH 17 0
BBX 15 17 0 -2
BITMAP
0110
0110
1110
1FFE
2110
2110
27FE
E622
2622
2622
27FE
2020
2020
27FE
2020
2020
2FFE
ENDCHAR
STARTCHAR 50C9
ENCODING 20681
SWIDTH 1020 0
DWIDTH 17 0
BBX 15 15 0 -2
BITMAP
0FE0
1010
1010
7FFC
8002
7E7C
624C
624C
624C
624C
7E7C
1010
6C2C
0400
8242
ENDCHAR
STARTCHAR 50CA
ENCODING 20682
SWIDTH 1020 0
DWIDTH 17 0
BBX 16 15 0 -2
BITMAP
1BFF
1848
3848
23FF
224B
E3FF
2030
2030
27FF
2184
2184
23FC
2583
2183
21FF
ENDCHAR
STARTCHAR 50CD
ENCODING 20685
SWIDTH 1020 0
DWIDTH 17 0
BBX 15 17 0 -2
BITMAP
0018
0018
1FF8
1198
2198
2FFE
2D9A
EFFA
2D9A
2D9A
2FFA
219A
219A
2FE2
2182
2182
2FDC
ENDCHAR
STARTCHAR 50CF
ENCODING 20687
SWIDTH 1020 0
DWIDTH 17 0
BBX 15 15 0 -2
BITMAP
11FC
1218
2218
2FFE
2222
E222
E222
23FE
2118
2018
2E3A
21DC
2E1A
2000
20E0
ENDCHAR
STARTCHAR 50D1
ENCODING 20689
SWIDTH 1020 0
DWIDTH 17 0
BBX 16 15 0 -2
BITMAP
1BFF
1840
2040
27FF
2188
E38C
E38C
25FB
3800
3800
27FF
258B
25FB
2403
240F
ENDCHAR
STARTCHAR 50D5
ENCODING 20693
SWIDTH 1020 0
DWIDTH 17 0
BBX 15 17 0 -2
BITMAP
0120
0120
112C
1FFE
2110
2110
2110
EFFE
2020
2020
27FE
2020
2020
2FFE
2110
2110
2E0E
ENDCHAR
STARTCHAR 50D6
ENCODING 20694
SWIDTH 1020 0
DWIDTH 17 0
BBX 16 17 0 -2
BITMAP
0020
0020
1020
1FFF
2020
2020
23FF
E203
E203
23FF
2184
2184
2FFF
2203
2203
2203
23FF
ENDCHAR
STARTCHAR 50DA
ENCODING 20698
SWIDTH 1020 0
DWIDTH 17 0
BBX 16 17 0 -2
BITMAP
0020
0020
1820
1FFF
3FFF
2584
23FF
E203
E203
27FF
3A03
3A03
23FF
2020
2224
2024
2463
ENDCHAR
STARTCHAR 50DE
ENCODING 20702
SWIDTH 1020 0
DWIDTH 17 0
BBX 15 15 0 -2
BITMAP
1BFE
1A44
3E66
2422
27FC
E204
E204
23FE
2202
2202
23FE
2402
2402
25A2
225C
ENDCHAR
STARTCHAR 50E3
ENCODING 20707
SWIDTH 1020 0
DWIDTH 17 0
BBX 16 17 0 -2
BITMAP
0188
0188
1988
1FFF
2188
2188
27FF
E234
2443
2443
23FC
2204
2204
23FC
2204
2204
23FC
ENDCHAR
STARTCHAR 50E5
ENCODING 20709
SWIDTH 1020 0
DWIDTH 17 0
BBX 15 17 0 -2
BITMAP
0020
0020
1020
17FE
2020
2020
2FFE
E10C
E10C
2FDE
210C
210C
2FFE
20D0
2112
2012
2E1E
ENDCHAR
STARTCHAR 50E7
ENCODING 20711
SWIDTH 1020 0
DWIDTH 17 0
BBX 16 16 0 -2
BITMAP
0184
1998
1FFF
3FFF
2423
27FF
E423
E423
27FF
2204
2204
23FC
2204
2204
2204
23FC
ENDCHAR
STARTCHAR 50ED
ENCODING 20717
SWIDTH 1020 0
DWIDTH 17 0
BBX 15 17 0 -2
BITMAP
0188
0188
1988
1FFE
2588
2588
27FE
E234
E234
2446
23FC
2204
2204
23FC
2204
2204
23FC
ENDCHAR
STARTCHAR 50EE
ENCODING 20718
SWIDTH 1020 0
DWIDTH 17 0
BBX 15 17 0 -2
BITMAP
0020
0020
1020
1FFE
210C
210C
210C
EFFE
2622
2622
27FE
2622
2622
27FE
2020
2020
2FFE
ENDCHAR
STARTCHAR 50F5
ENCODING 20725
SWIDTH 1020 0
DWIDTH 17 0
BBX 15 15 0 -2
BITMAP
1FFE
1222
2222
23FE
2222
E3FE
2000
2000
2FFE
2222
2222
23FE
2222
2222
2FFE
ENDCHAR
STARTCHAR 50F9
ENCODING 20729
SWIDTH 1020 0
DWIDTH 17 0
BBX 16 15 0 -2
BITMAP
1FFF
1048
2048
2FFF
2C4B
EFFF
2204
2204
23FC
2204
2204
23FC
2184
2000
2E03
ENDCHAR
STARTCHAR 50FB
ENCODING 20731
SWIDTH 1020 0
DWIDTH 17 0
BBX 16 17 0 -2
BITMAP
0018
0F18
0F18
19FF
2924
2924
E924
2F24
2824
28FF
2F18
3918
3918
29FF
2918
2918
2F18
ENDCHAR
STARTCHAR 5100
ENCODING 20736
SWIDTH 1020 0
DWIDTH 17 0
BBX 16 17 0 -2
BITMAP
0104
0100
1118
1FFF
2020
2020
27FF
E020
E020
2FFF
2620
2620
3FFF
2623
2F1C
2624
26E3
ENDCHAR
STARTCHAR 5101
ENCODING 20737
SWIDTH 1020 0
DWIDTH 17 0
BBX 15 16 0 -2
BITMAP
0118
1118
17FE
37FE
2620
2FFE
E620
E620
27FE
2000
2000
27DE
26DA
26FA
2602
260E
ENDCHAR
STARTCHAR 5102
ENCODING 20738
SWIDTH 1020 0
DWIDTH 17 0
BBX 16 17 0 -2
BITMAP
0048
0048
1848
1BFF
3BFF
224B
23FF
E24B
E24B
23FF
2200
23FF
23FF
25B4
2588
2588
21C7
ENDCHAR
STARTCHAR 5104
ENCODING 20740
SWIDTH 1020 0
DWIDTH 17 0
BBX 16 17 0 -2
BITMAP
0020
0020
1820
1FFF
2184
2184
27FF
E203
E203
23FF
2203
2203
23FF
21A0
2584
2180
39FB
ENDCHAR
STARTCHAR 5109
ENCODING 20745
SWIDTH 1020 0
DWIDTH 17 0
BBX 16 15 0 -2
BITMAP
19FC
1A03
2403
25FF
2000
E3CF
224B
224B
224B
23CF
23CF
2184
224B
224B
2433
ENDCHAR
STARTCHAR 5112
ENCODING 20754
SWIDTH 1020 0
DWIDTH 17 0
BBX 15 15 0 -2
BITMAP
17FE
1020
2020
27FE
2622
E6EE
2000
2000
2FFE
2020
2020
27FE
26DA
26DA
26DA
ENDCHAR
STARTCHAR 5114
ENCODING 20756
SWIDTH 1020 0
DWIDTH 17 0
BBX 15 17 0 -2
BITMAP
0030
0030
1030
13FE
2030
2030
2FFE
E002
E002
23FC
2030
2030
2FFE
2242
224A
224A
23CE
ENDCHAR
STARTCHAR 5115
ENCODING 20757
SWIDTH 1020 0
DWIDTH 17 0
BBX 16 17 0 -2
BITMAP
0040
1840
1840
1FFF
25A4
25A4
25E4
FBBB
2204
2204
23FC
2204
2204
23FC
2404
2404
2404
ENDCHAR
STARTCHAR 5116
ENCODING 20758
SWIDTH 1020 0
DWIDTH 17 0
BBX 15 15 0 -2
BITMAP
13EC
1250
33FE
23FE
2220
E3E0
E3E0
225E
2240
2240
23FE
2252
2252
2252
2FFE
ENDCHAR
STARTCHAR 5118
ENCODING 20760
SWIDTH 1020 0
DWIDTH 17 0
BBX 16 17 0 -2
BITMAP
0030
0030
1830
1BFF
2033
2033
27FF
E033
E033
23FF
2244
2433
2433
23FF
224B
224B
27FF
ENDCHAR
STARTCHAR 511A
ENCODING 20762
SWIDTH 1020 0
DWIDTH 17 0
BBX 15 17 0 -2
BITMAP
0198
0198
1198
1FFE
3FFE
2198
23FE
E2DA
E2DA
2FFE
2D82
2D82
21FC
2EC4
2038
2000
23C0
ENDCHAR
STARTCHAR 511F
ENCODING 20767
SWIDTH 1020 0
DWIDTH 17 0
BBX 16 17 0 -2
BITMAP
0020
0020
1124
1FFF
3FFF
2D1B
2D18
E3FF
2203
2203
23FF
2203
2203
23FF
2104
2104
2E03
ENDCHAR
STARTCHAR 5121
ENCODING 20769
SWIDTH 1020 0
DWIDTH 17 0
BBX 16 15 0 -2
BITMAP
1BFC
1A34
3A34
23FC
2234
E3FC
2000
2000
27FF
244B
244B
27FF
244B
244B
27FF
ENDCHAR
STARTCHAR 512A
ENCODING 20778
SWIDTH 1020 0
DWIDTH 17 0
BBX 16 15 0 -2
BITMAP
1FFF
1604
1604
17FC
2604
3FFF
3FFF
E6DB
2904
2904
21FF
2F04
20F8
2008
2F07
ENDCHAR
STARTCHAR 5132
ENCODING 20786
SWIDTH 1020 0
DWIDTH 17 0
BBX 16 17 0 -2
BITMAP
0018
0018
1F18
103F
303F
2F18
201B
EF3F
2018
2018
203F
2FE3
2FE3
293F
2923
2923
2F3F
ENDCHAR
STARTCHAR 5137
ENCODING 20791
SWIDTH 1020 0
DWIDTH 17 0
BBX 16 15 0 -2
BITMAP
1BDF
1800
2000
27DF
225B
E020
E020
23FF
225B
23FF
23FF
2598
25FB
25FB
239F
ENDCHAR
STARTCHAR 513A
ENCODING 20794
SWIDTH 1020 0
DWIDTH 17 0
BBX 16 17 0 -2
BITMAP
0030
0030
1B34
1FF4
233F
233F
27F4
E4BF
E4BF
27F4
2334
3FFF
3FFF
2334
24B4
2834
387F
ENDCHAR
STARTCHAR 513B
ENCODING 20795
SWIDTH 1020 0
DWIDTH 17 0
BBX 16 16 0 -2
BITMAP
0030
11B4
1FFF
3FFF
218B
23FF
E233
E233
23FF
2030
2030
23FF
2030
2FFF
224B
224B
ENDCHAR
STARTCHAR 513C
ENCODING 20796
SWIDTH 1020 0
DWIDTH 17 0
BBX 16 15 0 -2
BITMAP
1BCF
1A4B
3E4B
27FF
2588
E7CF
244B
244B
27F3
244B
244B
27CB
3C4C
2054
2063
ENDCHAR
STARTCHAR 513F
ENCODING 20799
SWIDTH 1020 0
DWIDTH 17 0
BBX 15 16 0 -2
BITMAP
1040
1040
1040
1040
1040
1040
1040
1040
1040
1040
6042
6042
6042
8042
8042
807E
ENDCHAR
STARTCHAR 5140
ENCODING 20800
SWIDTH 1020 0
DWIDTH 17 0
BBX 15 15 0 -2
BITMAP
FFFE
0CC0
0CC0
0CC0
0CC0
0CC0
0CC0
10C0
10C0
60C2
60C2
60C2
80C2
80C2
80FE
ENDCHAR
STARTCHAR 5141
ENCODING 20801
SWIDTH 1020 0
DWIDTH 17 0
BBX 15 17 0 -2
BITMAP
0600
0600
0600
0810
0810
0810
100C
FFFC
0842
0842
0842
0840
0840
0840
1042
0042
E07E
ENDCHAR
STARTCHAR 5143
ENCODING 20803
SWIDTH 1020 0
DWIDTH 17 0
BBX 15 15 0 -2
BITMAP
7FFC
0000
0000
0000
0000
FFFE
0840
0840
0840
0840
0840
0842
1042
0042
E07E
ENDCHAR
STARTCHAR 5144
ENCODING 20804
SWIDTH 1020 0
DWIDTH 17 0
BBX 15 15 0 -2
BITMAP
1FF0
1010
1010
1010
1010
1010
1010
1FF0
0840
0840
0840
0842
1042
0042
E07E
ENDCHAR
STARTCHAR 5145
ENCODING 20805
SWIDTH 1020 0
DWIDTH 17 0
BBX 15 17 0 -2
BITMAP
0100
0100
0100
FFFE
0600
0600
0620
0818
0818
7FFC
08C2
08C0
08C0
08C0
10C2
0042
E03E
ENDCHAR
STARTCHAR 5146
ENCODING 20806
SWIDTH 1020 0
DWIDTH 17 0
BBX 15 17 0 -2
BITMAP
0040
0040
0840
8842
684C
684C
0850
0840
0840
1850
684C
684C
8842
0840
1042
0042
E07E
ENDCHAR
STARTCHAR 5147
ENCODING 20807
SWIDTH 1020 0
DWIDTH 17 0
BBX 16 15 0 -2
BITMAP
2424
2244
2244
2184
2244
2424
2004
2004
3FFC
0440
0440
0443
1843
0003
E03F
ENDCHAR
STARTCHAR 5148
ENCODING 20808
SWIDTH 1020 0
DWIDTH 17 0
BBX 15 17 0 -2
BITMAP
0100
0100
1100
1100
1FFC
1FFC
6100
8100
8100
FFFE
0220
0220
0220
0220
0C22
0022
F03E
ENDCHAR
STARTCHAR 5149
ENCODING 20809
SWIDTH 1020 0
DWIDTH 17 0
BBX 15 17 0 -2
BITMAP
0100
0100
0100
610C
610C
1110
0100
0100
0100
FFFE
08C0
08C0
08C0
08C2
10C2
00C2
E0FE
ENDCHAR
STARTCHAR 514B
ENCODING 20811
SWIDTH 1020 0
DWIDTH 17 0
BBX 15 17 0 -2
BITMAP
0100
0100
0100
FFFE
0100
0100
1FF0
1010
1010
1010
1FF0
08C0
08C0
08C2
10C2
00C2
E0FE
ENDCHAR
STARTCHAR 514C
ENCODING 20812
SWIDTH 1020 0
DWIDTH 17 0
BBX 15 15 0 -2
BITMAP
11F0
1010
600C
600C
7FFC
9012
9012
9012
1FF0
0840
0840
0842
1042
0042
E07E
ENDCHAR
STARTCHAR 514D
ENCODING 20813
SWIDTH 1020 0
DWIDTH 17 0
BBX 15 15 0 -2
BITMAP
0FE0
1020
60C0
60C0
FFFC
6104
6104
6104
7FFC
08C0
08C0
08C2
10C2
00C2
E0FE
ENDCHAR
STARTCHAR 514E
ENCODING 20814
SWIDTH 1020 0
DWIDTH 17 0
BBX 15 15 0 -2
BITMAP
00FE
FF00
0100
0100
7FFC
610C
610C
610C
7FFC
08D0
08D0
08CC
10C2
0002
E03E
ENDCHAR
STARTCHAR 5150
ENCODING 20816
SWIDTH 1020 0
DWIDTH 17 0
BBX 16 15 0 -2
BITMAP
23FC
2204
2204
2204
23FC
2204
2204
2204
23FC
0220
0220
0223
0423
0023
F03F
ENDCHAR
STARTCHAR 5152
ENCODING 20818
SWIDTH 1020 0
DWIDTH 17 0
BBX 15 17 0 -2
BITMAP
0100
0600
0600
783C
6004
6004
7EFC
6004
6004
6004
7FFC
08C0
08C0
08C2
10C2
00C2
E0FE
ENDCHAR
STARTCHAR 5154
ENCODING 20820
SWIDTH 1020 0
DWIDTH 17 0
BBX 15 15 0 -2
BITMAP
0FE0
1020
60C0
60C0
FFFC
6104
6104
6104
7FFC
0920
0920
091A
1102
0102
E1FE
ENDCHAR
STARTCHAR 515A
ENCODING 20826
SWIDTH 1020 0
DWIDTH 17 0
BBX 15 17 0 -2
BITMAP
0100
0100
110C
1110
1110
FFFE
8002
9FF2
1010
1010
1010
1010
1FF0
08C2
10C2
00C2
E0FE
ENDCHAR
STARTCHAR 515C
ENCODING 20828
SWIDTH 1020 0
DWIDTH 17 0
BBX 15 17 0 -2
BITMAP
0100
0000
0600
EFEE
8822
8822
8FE2
8822
8822
8822
EFEE
00C0
00C0
08C0
08C2
08C2
F0FE
ENDCHAR
STARTCHAR 5162
ENCODING 20834
SWIDTH 1020 0
DWIDTH 17 0
BBX 15 17 0 -2
BITMAP
1010
1010
1010
FEFE
1010
1010
FEFE
8282
8282
8282
FEFE
6C6C
6C6C
6C6C
8C8C
8C8C
8E8E
ENDCHAR
STARTCHAR 5165
ENCODING 20837
SWIDTH 1020 0
DWIDTH 17 0
BBX 15 15 0 -2
BITMAP
1F80
0180
0180
0180
0180
0180
03C0
0240
0240
0C20
0C20
1020
6010
0010
800E
ENDCHAR
STARTCHAR 5168
ENCODING 20840
SWIDTH 1020 0
DWIDTH 17 0
BBX 15 15 0 -2
BITMAP
03C0
0C20
0C20
1018
600C
9FFA
0100
0100
0100
0100
1FF8
0100
0100
0100
FFFE
ENDCHAR
STARTCHAR 5169
ENCODING 20841
SWIDTH 1020 0
DWIDTH 17 0
BBX 15 15 0 -2
BITMAP
FFFE
0100
0100
0100
FFFE
8102
8102
9932
8912
9932
9932
E3CE
8102
8102
810E
ENDCHAR
STARTCHAR 516A
ENCODING 20842
SWIDTH 1020 0
DWIDTH 17 0
BBX 15 15 0 -2
BITMAP
7FE0
0C18
0C18
1FE6
6000
FE22
FE22
8222
F2C4
82C4
82C4
F2C4
8222
8222
8E22
ENDCHAR
STARTCHAR 516B
ENCODING 20843
SWIDTH 1020 0
DWIDTH 17 0
BBX 15 15 0 -2
BITMAP
0FE0
0020
0020
0020
1020
1018
1018
1018
6018
6004
6004
6004
8002
8002
8002
ENDCHAR
STARTCHAR 516C
ENCODING 20844
SWIDTH 1020 0
DWIDTH 17 0
BBX 15 15 0 -2
BITMAP
01F8
1018
1018
1018
6004
6004
8202
8202
8202
0C18
0C18
0C18
10E4
1004
1F04
ENDCHAR
STARTCHAR 516D
ENCODING 20845
SWIDTH 1020 0
DWIDTH 17 0
BBX 15 17 0 -2
BITMAP
0100
0100
0100
0100
0100
FFFE
0000
0000
0000
1018
1018
600C
600C
600C
8002
8002
8002
ENDCHAR
STARTCHAR 516E
ENCODING 20846
SWIDTH 1020 0
DWIDTH 17 0
BBX 15 15 0 -2
BITMAP
11F0
1010
600C
600C
7FFC
8C02
8C02
8C02
0FF0
1010
1010
1010
0020
0000
01C0
ENDCHAR
STARTCHAR 5171
ENCODING 20849
SWIDTH 1020 0
DWIDTH 17 0
BBX 15 17 0 -2
BITMAP
0C20
0C20
0C20
0C20
0C20
7FFC
0C20
0C20
0C20
0C20
FFFE
0000
0000
0C20
1018
0008
600C
ENDCHAR
STARTCHAR 5175
ENCODING 20853
SWIDTH 1020 0
DWIDTH 17 0
BBX 15 15 0 -2
BITMAP
0038
1FC0
1000
1000
1FFC
1020
1020
1020
1020
1020
FFFE
0000
1C38
0008
E00E
ENDCHAR
STARTCHAR 5176
ENCODING 20854
SWIDTH 1020 0
DWIDTH 17 0
BBX 16 17 0 -2
BITMAP
0C20
0C20
0C20
FFFF
0C20
0C20
0FE0
0C20
0C20
0FE0
0C20
0C20
FFFF
0000
1C38
0008
E007
ENDCHAR
STARTCHAR 5177
ENCODING 20855
SWIDTH 1020 0
DWIDTH 17 0
BBX 16 15 0 -2
BITMAP
1FF8
1018
1018
1FF8
1018
1FF8
1018
1018
1018
1018
FFFF
0000
1C38
0008
E007
ENDCHAR
STARTCHAR 5178
ENCODING 20856
SWIDTH 1020 0
DWIDTH 17 0
BBX 15 17 0 -2
BITMAP
0240
0240
0240
7FFC
624C
624C
624C
7FFC
624C
624C
624C
624C
FFFE
0000
1C30
0010
E00E
ENDCHAR
STARTCHAR 517C
ENCODING 20860
SWIDTH 1020 0
DWIDTH 17 0
BBX 15 17 0 -2
BITMAP
0810
0800
0820
FFFE
0840
0840
7FF0
0850
0850
FFFE
0850
0850
7FF0
0840
684C
0844
8842
ENDCHAR
STARTCHAR 5180
ENCODING 20864
SWIDTH 1020 0
DWIDTH 17 0
BBX 15 17 0 -2
BITMAP
02C0
02C0
02CE
FEF8
02C2
02C2
FFFE
1118
1118
1FF8
1118
1118
7FFC
0C20
FFFE
1018
1018
ENDCHAR
STARTCHAR 5182
ENCODING 20866
SWIDTH 1020 0
DWIDTH 17 0
BBX 15 15 0 -2
BITMAP
FFFE
8002
8002
8002
8002
8002
8002
8002
8002
8002
8002
8002
8002
8002
801E
ENDCHAR
STARTCHAR 5185
ENCODING 20869
SWIDTH 1020 0
DWIDTH 17 0
BBX 15 17 0 -2
BITMAP
0180
0180
0180
0180
0180
FFFE
8182
8182
8182
8242
8C22
8C22
9012
8002
8002
8002
801E
ENDCHAR
STARTCHAR 5186
ENCODING 20870
SWIDTH 1020 0
DWIDTH 17 0
BBX 15 15 0 -2
BITMAP
FFFE
8102
8102
8102
8102
8102
8102
FFFE
8002
8002
8002
8002
8002
8002
801E
ENDCHAR
STARTCHAR 5189
ENCODING 20873
SWIDTH 1020 0
DWIDTH 17 0
BBX 15 17 0 -2
BITMAP
0100
0100
0100
7FFC
610C
610C
610C
7FFC
610C
610C
610C
610C
FFFE
600C
600C
600C
601C
ENDCHAR
STARTCHAR 518A
ENCODING 20874
SWIDTH 1020 0
DWIDTH 17 0
BBX 15 15 0 -2
BITMAP
7FFC
62CC
62CC
62CC
62CC
62CC
62CC
FFFE
62CC
62CC
62CC
62CC
62CC
62CC
601C
ENDCHAR
STARTCHAR 518C
ENCODING 20876
SWIDTH 1020 0
DWIDTH 17 0
BBX 15 15 0 -2
BITMAP
7E7C
6244
6244
6244
6244
FFFE
6244
6244
6244
6244
6244
6244
8244
8244
8E5C
ENDCHAR
STARTCHAR 518D
ENCODING 20877
SWIDTH 1020 0
DWIDTH 17 0
BBX 15 15 0 -2
BITMAP
FFFE
0100
0100
7FFC
610C
7FFC
610C
610C
610C
610C
FFFE
600C
600C
600C
601C
ENDCHAR
STARTCHAR 518F
ENCODING 20879
SWIDTH 1020 0
DWIDTH 17 0
BBX 15 15 0 -2
BITMAP
FFFE
8242
8242
8242
8C42
903E
903E
EFE2
8C22
8C22
8C22
8FE2
8002
8002
800E
ENDCHAR
STARTCHAR 5190
ENCODING 20880
SWIDTH 1020 0
DWIDTH 17 0
BBX 15 15 0 -2
BITMAP
FFFE
8002
8002
9FF2
8002
1FF0
1010
1010
1FF0
1010
1010
1FF0
1010
1010
1030
ENDCHAR
STARTCHAR 5191
ENCODING 20881
SWIDTH 1020 0
DWIDTH 17 0
BBX 15 17 0 -2
BITMAP
0100
0100
0100
FFFE
8102
8102
FFFE
8102
8102
FFFE
6004
6004
6FE4
6004
6FE4
6024
601C
ENDCHAR
STARTCHAR 5192
ENCODING 20882
SWIDTH 1020 0
DWIDTH 17 0
BBX 14 15 2 -2
BITMAP
FFFC
800C
800C
FFFC
800C
FFFC
0000
0000
7FF0
4010
4010
7FF0
4010
4010
7FF0
ENDCHAR
STARTCHAR 5193
ENCODING 20883
SWIDTH 1020 0
DWIDTH 17 0
BBX 15 17 0 -2
BITMAP
0C20
0C20
0C20
7FFC
0C20
0C20
FFFE
0100
0100
7FFC
610C
610C
7FFC
610C
FFFE
600C
600C
ENDCHAR
STARTCHAR 5195
ENCODING 20885
SWIDTH 1020 0
DWIDTH 17 0
BBX 16 15 0 -2
BITMAP
3FFC
2004
2004
2FE4
2004
2FE4
00C0
10C0
FFFC
2104
2104
3FFC
08C3
08C3
F0FF
ENDCHAR
STARTCHAR 5196
ENCODING 20886
SWIDTH 1020 0
DWIDTH 17 0
BBX 15 5 0 5
BITMAP
FFFE
8002
8002
8002
8002
ENDCHAR
STARTCHAR 5197
ENCODING 20887
SWIDTH 1020 0
DWIDTH 17 0
BBX 15 15 0 -2
BITMAP
FFFE
8002
8002
8002
0FE0
0820
0820
0820
0820
0820
0820
0822
1022
0022
E03E
ENDCHAR
STARTCHAR 5199
ENCODING 20889
SWIDTH 1020 0
DWIDTH 17 0
BBX 15 15 0 -2
BITMAP
FFFE
8C02
8C02
8FFA
0C00
1000
1000
1FF8
0018
0018
FFFE
0018
0020
0000
03C0
ENDCHAR
STARTCHAR 51A0
ENCODING 20896
SWIDTH 1020 0
DWIDTH 17 0
BBX 15 15 0 -2
BITMAP
FFFE
8002
0004
0004
FC04
01FE
0004
0004
FE44
6C24
6C24
6C04
8C02
8C02
8FFE
ENDCHAR
STARTCHAR 51A2
ENCODING 20898
SWIDTH 1020 0
DWIDTH 17 0
BBX 15 15 0 -2
BITMAP
FFFE
8002
8002
9FF2
1100
010C
010C
0ED0
78E0
78E0
09D0
0ECC
F0C2
0000
0700
ENDCHAR
STARTCHAR 51A4
ENCODING 20900
SWIDTH 1020 0
DWIDTH 17 0
BBX 15 15 0 -2
BITMAP
FFFE
C002
C002
CFE2
10C0
7FFC
7FFC
E104
6104
6104
7FFC
06D8
18C2
0042
E03E
ENDCHAR
STARTCHAR 51A5
ENCODING 20901
SWIDTH 1020 0
DWIDTH 17 0
BBX 15 15 0 -2
BITMAP
FFFE
8002
8002
9FF2
1010
1FF0
1010
1010
1FF0
0100
0100
FFFE
1010
1010
E00E
ENDCHAR
STARTCHAR 51A6
ENCODING 20902
SWIDTH 1020 0
DWIDTH 17 0
BBX 15 15 0 -2
BITMAP
FFFE
8002
8022
8022
FE3C
0020
0020
01FE
FE44
6C78
6C78
6D86
8C02
8C02
83FE
ENDCHAR
STARTCHAR 51A8
ENCODING 20904
SWIDTH 1020 0
DWIDTH 17 0
BBX 15 15 0 -2
BITMAP
FFFE
8002
8002
9FFA
0C20
0FE0
0000
0000
7FFC
6184
6184
7FFC
6184
6184
7FFC
ENDCHAR
STARTCHAR 51A9
ENCODING 20905
SWIDTH 1020 0
DWIDTH 17 0
BBX 15 15 0 -2
BITMAP
FFFE
8202
8002
9C72
1010
1E70
1010
1010
1010
7FFE
7FFE
8002
1242
1242
625C
ENDCHAR
STARTCHAR 51AA
ENCODING 20906
SWIDTH 1020 0
DWIDTH 17 0
BBX 15 15 0 -2
BITMAP
FFFE
8C22
0C24
7FFC
1018
1FF8
1018
1018
FFFE
1118
1118
7FFC
911A
1118
1138
ENDCHAR
STARTCHAR 51AB
ENCODING 20907
SWIDTH 1020 0
DWIDTH 17 0
BBX 10 15 3 -2
BITMAP
6000
1000
1000
0C00
0000
0000
0000
0000
0040
0040
0180
0200
1C00
0000
E000
ENDCHAR
STARTCHAR 51AC
ENCODING 20908
SWIDTH 1020 0
DWIDTH 17 0
BBX 15 17 0 -2
BITMAP
0200
0200
0200
03F8
0C18
0C18
7220
01C0
01C0
0E38
F106
F106
00E0
0000
1E00
0200
01F8
ENDCHAR
STARTCHAR 51B0
ENCODING 20912
SWIDTH 1020 0
DWIDTH 17 0
BBX 15 17 0 -2
BITMAP
0020
0020
0020
8020
8020
6F22
0124
0138
0138
0138
0624
6624
6624
6822
8822
8822
80E0
ENDCHAR
STARTCHAR 51B1
ENCODING 20913
SWIDTH 1020 0
DWIDTH 17 0
BBX 15 15 0 -2
BITMAP
0FFE
80C0
60C0
60C0
10FC
0104
0104
0104
01FC
6104
6104
6004
8004
8004
8FFE
ENDCHAR
STARTCHAR 51B2
ENCODING 20914
SWIDTH 1020 0
DWIDTH 17 0
BBX 15 17 0 -2
BITMAP
0020
0020
0020
8020
8020
63FE
0222
0222
0222
0222
03FE
6020
6020
6020
8020
8020
8020
ENDCHAR
STARTCHAR 51B3
ENCODING 20915
SWIDTH 1020 0
DWIDTH 17 0
BBX 15 17 0 -2
BITMAP
0020
0020
0020
83FE
83FE
6022
0022
0022
0022
0FFE
0020
6020
6020
6050
818C
818C
8E02
ENDCHAR
STARTCHAR 51B4
ENCODING 20916
SWIDTH 1020 0
DWIDTH 17 0
BBX 15 15 0 -2
BITMAP
0FFE
810C
810C
610C
010C
0FFE
000C
000C
001C
60EC
60EC
6F0C
800C
800C
803C
ENDCHAR
STARTCHAR 51B5
ENCODING 20917
SWIDTH 1020 0
DWIDTH 17 0
BBX 15 15 0 -2
BITMAP
03FE
8202
8202
6202
0202
03FE
0050
0050
0050
6050
6050
6052
8192
8192
8E1E
ENDCHAR
STARTCHAR 51B6
ENCODING 20918
SWIDTH 1020 0
DWIDTH 17 0
BBX 15 17 0 -2
BITMAP
0040
0040
0040
8182
6202
6202
13FE
0000
0000
0000
03FE
0202
0202
1202
6202
0202
83FE
ENDCHAR
STARTCHAR 51B7
ENCODING 20919
SWIDTH 1020 0
DWIDTH 17 0
BBX 15 15 0 -2
BITMAP
01F8
8604
6802
6802
07FC
0000
0000
0000
6FFE
6FFE
60C2
80C2
80DC
80DC
00C0
ENDCHAR
STARTCHAR 51BD
ENCODING 20925
SWIDTH 1020 0
DWIDTH 17 0
BBX 15 15 0 -2
BITMAP
1FE2
821A
621A
621A
03DA
0CDA
0CDA
0CDA
02DA
611A
611A
6102
8202
8202
9C0E
ENDCHAR
STARTCHAR 51C4
ENCODING 20932
SWIDTH 1020 0
DWIDTH 17 0
BBX 15 17 0 -2
BITMAP
00C0
00C0
00C0
8FFE
60CC
60CC
0FFE
00CC
00CC
03FC
00C0
6FFE
6FFE
610C
81F8
8E0E
8E0E
ENDCHAR
STARTCHAR 51C5
ENCODING 20933
SWIDTH 1020 0
DWIDTH 17 0
BBX 15 15 0 -2
BITMAP
03FE
8222
6222
6222
03FE
0222
0222
0272
0252
6252
6252
6272
8202
8202
83FE
ENDCHAR
STARTCHAR 51C6
ENCODING 20934
SWIDTH 1020 0
DWIDTH 17 0
BBX 15 17 0 -2
BITMAP
0100
0100
0110
8110
8110
67FE
0620
0FFE
0620
0620
0620
67FE
67FE
6620
8620
8620
87FE
ENDCHAR
STARTCHAR 51C9
ENCODING 20937
SWIDTH 1020 0
DWIDTH 17 0
BBX 15 17 0 -2
BITMAP
0020
0020
0020
8FFE
6000
6000
07FC
0604
0604
0604
07FC
6020
6020
6624
8822
8822
80E0
ENDCHAR
STARTCHAR 51CB
ENCODING 20939
SWIDTH 1020 0
DWIDTH 17 0
BBX 15 15 0 -2
BITMAP
0FFE
8CC2
6CC2
6CC2
0FF2
0CC2
0CC2
0FF2
6C02
6DF2
6DF2
8D12
91F2
91F2
100E
ENDCHAR
STARTCHAR 51CC
ENCODING 20940
SWIDTH 1020 0
DWIDTH 17 0
BBX 15 17 0 -2
BITMAP
0020
0020
0020
8FFE
6020
6020
0FFE
0118
0118
0E06
01FC
6E04
6E04
6118
80F8
8008
8F06
ENDCHAR
STARTCHAR 51CD
ENCODING 20941
SWIDTH 1020 0
DWIDTH 17 0
BBX 15 17 0 -2
BITMAP
0020
0020
0020
8FFE
6020
6020
07FE
0622
0622
07FE
0622
67FE
67FE
60E0
812C
812C
8E22
ENDCHAR
STARTCHAR 51D6
ENCODING 20950
SWIDTH 1020 0
DWIDTH 17 0
BBX 15 17 0 -2
BITMAP
0118
0118
0118
83FE
6E20
6E20
03FC
0220
0220
6220
83FE
0100
0100
FFFE
0100
0100
0100
ENDCHAR
STARTCHAR 51DB
ENCODING 20955
SWIDTH 1020 0
DWIDTH 17 0
BBX 15 17 0 -2
BITMAP
0020
0020
0020
8FFE
66D2
66D2
06F2
0602
0602
07FE
0000
0000
6FFE
6020
862C
862C
88E2
ENDCHAR
STARTCHAR 51DC
ENCODING 20956
SWIDTH 1020 0
DWIDTH 17 0
BBX 15 17 0 -2
BITMAP
0020
0020
0020
8FFE
66D2
66D2
06F2
0602
0602
07FE
0020
6FFE
6FFE
60E0
812C
812C
8E22
ENDCHAR
STARTCHAR 51DD
ENCODING 20957
SWIDTH 1020 0
DWIDTH 17 0
BBX 15 15 0 -2
BITMAP
0CFE
8F0C
6C10
6C10
03FE
0C12
0C12
0F90
0210
6F9E
6F9E
6290
8D90
8D90
90FE
ENDCHAR
STARTCHAR 51E0
ENCODING 20960
SWIDTH 1020 0
DWIDTH 17 0
BBX 15 15 0 -2
BITMAP
1FE0
1020
1020
1020
1020
1020
1020
1020
1020
6020
6020
6022
8022
8022
803E
ENDCHAR
STARTCHAR 51E1
ENCODING 20961
SWIDTH 1020 0
DWIDTH 17 0
BBX 15 15 0 -2
BITMAP
1FE0
1020
1020
1020
1020
1220
1220
1120
1020
6020
6020
6022
8022
8022
803E
ENDCHAR
STARTCHAR 51E6
ENCODING 20966
SWIDTH 1020 0
DWIDTH 17 0
BBX 15 17 0 -2
BITMAP
6000
6000
6000
7E7C
6244
6244
6244
8244
8244
8C44
6D84
1186
1186
7000
8E00
8000
81FE
ENDCHAR
STARTCHAR 51E7
ENCODING 20967
SWIDTH 1020 0
DWIDTH 17 0
BBX 15 15 0 -2
BITMAP
7FFC
6104
6104
6104
6FE4
6924
6924
6924
6924
6924
6924
69E2
8102
8102
8102
ENDCHAR
STARTCHAR 51E9
ENCODING 20969
SWIDTH 1020 0
DWIDTH 17 0
BBX 15 15 0 -2
BITMAP
7FFC
6104
6104
6104
7FFC
6104
6104
6304
63C4
6D24
6924
691A
8102
8102
8102
ENDCHAR
STARTCHAR 51EA
ENCODING 20970
SWIDTH 1020 0
DWIDTH 17 0
BBX 15 15 0 -2
BITMAP
7FFC
6004
6104
6104
6104
6104
6104
6DE4
6D04
6D04
6D04
6D02
9FFA
9FFA
8002
ENDCHAR
STARTCHAR 51ED
ENCODING 20973
SWIDTH 1020 0
DWIDTH 17 0
BBX 15 15 0 -2
BITMAP
17FE
1060
6FFE
6FFE
E060
6060
6060
67FE
0000
0000
0FE0
0860
0862
0862
F07E
ENDCHAR
STARTCHAR 51F0
ENCODING 20976
SWIDTH 1020 0
DWIDTH 17 0
BBX 15 15 0 -2
BITMAP
7FFC
6184
6184
6FE4
6C24
6FE4
6C24
6C24
6FE4
6184
6184
6FE2
8182
8182
9FFA
ENDCHAR
STARTCHAR 51F1
ENCODING 20977
SWIDTH 1020 0
DWIDTH 17 0
BBX 15 17 0 -2
BITMAP
1000
1000
927C
FE44
0044
0044
FE44
0044
0044
FE44
8244
8244
FE44
6C44
6D84
6C04
FE06
ENDCHAR
STARTCHAR 51F5
ENCODING 20981
SWIDTH 1020 0
DWIDTH 17 0
BBX 15 15 0 -2
BITMAP
8002
8002
8002
8002
8002
8002
8002
8002
8002
8002
8002
8002
8002
8002
FFFE
ENDCHAR
STARTCHAR 51F6
ENCODING 20982
SWIDTH 1020 0
DWIDTH 17 0
BBX 15 15 0 -2
BITMAP
8002
9012
8C22
8C22
8242
8182
8182
8242
8C22
8C22
9012
8002
8002
8002
FFFE
ENDCHAR
STARTCHAR 51F8
ENCODING 20984
SWIDTH 1020 0
DWIDTH 17 0
BBX 15 15 0 -2
BITMAP
0FE0
0820
0820
0820
0820
0820
0820
F83E
8002
8002
8002
8002
8002
8002
FFFE
ENDCHAR
STARTCHAR 51F9
ENCODING 20985
SWIDTH 1020 0
DWIDTH 17 0
BBX 15 15 0 -2
BITMAP
F83E
8822
8822
8822
8822
8822
8822
8FE2
8002
8002
8002
8002
8002
8002
FFFE
ENDCHAR
STARTCHAR 51FA
ENCODING 20986
SWIDTH 1020 0
DWIDTH 17 0
BBX 15 17 0 -2
BITMAP
0100
0100
0100
6104
6104
6104
6104
7FFC
0100
0100
0100
8102
8102
8102
8102
8102
FFFE
ENDCHAR
STARTCHAR 51FD
ENCODING 20989
SWIDTH 1020 0
DWIDTH 17 0
BBX 15 15 0 -2
BITMAP
FFFE
0200
0300
0300
911A
8D22
8102
8102
8D22
911A
911A
E30E
8002
8002
FFFE
ENDCHAR
STARTCHAR 51FE
ENCODING 20990
SWIDTH 1020 0
DWIDTH 17 0
BBX 15 15 0 -2
BITMAP
7FFC
00C0
8102
8102
81FE
F902
8902
8922
892E
F93A
F93A
81CE
8602
8602
FFFE
ENDCHAR
STARTCHAR 5200
ENCODING 20992
SWIDTH 1020 0
DWIDTH 17 0
BBX 15 15 0 -2
BITMAP
FFFE
0602
0602
0602
0602
0602
0602
0602
0602
0802
0802
0802
100C
0000
E0F0
ENDCHAR
STARTCHAR 5203
ENCODING 20995
SWIDTH 1020 0
DWIDTH 17 0
BBX 15 15 0 -2
BITMAP
FFFE
0602
0602
0602
1602
0E02
0602
0602
0702
0882
0882
0802
100C
0000
E0F0
ENDCHAR
STARTCHAR 5204
ENCODING 20996
SWIDTH 1020 0
DWIDTH 17 0
BBX 15 15 0 -2
BITMAP
FFFC
020C
620C
620C
620C
920C
920C
8C0C
0F0C
0F0C
10FE
100C
6010
6010
60E0
ENDCHAR
STARTCHAR 5206
ENCODING 20998
SWIDTH 1020 0
DWIDTH 17 0
BBX 15 15 0 -2
BITMAP
11F8
1018
1004
1004
6004
6002
9FFA
9FFA
8618
0618
0618
0818
0818
0818
70E0
ENDCHAR
STARTCHAR 5207
ENCODING 20999
SWIDTH 1020 0
DWIDTH 17 0
BBX 16 15 0 -2
BITMAP
23FF
2043
2043
2043
FC43
2043
2043
2043
2183
2183
2183
1E03
0204
0000
0038
ENDCHAR
STARTCHAR 5208
ENCODING 21000
SWIDTH 1020 0
DWIDTH 17 0
BBX 15 15 0 -2
BITMAP
0202
0222
0222
8222
6222
1C22
0C22
0C22
0C22
1222
1222
1102
6002
6002
600E
ENDCHAR
STARTCHAR 520A
ENCODING 21002
SWIDTH 1020 0
DWIDTH 17 0
BBX 15 15 0 -2
BITMAP
FF02
1022
1022
1022
1022
1022
1022
FF22
1022
1022
1022
1002
1002
1002
100E
ENDCHAR
STARTCHAR 520B
ENCODING 21003
SWIDTH 1020 0
DWIDTH 17 0
BBX 15 15 0 -2
BITMAP
0382
FC22
0422
0422
0422
0422
0422
FFE2
0422
0422
0422
1802
1802
1802
2006
ENDCHAR
STARTCHAR 520E
ENCODING 21006
SWIDTH 1020 0
DWIDTH 17 0
BBX 15 17 0 -2
BITMAP
6000
6000
6002
7F22
ED22
ED22
6D22
6D22
6D22
6D22
8D22
9122
9122
1102
6102
6102
6E0E
ENDCHAR
STARTCHAR 5211
ENCODING 21009
SWIDTH 1020 0
DWIDTH 17 0
BBX 15 15 0 -2
BITMAP
FF02
6222
6222
6222
6222
FF22
FF22
6222
6222
6222
6222
6202
8202
8202
820E
ENDCHAR
STARTCHAR 5214
ENCODING 21012
SWIDTH 1020 0
DWIDTH 17 0
BBX 15 17 0 -2
BITMAP
1000
1000
1002
FF22
1122
1122
1122
1122
1122
FFE2
1022
1022
1022
6C02
8202
8202
810E
ENDCHAR
STARTCHAR 5217
ENCODING 21015
SWIDTH 1020 0
DWIDTH 17 0
BBX 15 15 0 -2
BITMAP
FF02
1022
1022
1022
1F22
6122
6122
7122
8D22
0222
0222
0202
1C02
0002
E00E
ENDCHAR
STARTCHAR 521D
ENCODING 21021
SWIDTH 1020 0
DWIDTH 17 0
BBX 15 15 0 -2
BITMAP
63FE
6042
6042
FC42
0C42
0C42
0C42
1042
6182
F182
F182
6202
6204
6204
6038
ENDCHAR
STARTCHAR 5224
ENCODING 21028
SWIDTH 1020 0
DWIDTH 17 0
BBX 15 17 0 -2
BITMAP
1000
1000
1002
9122
9222
9222
1022
FF22
FF22
1022
1022
FF22
FF22
1022
1002
1002
100E
ENDCHAR
STARTCHAR 5225
ENCODING 21029
SWIDTH 1020 0
DWIDTH 17 0
BBX 15 15 0 -2
BITMAP
FE02
8222
8222
8222
FE22
6022
6022
7E22
6222
8222
8222
8202
0202
0202
7C0E
ENDCHAR
STARTCHAR 5227
ENCODING 21031
SWIDTH 1020 0
DWIDTH 17 0
BBX 15 17 0 -2
BITMAP
1000
1000
11FE
FE22
1022
1022
1022
1022
1022
FE22
6042
6042
6042
8202
8204
8200
FE38
ENDCHAR
STARTCHAR 5229
ENCODING 21033
SWIDTH 1020 0
DWIDTH 17 0
BBX 15 15 0 -2
BITMAP
0702
F822
0822
0822
0822
FF22
0822
0822
1822
6E22
6E22
8902
0802
0802
080E
ENDCHAR
STARTCHAR 522A
ENCODING 21034
SWIDTH 1020 0
DWIDTH 17 0
BBX 15 15 0 -2
BITMAP
3F82
25A2
25A2
25A2
25A2
25A2
25A2
FFE2
25A2
25A2
25A2
2582
2582
2582
2586
ENDCHAR
STARTCHAR 522E
ENCODING 21038
SWIDTH 1020 0
DWIDTH 17 0
BBX 15 15 0 -2
BITMAP
0E02
F022
1022
1022
1022
FF22
1022
1022
1022
1022
FE22
8202
8202
8202
FE0E
ENDCHAR
STARTCHAR 5230
ENCODING 21040
SWIDTH 1020 0
DWIDTH 17 0
BBX 15 15 0 -2
BITMAP
FF02
1022
2022
6022
8122
FF22
1022
1022
1022
1022
FF22
1002
1002
1002
FF0E
ENDCHAR
STARTCHAR 5233
ENCODING 21043
SWIDTH 1020 0
DWIDTH 17 0
BBX 15 17 0 -2
BITMAP
0C00
0C00
0C02
FF22
6222
6222
8122
FF22
0022
0022
FF22
6022
6022
FF02
8102
8102
0E0E
ENDCHAR
STARTCHAR 5236
ENCODING 21046
SWIDTH 1020 0
DWIDTH 17 0
BBX 15 17 0 -2
BITMAP
1000
1000
9002
FF22
9022
9022
1022
FF22
FF22
1022
FF22
9122
9122
9102
9302
1002
100E
ENDCHAR
STARTCHAR 5237
ENCODING 21047
SWIDTH 1020 0
DWIDTH 17 0
BBX 15 15 0 -2
BITMAP
FF02
8122
8122
8122
FF22
9022
9022
9022
FF22
9122
9122
9102
9302
1002
100E
ENDCHAR
STARTCHAR 5238
ENCODING 21048
SWIDTH 1020 0
DWIDTH 17 0
BBX 15 17 0 -2
BITMAP
0100
0100
1104
1118
1118
7FFC
0620
FFFE
0818
0818
1FFC
1FFC
E61A
0618
0818
0000
70E0
ENDCHAR
STARTCHAR 5239
ENCODING 21049
SWIDTH 1020 0
DWIDTH 17 0
BBX 15 15 0 -2
BITMAP
6102
1222
0C22
0C22
1222
E122
E122
0C22
FF22
1C22
1C22
6E02
8D02
0C02
0C0E
ENDCHAR
STARTCHAR 523A
ENCODING 21050
SWIDTH 1020 0
DWIDTH 17 0
BBX 15 17 0 -2
BITMAP
1000
1000
1002
FF22
1022
1022
1022
FF22
9122
9122
9122
1022
1C22
7202
9102
1002
100E
ENDCHAR
STARTCHAR 523B
ENCODING 21051
SWIDTH 1020 0
DWIDTH 17 0
BBX 15 17 0 -2
BITMAP
0C00
0C00
0C02
FF22
0C22
0C22
1022
6122
6122
1222
0C22
0C22
7122
0202
1D02
0002
E0CE
ENDCHAR
STARTCHAR 5243
ENCODING 21059
SWIDTH 1020 0
DWIDTH 17 0
BBX 15 17 0 -2
BITMAP
6200
6200
6202
0C22
FF22
FF22
1122
FF22
FF22
9022
FF22
1122
1122
7102
9102
1202
1E0E
ENDCHAR
STARTCHAR 5244
ENCODING 21060
SWIDTH 1020 0
DWIDTH 17 0
BBX 15 15 0 -2
BITMAP
FF02
6D22
6D22
6D22
9222
6D22
6D22
6D22
0022
0022
FF22
1002
1002
1002
FF0E
ENDCHAR
STARTCHAR 5247
ENCODING 21063
SWIDTH 1020 0
DWIDTH 17 0
BBX 15 15 0 -2
BITMAP
FE02
8222
8222
FE22
8222
FE22
8222
8222
8222
8222
FE22
0002
6202
0202
810E
ENDCHAR
STARTCHAR 524A
ENCODING 21066
SWIDTH 1020 0
DWIDTH 17 0
BBX 15 17 0 -2
BITMAP
1000
1000
1002
9122
9222
9222
1022
FF22
8122
8122
FF22
8122
8122
FF02
8102
8102
830E
ENDCHAR
STARTCHAR 524B
ENCODING 21067
SWIDTH 1020 0
DWIDTH 17 0
BBX 15 17 0 -2
BITMAP
1000
1000
1022
FF22
1022
1022
FE22
8222
8222
8222
FE02
FE02
6C0E
6C00
8C02
8C02
83FE
ENDCHAR
STARTCHAR 524C
ENCODING 21068
SWIDTH 1020 0
DWIDTH 17 0
BBX 15 17 0 -2
BITMAP
1000
1000
1002
FF22
1022
1022
FF22
9122
9122
9122
FF22
1C22
1C22
7202
9102
1002
100E
ENDCHAR
STARTCHAR 524D
ENCODING 21069
SWIDTH 1020 0
DWIDTH 17 0
BBX 15 17 0 -2
BITMAP
0C18
0C00
0C20
FFFE
0000
0000
7F22
6122
6122
7F22
6122
7F22
7F22
6122
6102
6102
630E
ENDCHAR
STARTCHAR 524F
ENCODING 21071
SWIDTH 1020 0
DWIDTH 17 0
BBX 15 17 0 -2
BITMAP
8200
8200
63FE
0C22
FE22
FE22
6C62
6C22
6C22
6C3A
FE46
6C42
6C42
6D82
8D84
8D84
8C38
ENDCHAR
STARTCHAR 5254
ENCODING 21076
SWIDTH 1020 0
DWIDTH 17 0
BBX 15 15 0 -2
BITMAP
FE02
8222
FE22
FE22
8222
FE22
FE22
6022
FF22
6D22
6D22
8D02
1102
0202
6E0E
ENDCHAR
STARTCHAR 5256
ENCODING 21078
SWIDTH 1020 0
DWIDTH 17 0
BBX 15 17 0 -2
BITMAP
1000
1000
1002
FF22
6222
6222
6222
FF22
0022
0022
0022
0022
FF22
8102
8102
8102
FF0E
ENDCHAR
STARTCHAR 525B
ENCODING 21083
SWIDTH 1020 0
DWIDTH 17 0
BBX 15 15 0 -2
BITMAP
FFC2
8052
9252
9252
9252
FFD2
9052
9052
9052
9252
9252
FE42
8042
8042
81CE
ENDCHAR
STARTCHAR 525E
ENCODING 21086
SWIDTH 1020 0
DWIDTH 17 0
BBX 15 17 0 -2
BITMAP
0C00
0C00
0C02
FF22
0C22
0C22
1222
6122
6122
FFE2
0122
F122
F122
9102
F102
0102
030E
ENDCHAR
STARTCHAR 5263
ENCODING 21091
SWIDTH 1020 0
DWIDTH 17 0
BBX 15 15 0 -2
BITMAP
7E02
8122
8122
FF22
1022
FF22
9122
9122
9122
9122
FF22
1002
6E02
0002
81CE
ENDCHAR
STARTCHAR 5264
ENCODING 21092
SWIDTH 1020 0
DWIDTH 17 0
BBX 15 17 0 -2
BITMAP
0800
0800
0802
FFE2
6122
6122
6622
1E22
E1E2
E1E2
7F22
6122
6122
7F22
8102
8102
8106
ENDCHAR
STARTCHAR 5265
ENCODING 21093
SWIDTH 1020 0
DWIDTH 17 0
BBX 15 15 0 -2
BITMAP
FE02
0222
0222
7E22
0222
FF22
0C22
0C22
ED22
ED22
6E22
6D02
8CC2
0C02
1C0E
ENDCHAR
STARTCHAR 5269
ENCODING 21097
SWIDTH 1020 0
DWIDTH 17 0
BBX 15 15 0 -2
BITMAP
FFC2
0C12
0C12
FFD2
6D12
EDD2
6D12
6D12
EDD2
EDD2
0E12
1D02
ECC2
0C02
0C0E
ENDCHAR
STARTCHAR 526A
ENCODING 21098
SWIDTH 1020 0
DWIDTH 17 0
BBX 15 17 0 -2
BITMAP
0C20
0C20
0C20
FFFE
6244
6244
7244
6E44
6E44
621C
0000
0000
FFFE
0202
1C02
0000
E01C
ENDCHAR
STARTCHAR 526F
ENCODING 21103
SWIDTH 1020 0
DWIDTH 17 0
BBX 15 15 0 -2
BITMAP
FF02
0022
0022
7E22
6222
7E22
0022
0022
FF22
9122
9122
FF02
9102
9102
FF0E
ENDCHAR
STARTCHAR 5270
ENCODING 21104
SWIDTH 1020 0
DWIDTH 17 0
BBX 15 15 0 -2
BITMAP
FF02
0C22
0C22
FF22
6D22
FF22
6D22
6D22
6D22
6D22
FF22
0C02
1D02
0D02
ECCE
ENDCHAR
STARTCHAR 5271
ENCODING 21105
SWIDTH 1020 0
DWIDTH 17 0
BBX 15 15 0 -2
BITMAP
79FE
8622
8622
FE22
10E2
FE22
963A
963A
9626
FEC2
FEC2
10C2
6804
0800
8738
ENDCHAR
STARTCHAR 5272
ENCODING 21106
SWIDTH 1020 0
DWIDTH 17 0
BBX 15 17 0 -2
BITMAP
0800
0800
0802
FFE2
8822
8822
FF22
0822
0822
7F22
0822
0822
FF22
6102
6102
6102
7F0E
ENDCHAR
STARTCHAR 5273
ENCODING 21107
SWIDTH 1020 0
DWIDTH 17 0
BBX 15 17 0 -2
BITMAP
6200
6200
6202
FF22
FF22
6222
1C22
6222
8122
8122
FE22
0022
0022
FF02
8102
8102
FF0E
ENDCHAR
STARTCHAR 5274
ENCODING 21108
SWIDTH 1020 0
DWIDTH 17 0
BBX 15 17 0 -2
BITMAP
1000
1000
9102
FF22
0022
0022
FF22
0022
0022
FF22
8122
8122
FF22
6202
6202
6202
FF0E
ENDCHAR
STARTCHAR 5275
ENCODING 21109
SWIDTH 1020 0
DWIDTH 17 0
BBX 15 15 0 -2
BITMAP
1E02
6122
6122
FF22
6122
7F22
6122
6122
7F22
6022
6022
9F02
9102
9102
1F0E
ENDCHAR
STARTCHAR 527D
ENCODING 21117
SWIDTH 1020 0
DWIDTH 17 0
BBX 15 15 0 -2
BITMAP
FFC2
1212
1212
FFD2
9252
FFD2
0012
0012
FFD2
0012
0012
FFC2
6D82
6D82
9C4E
ENDCHAR
STARTCHAR 527F
ENCODING 21119
SWIDTH 1020 0
DWIDTH 17 0
BBX 15 17 0 -2
BITMAP
6D00
9202
9202
6D22
FF22
FF22
9122
FF22
FF22
9122
FF22
1022
1022
7202
9102
1002
100E
ENDCHAR
STARTCHAR 5283
ENCODING 21123
SWIDTH 1020 0
DWIDTH 17 0
BBX 15 15 0 -2
BITMAP
FF02
1122
1122
FF22
1122
FF22
1022
1022
FFE2
9122
9122
FF02
9102
9102
FFCE
ENDCHAR
STARTCHAR 5287
ENCODING 21127
SWIDTH 1020 0
DWIDTH 17 0
BBX 15 17 0 -2
BITMAP
0800
0800
0F02
0822
0822
FFE2
8822
FF22
8822
8822
9FE2
9FE2
E622
1EC2
E702
2002
18C6
ENDCHAR
STARTCHAR 5288
ENCODING 21128
SWIDTH 1020 0
DWIDTH 17 0
BBX 15 17 0 -2
BITMAP
0020
0020
FC20
8DFE
FC44
FC44
83FE
FC20
FC20
8DFE
8C20
8C20
FFFE
0202
1C02
0000
E01C
ENDCHAR
STARTCHAR 5289
ENCODING 21129
SWIDTH 1020 0
DWIDTH 17 0
BBX 15 15 0 -2
BITMAP
EFC2
82D2
82D2
92D2
EDD2
1F12
60D2
60D2
FF32
0C12
0C12
FFC2
6D02
6D02
FFCE
ENDCHAR
STARTCHAR 528D
ENCODING 21133
SWIDTH 1020 0
DWIDTH 17 0
BBX 15 15 0 -2
BITMAP
7F82
8052
8052
FF92
0012
F3D2
9252
9252
9252
F3D2
F3D2
6182
9242
9242
8C2E
ENDCHAR
STARTCHAR 5291
ENCODING 21137
SWIDTH 1020 0
DWIDTH 17 0
BBX 15 17 0 -2
BITMAP
0200
0202
0202
FFFA
6D22
6D22
6F3A
9DDA
80DA
60DA
7FDA
60DA
60DA
7FC2
80C2
80C2
80CE
ENDCHAR
STARTCHAR 5292
ENCODING 21138
SWIDTH 1020 0
DWIDTH 17 0
BBX 15 15 0 -2
BITMAP
7DFE
8222
8222
FE22
0062
FFA2
9222
9222
9222
FE42
FE42
6C42
9204
9204
91B8
ENDCHAR
STARTCHAR 5294
ENCODING 21140
SWIDTH 1020 0
DWIDTH 17 0
BBX 15 15 0 -2
BITMAP
7DFE
8222
8222
FE22
0022
FE62
FE62
923A
9226
FE42
FE42
6C42
9204
9204
91B8
ENDCHAR
STARTCHAR 529B
ENCODING 21147
SWIDTH 1020 0
DWIDTH 17 0
BBX 15 17 0 -2
BITMAP
0600
0600
0600
0600
FFFE
FFFE
0602
0602
0602
0602
0602
0802
0802
0802
100C
0000
E0F0
ENDCHAR
STARTCHAR 529F
ENCODING 21151
SWIDTH 1020 0
DWIDTH 17 0
BBX 15 17 0 -2
BITMAP
0020
0020
0020
FC20
FC20
13FE
1022
1022
10C2
10C2
10C2
1102
1102
1D02
E004
0000
0038
ENDCHAR
STARTCHAR 52A0
ENCODING 21152
SWIDTH 1020 0
DWIDTH 17 0
BBX 15 17 0 -2
BITMAP
1000
1000
1000
103E
FF22
FF22
1122
1122
1122
1122
6122
6122
6122
8122
8222
8222
1C3E
ENDCHAR
STARTCHAR 52A3
ENCODING 21155
SWIDTH 1020 0
DWIDTH 17 0
BBX 15 17 0 -2
BITMAP
0100
0100
1118
1104
1104
6302
8038
0FC0
F100
F100
1FFE
0102
0102
0202
1C04
0000
E0F8
ENDCHAR
STARTCHAR 52A9
ENCODING 21161
SWIDTH 1020 0
DWIDTH 17 0
BBX 15 17 0 -2
BITMAP
0020
0020
F820
8820
8820
8FFE
F822
8822
88C2
88C2
F8C2
8902
8902
8902
8804
8800
FE38
ENDCHAR
STARTCHAR 52AA
ENCODING 21162
SWIDTH 1020 0
DWIDTH 17 0
BBX 15 17 0 -2
BITMAP
1000
1000
10FE
FF02
6222
6222
6224
1E1C
1E1C
E1E2
0100
0100
7FFC
0104
0E04
0000
7038
ENDCHAR
STARTCHAR 52AB
ENCODING 21163
SWIDTH 1020 0
DWIDTH 17 0
BBX 15 17 0 -2
BITMAP
1020
1020
1020
FE20
FE20
11FE
1022
1022
1022
FE22
1042
1042
1042
6202
8204
8200
FE38
ENDCHAR
STARTCHAR 52AC
ENCODING 21164
SWIDTH 1020 0
DWIDTH 17 0
BBX 15 17 0 -2
BITMAP
6020
6020
6020
7E20
87FE
87FE
8622
F622
9622
9622
9622
F642
F642
0642
0804
0000
7038
ENDCHAR
STARTCHAR 52AD
ENCODING 21165
SWIDTH 1020 0
DWIDTH 17 0
BBX 15 17 0 -2
BITMAP
0020
FE20
FE20
6220
63FE
63FE
8222
9C22
9C22
0022
FE22
8242
8242
8242
8204
8200
FE38
ENDCHAR
STARTCHAR 52B1
ENCODING 21169
SWIDTH 1020 0
DWIDTH 17 0
BBX 15 17 0 -2
BITMAP
0020
0020
FF20
8020
8020
FFFE
9022
9022
9022
9F22
9122
9122
9122
11C2
6102
6102
6E1C
ENDCHAR
STARTCHAR 52B4
ENCODING 21172
SWIDTH 1020 0
DWIDTH 17 0
BBX 15 17 0 -2
BITMAP
0800
0604
0604
6118
1020
1020
FFFE
8102
8102
0100
7FFC
0604
0604
0604
0804
0000
70F8
ENDCHAR
STARTCHAR 52B5
ENCODING 21173
SWIDTH 1020 0
DWIDTH 17 0
BBX 15 17 0 -2
BITMAP
0100
0100
1118
6104
6104
FFFE
0620
FFFE
0818
0818
1FFC
1FFC
E61A
0618
0818
0000
70E0
ENDCHAR
STARTCHAR 52B9
ENCODING 21177
SWIDTH 1020 0
DWIDTH 17 0
BBX 15 17 0 -2
BITMAP
1020
1020
1020
FE20
FE20
01FE
6C22
8222
0022
0022
6C42
1042
1042
1C02
6204
0000
8038
ENDCHAR
STARTCHAR 52BC
ENCODING 21180
SWIDTH 1020 0
DWIDTH 17 0
BBX 15 17 0 -2
BITMAP
1020
1020
1020
FE20
FE20
11FE
1022
FE22
0022
0022
0022
0022
FE42
8242
8204
8200
FE38
ENDCHAR
STARTCHAR 52BE
ENCODING 21182
SWIDTH 1020 0
DWIDTH 17 0
BBX 15 17 0 -2
BITMAP
1020
1020
1020
FE20
FE20
61FE
8222
6C22
1042
1042
6242
8D82
8D82
1182
6C04
0000
8238
ENDCHAR
STARTCHAR 52C1
ENCODING 21185
SWIDTH 1020 0
DWIDTH 17 0
BBX 15 17 0 -2
BITMAP
0020
FFA0
FFA0
6C20
6DFE
6DFE
9222
6DA2
6DA2
6DA2
0022
FE42
FE42
1042
1004
1000
FE38
ENDCHAR
STARTCHAR 52C3
ENCODING 21187
SWIDTH 1020 0
DWIDTH 17 0
BBX 15 17 0 -2
BITMAP
1020
1020
1020
FE20
11FE
11FE
FE22
8222
8222
7C22
0C42
1042
1042
FF82
1184
1000
7038
ENDCHAR
STARTCHAR 52C5
ENCODING 21189
SWIDTH 1020 0
DWIDTH 17 0
BBX 15 17 0 -2
BITMAP
0020
0020
1020
FE20
11FE
11FE
FE22
9222
9222
9222
FE22
1042
1042
7C42
9204
1000
1038
ENDCHAR
STARTCHAR 52C7
ENCODING 21191
SWIDTH 1020 0
DWIDTH 17 0
BBX 15 15 0 -2
BITMAP
7FF8
0020
0020
7FFC
6104
7FFC
6104
6104
6104
FFFE
0202
0202
1C02
0000
E03C
ENDCHAR
STARTCHAR 52C9
ENCODING 21193
SWIDTH 1020 0
DWIDTH 17 0
BBX 15 17 0 -2
BITMAP
0020
0020
7820
8820
11FE
11FE
FE22
9622
9622
9622
FEC2
68C2
68C2
681C
8800
8800
87FE
ENDCHAR
STARTCHAR 52CD
ENCODING 21197
SWIDTH 1020 0
DWIDTH 17 0
BBX 15 17 0 -2
BITMAP
0820
0820
0820
FE20
01FE
01FE
7E22
6622
6622
6622
7EC2
08C2
08C2
6902
8904
8904
1838
ENDCHAR
STARTCHAR 52D2
ENCODING 21202
SWIDTH 1020 0
DWIDTH 17 0
BBX 15 17 0 -2
BITMAP
0020
6C20
6C20
FE20
6DFE
6DFE
7C22
1022
1022
FE22
9222
9222
FE42
1042
FE04
1000
1038
ENDCHAR
STARTCHAR 52D5
ENCODING 21205
SWIDTH 1020 0
DWIDTH 17 0
BBX 15 17 0 -2
BITMAP
0020
0020
FE20
1020
1020
FFFE
9222
FE22
9222
9222
FE22
1042
1042
FE42
1004
1000
FE38
ENDCHAR
STARTCHAR 52D7
ENCODING 21207
SWIDTH 1020 0
DWIDTH 17 0
BBX 15 15 0 -2
BITMAP
1FF0
1010
1010
1FF0
1010
1FF0
0020
0020
FFFE
8C22
8C22
FC22
8C42
8C80
FF1C
ENDCHAR
STARTCHAR 52D8
ENCODING 21208
SWIDTH 1020 0
DWIDTH 17 0
BBX 15 17 0 -2
BITMAP
0020
6220
6220
FE20
63FE
63FE
7E22
6222
6222
6222
FF22
9242
9242
E3C2
8004
8000
FF38
ENDCHAR
STARTCHAR 52D9
ENCODING 21209
SWIDTH 1020 0
DWIDTH 17 0
BBX 15 17 0 -2
BITMAP
0020
0020
FE20
023E
6DC2
6DC2
102C
FE38
FE38
13CE
1220
7DFE
7DFE
9022
10C2
1000
711C
ENDCHAR
STARTCHAR 52DD
ENCODING 21213
SWIDTH 1020 0
DWIDTH 17 0
BBX 15 17 0 -2
BITMAP
0060
0060
F162
916C
916C
97FE
F090
97FE
910C
910C
F662
9DFE
9DFE
9062
9082
9082
971C
ENDCHAR
STARTCHAR 52DE
ENCODING 21214
SWIDTH 1020 0
DWIDTH 17 0
BBX 15 17 0 -2
BITMAP
0820
0820
6922
8924
8924
16D8
6104
FFFE
FFFE
8102
7FFC
0604
0604
0604
0804
0000
70F8
ENDCHAR
STARTCHAR 52DF
ENCODING 21215
SWIDTH 1020 0
DWIDTH 17 0
BBX 15 17 0 -2
BITMAP
0820
0820
0820
FFFE
0820
0820
1FF0
1010
1010
FFFE
1010
1010
7FFC
8612
0810
0810
70E0
ENDCHAR
STARTCHAR 52E0
ENCODING 21216
SWIDTH 1020 0
DWIDTH 17 0
BBX 15 17 0 -2
BITMAP
0020
0020
FF20
9120
73FE
73FE
9D22
1122
1122
1E22
E122
0EC2
0EC2
70C2
0E04
0000
F038
ENDCHAR
STARTCHAR 52E2
ENCODING 21218
SWIDTH 1020 0
DWIDTH 17 0
BBX 15 17 0 -2
BITMAP
1020
1020
1020
FFFC
1024
1024
FF24
62C4
FD22
FD22
1102
1102
FFFC
0204
0C04
0000
7038
ENDCHAR
STARTCHAR 52E3
ENCODING 21219
SWIDTH 1020 0
DWIDTH 17 0
BBX 15 17 0 -2
BITMAP
1020
1020
1020
FE20
11FE
11FE
FE22
1022
1022
FE22
8242
8242
FE42
8202
FE04
8200
83B8
ENDCHAR
STARTCHAR 52E4
ENCODING 21220
SWIDTH 1020 0
DWIDTH 17 0
BBX 15 17 0 -2
BITMAP
0020
6C20
6C20
FE20
6DFE
6DFE
FE22
9222
9222
9222
FE22
1042
1042
FE42
1004
1000
FE38
ENDCHAR
STARTCHAR 52E6
ENCODING 21222
SWIDTH 1020 0
DWIDTH 17 0
BBX 15 17 0 -2
BITMAP
6DA0
6DA0
9220
6C20
FFFE
FFFE
9222
FE22
9222
9222
FE42
1042
1042
7202
9184
1000
1038
ENDCHAR
STARTCHAR 52E7
ENCODING 21223
SWIDTH 1020 0
DWIDTH 17 0
BBX 15 17 0 -2
BITMAP
6020
6020
6020
7FA0
907E
907E
FFA2
6822
6822
7FA2
E822
E822
7FC2
6842
6804
6800
7FB8
ENDCHAR
STARTCHAR 52F2
ENCODING 21234
SWIDTH 1020 0
DWIDTH 17 0
BBX 15 17 0 -2
BITMAP
0020
FE20
FE20
11FE
FE22
FE22
9222
FE22
9242
9242
FE42
FE42
101C
FE00
004C
0044
8C22
ENDCHAR
STARTCHAR 52F3
ENCODING 21235
SWIDTH 1020 0
DWIDTH 17 0
BBX 15 17 0 -2
BITMAP
0020
0020
FE20
1020
1020
FFFE
9222
FE22
1022
1022
FE22
1042
1042
FE42
6C04
1400
9238
ENDCHAR
STARTCHAR 52F5
ENCODING 21237
SWIDTH 1020 0
DWIDTH 17 0
BBX 15 17 0 -2
BITMAP
0020
0020
FFA0
8220
8220
FFFE
8DA2
FFA2
8DA2
8DA2
FFC2
8C42
8C42
FF82
9184
9180
9DB8
ENDCHAR
STARTCHAR 52F8
ENCODING 21240
SWIDTH 1020 0
DWIDTH 17 0
BBX 15 17 0 -2
BITMAP
6C20
6C20
6C20
FE20
93FE
93FE
9222
FE22
FE22
6C22
FE22
8C42
8C42
FE42
8C04
8C00
FE38
ENDCHAR
STARTCHAR 52F9
ENCODING 21241
SWIDTH 1020 0
DWIDTH 17 0
BBX 15 17 0 -2
BITMAP
1000
1000
1000
1FFE
6002
6002
6002
8002
8002
8002
0002
0002
0002
0002
000C
0000
00F0
ENDCHAR
STARTCHAR 52FA
ENCODING 21242
SWIDTH 1020 0
DWIDTH 17 0
BBX 15 17 0 -2
BITMAP
1000
1000
1000
1FFE
6002
6002
6002
8202
8202
8202
0182
0182
0182
0002
0004
0000
0038
ENDCHAR
STARTCHAR 52FE
ENCODING 21246
SWIDTH 1020 0
DWIDTH 17 0
BBX 15 17 0 -2
BITMAP
1000
1000
1000
1FFE
6002
6002
6202
8202
8C02
8C02
0C42
1042
1042
1FC2
0004
0000
0038
ENDCHAR
STARTCHAR 52FF
ENCODING 21247
SWIDTH 1020 0
DWIDTH 17 0
BBX 15 17 0 -2
BITMAP
1000
1000
1000
1FFE
6222
6222
6222
8222
8222
8C22
0C42
1042
1042
6182
0204
0000
0038
ENDCHAR
STARTCHAR 5301
ENCODING 21249
SWIDTH 1020 0
DWIDTH 17 0
BBX 15 17 0 -2
BITMAP
1000
1000
1000
1FFE
6042
6042
6C42
8242
8242
8182
0182
0182
0242
0C22
1004
0000
0038
ENDCHAR
STARTCHAR 5302
ENCODING 21250
SWIDTH 1020 0
DWIDTH 17 0
BBX 15 17 0 -2
BITMAP
1000
1000
1000
1FFE
6002
6002
6C02
8CE2
8CE2
8F02
0C02
0C22
0C22
03E2
0004
0000
0038
ENDCHAR
STARTCHAR 5305
ENCODING 21253
SWIDTH 1020 0
DWIDTH 17 0
BBX 15 17 0 -2
BITMAP
1000
1000
1000
1FFE
6002
6002
6FE2
8022
8022
8022
1FE2
1FE2
101C
1000
1002
1002
1FFE
ENDCHAR
STARTCHAR 5306
ENCODING 21254
SWIDTH 1020 0
DWIDTH 17 0
BBX 15 17 0 -2
BITMAP
1000
1000
1000
1FFE
6222
6222
6222
8222
8222
9C22
0FC2
0FC2
10FA
6102
0204
0000
0038
ENDCHAR
STARTCHAR 5308
ENCODING 21256
SWIDTH 1020 0
DWIDTH 17 0
BBX 15 17 0 -2
BITMAP
1000
1000
1000
1FFE
6002
6002
7042
8DA2
8DA2
8222
6DA2
6DA2
7062
6022
7FE2
0000
001C
ENDCHAR
STARTCHAR 530D
ENCODING 21261
SWIDTH 1020 0
DWIDTH 17 0
BBX 15 17 0 -2
BITMAP
1000
1000
1000
1FFE
6242
6242
7FE2
8202
8202
FFE2
6222
6222
7FE2
6222
6262
0004
001C
ENDCHAR
STARTCHAR 530F
ENCODING 21263
SWIDTH 1020 0
DWIDTH 17 0
BBX 15 17 0 -2
BITMAP
1040
1040
1040
FE7E
FE7E
6D82
8272
FE52
0052
0052
FE72
604E
604E
FE40
8242
8242
1C3E
ENDCHAR
STARTCHAR 5310
ENCODING 21264
SWIDTH 1020 0
DWIDTH 17 0
BBX 15 17 0 -2
BITMAP
1000
1000
1000
1FFE
6002
6002
7FE2
9042
FFE2
FFE2
6222
6222
7FE2
6222
7FE2
0000
001C
ENDCHAR
STARTCHAR 5315
ENCODING 21269
SWIDTH 1020 0
DWIDTH 17 0
BBX 15 17 0 -2
BITMAP
0800
0800
0800
0800
080E
080E
08F0
0F00
0F00
F800
0800
0802
0802
0802
0802
0802
07FE
ENDCHAR
STARTCHAR 5316
ENCODING 21270
SWIDTH 1020 0
DWIDTH 17 0
BBX 15 17 0 -2
BITMAP
0040
0040
0C40
0C40
1C42
1042
104C
7050
7050
9060
1040
1040
1040
1042
1042
1042
107E
ENDCHAR
STARTCHAR 5317
ENCODING 21271
SWIDTH 1020 0
DWIDTH 17 0
BBX 15 17 0 -2
BITMAP
0040
0040
0840
0840
084E
084E
F878
0840
0840
0840
0840
1840
1840
E842
0842
0842
087E
ENDCHAR
STARTCHAR 5319
ENCODING 21273
SWIDTH 1020 0
DWIDTH 17 0
BBX 16 15 0 -2
BITMAP
FE40
8247
8247
FE78
8240
FE40
0040
0043
FE43
FE43
103F
9E00
F000
9000
8FFF
ENDCHAR
STARTCHAR 531A
ENCODING 21274
SWIDTH 1020 0
DWIDTH 17 0
BBX 15 15 0 -2
BITMAP
FFFE
8000
8000
8000
8000
8000
8000
8000
8000
8000
8000
8000
8000
8000
FFFE
ENDCHAR
STARTCHAR 531D
ENCODING 21277
SWIDTH 1020 0
DWIDTH 17 0
BBX 15 15 0 -2
BITMAP
FFFE
8040
8040
8040
8FFC
8844
8844
8844
8844
8844
885C
8040
8000
8000
FFFE
ENDCHAR
STARTCHAR 5320
ENCODING 21280
SWIDTH 1020 0
DWIDTH 17 0
BBX 15 15 0 -2
BITMAP
FFFE
8000
8000
8FF8
8C00
8C00
8C00
8FFC
8C20
9C20
9020
9020
8020
8020
FFFE
ENDCHAR
STARTCHAR 5321
ENCODING 21281
SWIDTH 1020 0
DWIDTH 17 0
BBX 16 15 0 -2
BITMAP
FFFF
8000
8000
9FFF
8040
8040
8040
8FFC
8040
8040
8040
9FFF
8000
8000
FFFF
ENDCHAR
STARTCHAR 5323
ENCODING 21283
SWIDTH 1020 0
DWIDTH 17 0
BBX 15 15 0 -2
BITMAP
FFFE
8000
8000
8FFC
8844
8FFC
8844
8844
8FFC
8040
8040
8040
8040
8040
FFFE
ENDCHAR
STARTCHAR 532A
ENCODING 21290
SWIDTH 1020 0
DWIDTH 17 0
BBX 15 15 0 -2
BITMAP
FFFE
8120
8120
8120
9F3E
8120
8120
8F3C
8120
8120
9F3E
8620
8820
8820
FFFE
ENDCHAR
STARTCHAR 532F
ENCODING 21295
SWIDTH 1020 0
DWIDTH 17 0
BBX 15 15 0 -2
BITMAP
FFFE
80C0
90D8
90D8
89FC
9720
9720
89FC
8120
8920
8920
91FC
8000
8000
FFFE
ENDCHAR
STARTCHAR 5331
ENCODING 21297
SWIDTH 1020 0
DWIDTH 17 0
BBX 15 15 0 -2
BITMAP
FFFE
80C0
80C0
8FF8
8CD8
9FFC
8C18
8C18
8FF8
8C18
8C18
8FF8
9004
9004
FFFE
ENDCHAR
STARTCHAR 5333
ENCODING 21299
SWIDTH 1020 0
DWIDTH 17 0
BBX 15 15 0 -2
BITMAP
FFFE
8220
8220
8FF0
900C
EFBE
EFBE
8DAC
8FBC
8FBC
8210
8DAC
9042
9042
FFFE
ENDCHAR
STARTCHAR 5338
ENCODING 21304
SWIDTH 1020 0
DWIDTH 17 0
BBX 15 15 0 -2
BITMAP
FFFE
1000
1000
1000
1000
1000
1000
1000
1000
1000
1000
1000
1000
1000
0FFE
ENDCHAR
STARTCHAR 5339
ENCODING 21305
SWIDTH 1020 0
DWIDTH 17 0
BBX 15 15 0 -2
BITMAP
FFFE
8620
8620
8620
8620
8820
8820
F03E
8000
8000
8000
8000
FFFE
8000
8000
ENDCHAR
STARTCHAR 533A
ENCODING 21306
SWIDTH 1020 0
DWIDTH 17 0
BBX 15 15 0 -2
BITMAP
FFFE
8000
8000
8804
8618
8120
80C0
80C0
8120
8618
8618
8804
8000
8000
FFFE
ENDCHAR
STARTCHAR 533B
ENCODING 21307
SWIDTH 1020 0
DWIDTH 17 0
BBX 15 15 0 -2
BITMAP
FFFE
8C00
8C00
8FFC
8CC0
90C0
90C0
9FFC
8120
8218
8218
9C04
8000
8000
FFFE
ENDCHAR
STARTCHAR 533F
ENCODING 21311
SWIDTH 1020 0
DWIDTH 17 0
BBX 15 15 0 -2
BITMAP
FFFE
8C20
8C20
9FFC
8C20
8100
8100
9FFC
8200
8FF8
8FF8
9C18
8C18
8C18
FFFE
ENDCHAR
STARTCHAR 5340
ENCODING 21312
SWIDTH 1020 0
DWIDTH 17 0
BBX 15 15 0 -2
BITMAP
FFFE
8000
8000
83E0
8220
83E0
8000
8000
9F3C
9124
9124
9F3C
8000
8000
FFFE
ENDCHAR
STARTCHAR 5341
ENCODING 21313
SWIDTH 1020 0
DWIDTH 17 0
BBX 15 17 0 -2
BITMAP
0100
0100
0100
0100
0100
0100
0100
FFFE
0100
0100
0100
0100
0100
0100
0100
0100
0100
ENDCHAR
STARTCHAR 5343
ENCODING 21315
SWIDTH 1020 0
DWIDTH 17 0
BBX 15 15 0 -2
BITMAP
00FC
7F00
0100
0100
0100
0100
0100
FFFE
0100
0100
0100
0100
0100
0100
0100
ENDCHAR
STARTCHAR 5345
ENCODING 21317
SWIDTH 1020 0
DWIDTH 17 0
BBX 15 16 0 -2
BITMAP
6000
610C
610C
610C
610C
610C
FFFE
FFFE
610C
610C
610C
610C
610C
810C
810C
810C
ENDCHAR
STARTCHAR 5346
ENCODING 21318
SWIDTH 1020 0
DWIDTH 17 0
BBX 15 17 0 -2
BITMAP
0200
0200
0200
FFE0
0C20
0C20
0C20
1022
1022
E11E
0100
0100
FFFE
0100
0100
0100
0100
ENDCHAR
STARTCHAR 5347
ENCODING 21319
SWIDTH 1020 0
DWIDTH 17 0
BBX 15 15 0 -2
BITMAP
0318
7C18
0C18
0C18
0C18
0C18
0C18
FFFE
0C18
1018
1018
1018
6018
6018
6018
ENDCHAR
STARTCHAR 5348
ENCODING 21320
SWIDTH 1020 0
DWIDTH 17 0
BBX 15 17 0 -2
BITMAP
6000
6000
6000
7FFC
8100
8100
8100
0100
0100
0100
FFFE
0100
0100
0100
0100
0100
0100
ENDCHAR
STARTCHAR 5349
ENCODING 21321
SWIDTH 1020 0
DWIDTH 17 0
BBX 15 17 0 -2
BITMAP
0100
0100
0100
FFFE
0100
0100
0910
0810
0810
0810
FFFE
0810
0810
0810
1010
0010
E010
ENDCHAR
STARTCHAR 534A
ENCODING 21322
SWIDTH 1020 0
DWIDTH 17 0
BBX 15 17 0 -2
BITMAP
0100
0100
0100
610C
610C
1118
0100
7FFC
0100
0100
0100
0100
FFFE
0100
0100
0100
0100
ENDCHAR
STARTCHAR 534D
ENCODING 21325
SWIDTH 1020 0
DWIDTH 17 0
BBX 15 15 0 -2
BITMAP
FF02
0102
0102
0102
0102
0102
0102
FFFE
8100
8100
8100
8100
8100
8100
81FE
ENDCHAR
STARTCHAR 5351
ENCODING 21329
SWIDTH 1020 0
DWIDTH 17 0
BBX 15 17 0 -2
BITMAP
0100
0000
0200
7FFC
610C
610C
7FFC
610C
610C
610C
7FFC
0220
0220
0C20
FFFE
0020
0020
ENDCHAR
STARTCHAR 5352
ENCODING 21330
SWIDTH 1020 0
DWIDTH 17 0
BBX 15 17 0 -2
BITMAP
0100
0100
0100
FFFE
0C20
0C20
0C20
12D8
12D8
610C
0100
0100
FFFE
0100
0100
0100
0100
ENDCHAR
STARTCHAR 5353
ENCODING 21331
SWIDTH 1020 0
DWIDTH 17 0
BBX 15 17 0 -2
BITMAP
0100
0100
0100
01FC
0100
0100
1FF8
1018
1018
1FF8
1018
1018
1FF8
0100
FFFE
0100
0100
ENDCHAR
STARTCHAR 5354
ENCODING 21332
SWIDTH 1020 0
DWIDTH 17 0
BBX 16 17 0 -2
BITMAP
0040
0040
2040
23FC
2044
2044
FC44
2184
2184
27FF
224B
224B
224B
224B
2473
2473
25C7
ENDCHAR
STARTCHAR 5357
ENCODING 21335
SWIDTH 1020 0
DWIDTH 17 0
BBX 15 17 0 -2
BITMAP
0180
0180
0180
FFFE
0180
0180
FFFE
8C22
8C22
8C42
9FFA
8182
8182
9FFA
8182
8182
818E
ENDCHAR
STARTCHAR 5358
ENCODING 21336
SWIDTH 1020 0
DWIDTH 17 0
BBX 15 17 0 -2
BITMAP
020C
020C
6118
1020
1020
7FFC
610C
7FFC
610C
610C
610C
610C
7FFC
0100
FFFE
0100
0100
ENDCHAR
STARTCHAR 535A
ENCODING 21338
SWIDTH 1020 0
DWIDTH 17 0
BBX 16 17 0 -2
BITMAP
0020
0020
2023
2FFF
2020
2020
F3FF
2223
2223
23FF
2223
2223
2FFF
2004
2184
2084
205C
ENDCHAR
STARTCHAR 535C
ENCODING 21340
SWIDTH 1020 0
DWIDTH 17 0
BBX 9 15 4 -2
BITMAP
8000
8000
8000
8000
8000
E000
9C00
9C00
8380
8000
8000
8000
8000
8000
8000
ENDCHAR
STARTCHAR 535E
ENCODING 21342
SWIDTH 1020 0
DWIDTH 17 0
BBX 15 17 0 -2
BITMAP
0100
0100
0100
FFFE
0100
0100
0100
01E0
01E0
011C
0100
0100
0100
0100
0100
0100
0100
ENDCHAR
STARTCHAR 5360
ENCODING 21344
SWIDTH 1020 0
DWIDTH 17 0
BBX 12 17 2 -2
BITMAP
0400
0400
0400
0400
0400
07F0
0400
0400
0400
0400
FFF0
8030
8030
8030
8030
8030
FFF0
ENDCHAR
STARTCHAR 5366
ENCODING 21350
SWIDTH 1020 0
DWIDTH 17 0
BBX 17 17 0 -2
BITMAP
0C0000
0C0000
0C1000
FF1000
0C1000
0C1000
0C1000
FFDC00
FFDC00
0C1200
0C1180
0C1180
FF1000
0C1000
0C1000
0C1000
FFD000
ENDCHAR
STARTCHAR 5369
ENCODING 21353
SWIDTH 1020 0
DWIDTH 17 0
BBX 9 15 3 -2
BITMAP
FF80
8080
8080
8080
8080
8080
8080
8080
8080
8080
8080
8F80
8000
8000
8000
ENDCHAR
STARTCHAR 536E
ENCODING 21358
SWIDTH 1020 0
DWIDTH 17 0
BBX 15 15 0 -2
BITMAP
003C
7FC0
6000
6000
7FFE
6000
6000
63F8
6218
6218
6218
8238
8202
8202
01FE
ENDCHAR
STARTCHAR 536F
ENCODING 21359
SWIDTH 1020 0
DWIDTH 17 0
BBX 15 15 0 -2
BITMAP
033E
3C22
2022
2022
2122
2122
2122
2122
2F22
2F22
F122
0126
0220
0020
1C20
ENDCHAR
STARTCHAR 5370
ENCODING 21360
SWIDTH 1020 0
DWIDTH 17 0
BBX 15 15 0 -2
BITMAP
0E00
F07E
8042
8042
8042
FE42
8042
8042
8042
8042
8042
8042
FE5E
0040
0040
ENDCHAR
STARTCHAR 5371
ENCODING 21361
SWIDTH 1020 0
DWIDTH 17 0
BBX 15 15 0 -2
BITMAP
0FE0
1020
60C0
60C0
FFFE
6000
6000
63F8
6218
6218
6218
6238
8202
8202
83FE
ENDCHAR
STARTCHAR 5373
ENCODING 21363
SWIDTH 1020 0
DWIDTH 17 0
BBX 15 15 0 -2
BITMAP
FE3E
8622
8622
8622
FE22
8622
8622
8622
FE22
8022
8022
8822
862E
8A20
F920
ENDCHAR
STARTCHAR 5374
ENCODING 21364
SWIDTH 1020 0
DWIDTH 17 0
BBX 15 17 0 -2
BITMAP
1000
1000
107E
FE42
1042
1042
1042
1042
1042
FFC2
6042
6042
6042
8242
FE5E
FE5E
0240
ENDCHAR
STARTCHAR 5375
ENCODING 21365
SWIDTH 1020 0
DWIDTH 17 0
BBX 15 15 0 -2
BITMAP
033E
7C22
6022
6022
713A
6D2E
6122
6122
6F22
6F22
F122
012E
0220
0020
1C20
ENDCHAR
ENDFONT
